<svg width="46" height="46" viewBox="0 0 46 46" fill="none" xmlns="http://www.w3.org/2000/svg">
<g id="Frame 237">
<g id="Vector">
<path fill-rule="evenodd" clip-rule="evenodd" d="M39.1819 2.89126L37.133 1.01312L33.0352 4.94007C29.3217 1.22657 18.6934 -1.63327 10.9249 4.94005C3.15647 11.5134 4.3943 21.8002 5.7175 23.1234C5.7175 23.1234 0.510088 26.8796 0.510088 29.526V37.5506H8.83365V33.2396L39.1819 2.89126ZM6.3268 30.1673C6.3268 31.0161 5.63876 31.7041 4.79003 31.7041C3.94129 31.7041 3.25326 31.0161 3.25326 30.1673C3.25326 29.3186 3.94129 28.6305 4.79003 28.6305C5.63876 28.6305 6.3268 29.3186 6.3268 30.1673ZM15.8366 22.4151C15.9261 22.5045 16.9392 21.5633 18.3446 20.1675C17.9592 18.7142 18.1083 16.9204 19.4124 15.6162C20.6985 14.3301 22.4309 14.1375 23.8698 14.4993C24.695 13.636 25.4649 12.825 26.1082 12.1435C24.0362 10.0715 19.0482 8.93174 15.8366 12.1435C12.6252 15.3552 13.8829 20.4614 15.8366 22.4151Z" fill="white"/>
<path d="M45.5 38.9124H0.5V44.9893H4.43326V43.5052C12.4102 45.4244 33.382 45.4537 41.9138 43.5052V44.9893H45.5V38.9124Z" fill="white"/>
<path d="M12.3957 31.8817C12.453 31.9988 12.5859 32.0737 12.729 32.0404L14.672 31.5852C14.9479 31.5205 15.2131 31.7288 15.2156 32.0125L15.2326 34.0077C15.2344 34.2271 15.4664 34.3678 15.6616 34.2682L17.4393 33.3614C17.6918 33.2324 17.9991 33.3713 18.0694 33.6462L18.5633 35.5794C18.6177 35.7918 18.8764 35.8731 19.0425 35.7295L20.551 34.4237C20.7657 34.2379 21.0972 34.2992 21.2312 34.5494L22.1733 36.3081C22.2047 36.3665 22.2512 36.4088 22.3041 36.4344C22.427 36.4938 22.5859 36.4643 22.6745 36.3393L23.827 34.7103C23.929 34.5658 24.0983 34.5036 24.2572 34.5285C24.3534 34.5436 24.4456 34.5903 24.5173 34.6696L25.8529 36.1517C25.9372 36.2451 26.0608 36.269 26.166 36.2341C26.2441 36.2081 26.3126 36.1492 26.3468 36.062L27.2785 33.6894L29.3883 35.1194C29.5699 35.2426 29.8174 35.1314 29.8466 34.914L30.1099 32.9362C30.1474 32.6549 30.436 32.481 30.7022 32.5794L32.5739 33.271C32.7796 33.347 32.9933 33.18 32.9695 32.962L32.7519 30.9785C32.7335 30.8104 32.8106 30.6582 32.9356 30.5692C33.0206 30.5089 33.1276 30.4775 33.2415 30.4903L35.2245 30.7139C35.4424 30.7385 35.61 30.5253 35.5347 30.3192L34.8487 28.4454C34.7511 28.1789 34.9258 27.8909 35.2072 27.8543L37.1858 27.5969C37.4034 27.5686 37.5151 27.3213 37.3926 27.1394L36.2783 25.4842C36.1198 25.2488 36.2206 24.9272 36.4851 24.8244L38.3445 24.1009C38.387 24.0844 38.4227 24.0599 38.4511 24.03C38.5102 23.9684 38.5383 23.884 38.5315 23.8012C38.5257 23.7306 38.4947 23.6609 38.4356 23.6072L36.9578 22.2669C36.7474 22.0763 36.7683 21.7398 37.0006 21.5768L38.6327 20.4293C38.6972 20.3841 38.7365 20.3203 38.7516 20.2522C38.7783 20.1305 38.7271 19.995 38.6032 19.9282L36.8475 18.9805C36.5979 18.8457 36.5373 18.5141 36.7239 18.3001L38.0343 16.7954C38.178 16.63 38.0977 16.3708 37.8855 16.3158L35.9537 15.8159C35.7908 15.7738 35.6763 15.6484 35.6366 15.5007C35.6096 15.3995 35.6179 15.2876 35.6709 15.1849L36.5831 13.4104C36.6836 13.2153 36.5434 12.9827 36.324 12.9802L34.3288 12.9571C34.1775 12.9553 34.0478 12.8789 33.9696 12.7662C33.9015 12.6675 33.8727 12.541 33.9033 12.4122L34.3641 10.4708C34.3872 10.3734 34.3598 10.2804 34.3029 10.2129C34.2658 10.1686 34.2153 10.1352 34.1588 10.1187L26.5003 17.7773C27.374 18.6063 27.9187 19.7785 27.9187 21.0778C27.9187 23.5902 25.8821 25.6271 23.3695 25.6271C22.0699 25.6271 20.8979 25.0823 20.0689 24.2087L12.3957 31.8817Z" fill="white"/>
</g>
</g>
</svg>
