<svg width="46" height="46" viewBox="0 0 46 46" fill="none" xmlns="http://www.w3.org/2000/svg">
<g id="Frame 238">
<g id="Vector">
<path d="M12.8875 6.70301H12.4105C9.43549 6.70301 7.0238 9.1147 7.0238 12.0897V40.1132C7.0238 43.0882 9.43549 45.4999 12.4105 45.4999H33.5895C36.5645 45.4999 38.9762 43.0882 38.9762 40.1132V12.0897C38.9762 9.1147 36.5645 6.70301 33.5895 6.70301H33.4528V9.67728H33.5856C35.0731 9.67728 36.2789 10.8831 36.2789 12.3706V39.9562C36.2789 41.4437 35.0731 42.6495 33.5856 42.6495H12.6916C11.2041 42.6495 9.99824 41.4437 9.99824 39.9562V12.3706C9.99824 10.8831 11.2041 9.67728 12.6916 9.67728H12.8875V6.70301Z" fill="white"/>
<path fill-rule="evenodd" clip-rule="evenodd" d="M19.7125 17.583C20.1142 17.9701 20.126 18.6094 19.7389 19.0111L16.1264 22.7599C15.9362 22.9573 15.6738 23.0689 15.3995 23.069C15.1253 23.0691 14.8628 22.9577 14.6724 22.7604L13.0951 21.1259C12.7078 20.7245 12.7192 20.0851 13.1206 19.6977C13.522 19.3104 14.1614 19.3218 14.5487 19.7232L15.3987 20.604L18.2844 17.6094C18.6714 17.2078 19.3108 17.1959 19.7125 17.583Z" fill="white"/>
<path fill-rule="evenodd" clip-rule="evenodd" d="M19.7125 25.1549C20.1142 25.5419 20.126 26.1813 19.7389 26.583L16.1264 30.3317C15.9362 30.5292 15.6738 30.6408 15.3995 30.6409C15.1253 30.641 14.8628 30.5296 14.6724 30.3322L13.0951 28.6977C12.7078 28.2963 12.7192 27.6569 13.1206 27.2696C13.522 26.8823 14.1614 26.8937 14.5487 27.2951L15.3987 28.1759L18.2844 25.1813C18.6714 24.7796 19.3108 24.7678 19.7125 25.1549Z" fill="white"/>
<path fill-rule="evenodd" clip-rule="evenodd" d="M19.7125 32.7267C20.1142 33.1138 20.126 33.7532 19.7389 34.1549L16.1264 37.9036C15.9362 38.1011 15.6738 38.2127 15.3995 38.2128C15.1253 38.2129 14.8628 38.1015 14.6724 37.9041L13.0951 36.2696C12.7078 35.8682 12.7192 35.2288 13.1206 34.8415C13.522 34.4541 14.1614 34.4655 14.5487 34.8669L15.3987 35.7478L18.2844 32.7532C18.6714 32.3515 19.3108 32.3397 19.7125 32.7267Z" fill="white"/>
<path fill-rule="evenodd" clip-rule="evenodd" d="M21.5097 20.4536C21.5097 19.8958 21.9619 19.4436 22.5197 19.4436H32.0574C32.6152 19.4436 33.0674 19.8958 33.0674 20.4536C33.0674 21.0114 32.6152 21.4636 32.0574 21.4636H22.5197C21.9619 21.4636 21.5097 21.0114 21.5097 20.4536Z" fill="white"/>
<path fill-rule="evenodd" clip-rule="evenodd" d="M21.5097 28.0337C21.5097 27.4758 21.9619 27.0237 22.5197 27.0237H32.0574C32.6152 27.0237 33.0674 27.4758 33.0674 28.0337C33.0674 28.5915 32.6152 29.0437 32.0574 29.0437H22.5197C21.9619 29.0437 21.5097 28.5915 21.5097 28.0337Z" fill="white"/>
<path fill-rule="evenodd" clip-rule="evenodd" d="M21.5097 35.6137C21.5097 35.0559 21.9619 34.6037 22.5197 34.6037H32.0574C32.6152 34.6037 33.0674 35.0559 33.0674 35.6137C33.0674 36.1715 32.6152 36.6237 32.0574 36.6237H22.5197C21.9619 36.6237 21.5097 36.1715 21.5097 35.6137Z" fill="white"/>
<path fill-rule="evenodd" clip-rule="evenodd" d="M22.9998 0.5C19.808 0.5 17.2205 3.08752 17.2205 6.27938V6.70301H14.3838V12.5475C14.3838 13.2912 14.9867 13.8942 15.7304 13.8942H30.2308C30.9745 13.8942 31.5774 13.2912 31.5774 12.5475V6.70301H28.7792V6.27938C28.7792 3.08752 26.1917 0.5 22.9998 0.5ZM25.9847 6.70301V6.36702C25.9847 4.71856 24.6483 3.38221 22.9999 3.38221C21.3514 3.38221 20.015 4.71856 20.015 6.36702V6.70301H25.9847Z" fill="white"/>
</g>
</g>
</svg>
