<svg width="46" height="46" viewBox="0 0 46 46" fill="none" xmlns="http://www.w3.org/2000/svg">
<g id="Frame 237">
<g id="Vector">
<path d="M41.5085 5.5806C42.0338 7.75241 40.8694 9.89764 38.9077 10.3721C36.9461 10.8466 34.93 9.47062 34.4047 7.29881C33.8794 5.127 35.0438 2.98177 37.0054 2.50729C38.9671 2.03282 40.9832 3.40879 41.5085 5.5806Z" fill="white"/>
<path d="M44.1799 15.5499C44.1066 14.4497 43.8132 11.0029 40.2928 11.4429C38.2392 11.6996 34.9879 15.4277 33.1789 17.2368C31.1986 17.7257 27.0107 18.7153 26.3656 19.0086C25.5591 19.3753 25.258 20.2437 25.3313 20.9771C25.4046 21.7105 25.968 22.2866 27.2148 22.2132C28.4616 22.1399 33.52 20.5839 34.4735 20.4372C35.2362 20.3199 37.2124 18.3369 37.2124 18.3369L38.2392 29.9246H39.2661V41.7324C39.2661 42.9792 40.2928 43.5659 41.9797 43.5659C43.6666 43.5659 44.1799 42.7592 44.1799 41.7324V29.3379H45.5C45.0844 25.1086 44.2386 16.43 44.1799 15.5499Z" fill="white"/>
<path d="M29.5351 13.2252C28.8691 13.2252 22.4673 13.7277 19.4197 13.9547L19.6404 18.516C19.0892 18.3214 18.0545 17.9753 17.4745 18.0397C16.1995 18.1813 15.1303 19.3528 15.2859 20.374C15.4415 21.3953 16.5291 22.4389 17.6237 22.4389C18.5276 22.4389 19.3873 21.7357 19.8575 21.3953L20.2465 26.1126C21.3812 26.0477 25.0933 25.8935 25.0933 25.8935C25.0933 25.8935 24.4733 27.0599 24.5976 28.0092C24.7178 28.9266 25.6831 30.0342 27.0063 29.8572C28.115 29.7089 28.855 28.3043 28.855 27.818C28.855 27.3317 28.5625 26.2585 27.7844 25.6262L32.8047 25.0468L32.2585 21.8816C30.8968 22.3841 27.9309 23.2344 26.6081 23.1566C25.2853 23.0788 24.6155 22.1641 24.4733 21.2686C24.331 20.3731 24.2686 18.5158 25.6832 18.1813C26.2371 18.0503 30.994 16.8239 31.8694 16.678C31.7235 14.4409 30.9811 13.2253 29.5351 13.2252Z" fill="white"/>
<path d="M26.3201 41.3211V31.3732H21.3103C21.3103 31.3732 22.2687 30.7181 22.2687 29.1238C22.2687 27.904 21.1048 27.0242 20.1037 27.0242C19.0015 27.0242 17.9125 27.7426 17.9125 29.1238C17.9125 30.367 18.6385 31.2279 19.0015 31.3732H13.7741V35.1046C13.9193 34.9159 14.4449 34.4136 15.3859 34.4136C17.2072 34.4136 18.1738 35.9196 18.1738 37.4878C18.1738 39.056 16.9662 40.2691 15.3859 40.2691C14.7586 40.2691 14.05 39.8835 13.7741 39.7963V43.5865H23.9676C25.3616 43.5865 26.3201 42.3232 26.3201 41.3211Z" fill="white"/>
<path d="M2.76569 43.5864L13.1592 43.5864L13.1592 38.5766C13.1592 38.5766 13.8143 39.6564 15.4086 39.6564C16.6284 39.6564 17.5083 38.3711 17.5083 37.37C17.5083 36.2678 16.7898 35.0498 15.4086 35.0498C14.1654 35.0498 13.3045 35.9048 13.1592 36.2678V31.3992L8.98219 31.3992C9.17096 31.5444 9.67321 32.0701 9.67321 33.011C9.67321 34.8323 8.16726 35.799 6.59901 35.799C5.03077 35.799 3.81767 34.5913 3.81767 33.011C3.81767 32.3837 4.20335 31.6751 4.29048 31.3992H0.50035L0.500349 41.2339C0.500349 42.6279 1.76366 43.5864 2.76569 43.5864Z" fill="white"/>
<path d="M0.5 20.4303L0.500007 30.8239H5.50978C5.50978 30.8239 4.43003 31.4789 4.43003 33.0732C4.43003 34.293 5.71527 35.1729 6.7164 35.1729C7.81858 35.1729 9.03656 34.4544 9.03656 33.0732C9.03656 31.83 8.1816 30.9691 7.81858 30.8239H13.151L13.151 25.3514C13.151 25.6317 13.957 26.3007 15.2462 26.3007C16.5354 26.3007 17.3404 25.3447 17.3404 24.2518C17.3404 23.1588 16.2551 22.1095 15.2462 22.1095C14.4391 22.1095 13.6267 22.6961 13.151 22.9857V18.165H2.85247C1.45847 18.165 0.5 19.4283 0.5 20.4303Z" fill="white"/>
</g>
</g>
</svg>
