<svg width="46" height="46" viewBox="0 0 46 46" fill="none" xmlns="http://www.w3.org/2000/svg">
<g id="Frame 239" clip-path="url(#clip0_226_405)">
<g id="Vector">
<path d="M43.7603 25.7075C43.7603 27.3438 41.0957 28.6703 37.8087 28.6703C34.5218 28.6703 31.8572 27.3438 31.8572 25.7075C31.8572 24.0712 34.5218 22.7447 37.8087 22.7447C41.0957 22.7447 43.7603 24.0712 43.7603 25.7075Z" fill="white"/>
<path d="M31.8572 34.8267C31.8572 36.463 29.1925 37.7895 25.9056 37.7895C22.6186 37.7895 19.954 36.463 19.954 34.8267C19.954 33.1904 22.6186 31.864 25.9056 31.864C29.1925 31.864 31.8572 33.1904 31.8572 34.8267Z" fill="white"/>
<path d="M37.8087 30.329C41.0957 30.329 43.7603 29.0819 43.7603 27.5435C43.7603 27.09 43.7551 26.6533 43.7206 26.2401C43.7468 26.353 43.7603 26.4678 43.7603 26.5842L43.7603 29.5629C43.7603 31.1992 41.0957 32.5257 37.8087 32.5257C34.5218 32.5257 31.8572 31.1992 31.8572 29.5629L31.8572 27.5455C31.8595 29.083 34.5232 30.329 37.8087 30.329Z" fill="white"/>
<path d="M25.9056 39.4483C29.1925 39.4483 31.8571 38.2012 31.8571 36.6627C31.8571 36.2093 31.852 35.7725 31.8174 35.3593C31.8437 35.4722 31.8571 35.5871 31.8571 35.7035L31.8572 38.6822C31.8572 40.3185 29.1925 41.645 25.9056 41.645C22.6186 41.645 19.954 40.3185 19.954 38.6822L19.954 36.6647C19.9563 38.2022 22.62 39.4483 25.9056 39.4483Z" fill="white"/>
<path d="M37.8087 34.1841C41.0957 34.1841 43.7603 32.937 43.7603 31.3985C43.7603 30.9451 43.7551 30.5083 43.7206 30.0951C43.7468 30.208 43.7603 30.3229 43.7603 30.4393L43.7603 33.418C43.7603 35.0543 41.0957 36.3808 37.8087 36.3808C34.5218 36.3808 31.8572 35.0543 31.8572 33.418L31.8572 31.4005C31.8595 32.938 34.5232 34.1841 37.8087 34.1841Z" fill="white"/>
<path d="M25.9056 43.3033C29.1925 43.3033 31.8571 42.0562 31.8571 40.5178C31.8571 40.0643 31.852 39.6276 31.8174 39.2144C31.8437 39.3273 31.8571 39.4421 31.8571 39.5585L31.8572 42.5372C31.8572 44.1735 29.1925 45.5 25.9056 45.5C22.6186 45.5 19.954 44.1735 19.954 42.5372L19.954 40.5198C19.9563 42.0573 22.62 43.3033 25.9056 43.3033Z" fill="white"/>
<path d="M37.8087 38.0391C41.0957 38.0391 43.7603 36.792 43.7603 35.2536C43.7603 34.8001 43.7551 34.3634 43.7206 33.9502C43.7468 34.0631 43.7603 34.1779 43.7603 34.2943L43.7603 37.273C43.7603 38.9093 41.0957 40.2358 37.8087 40.2358C34.5218 40.2358 31.8572 38.9093 31.8572 37.273L31.8572 35.2556C31.8595 36.7931 34.5232 38.0391 37.8087 38.0391Z" fill="white"/>
<path d="M37.8087 41.8942C41.0957 41.8942 43.7603 40.647 43.7603 39.1086C43.7603 38.6552 43.7551 38.2184 43.7206 37.8052C43.7468 37.9181 43.7603 38.033 43.7603 38.1494L43.7603 41.1281C43.7603 42.7644 41.0957 44.0909 37.8087 44.0909C34.5218 44.0909 31.8572 42.7644 31.8572 41.1281L31.8572 39.1106C31.8595 40.6481 34.5232 41.8942 37.8087 41.8942Z" fill="white"/>
<path d="M39.2892 21.3684C39.1164 12.5203 31.8897 5.40077 23.0003 5.40077C14.0024 5.40077 6.70814 12.695 6.70814 21.6929C6.70814 29.0479 11.5819 35.2646 18.276 37.2895V42.3573C8.84556 40.2103 1.80737 31.7735 1.80737 21.6929C1.80737 9.98838 11.2958 0.5 23.0003 0.5C34.7048 0.5 44.1931 9.98838 44.1931 21.6929C44.1931 22.2006 44.1753 22.7042 44.1402 23.203C43.6496 22.8904 42.8877 22.526 41.5611 21.984C40.8084 21.6765 40.0503 21.4761 39.2892 21.3684Z" fill="white"/>
<path d="M21.6188 9.21725L20.1367 19.655C20.1143 19.8123 20.0317 19.9548 19.9063 20.0524L11.5849 26.5256C10.342 27.4924 11.4826 29.4417 12.9343 28.8319L25.5968 23.513C25.8496 23.4068 26.001 23.1455 25.9675 22.8734L24.2907 9.24217C24.0985 7.67938 21.8402 7.65832 21.6188 9.21725Z" fill="white"/>
</g>
</g>
<defs>
<clipPath id="clip0_226_405">
<rect width="45" height="45" fill="white" transform="translate(0.5 0.5)"/>
</clipPath>
</defs>
</svg>
