<svg width="51" height="143" viewBox="0 0 51 143" fill="none" xmlns="http://www.w3.org/2000/svg">
<path d="M49.9391 28.9681C49.998 28.8505 49.9979 28.7916 50.0567 28.6151C50.9979 22.9094 50.2332 16.8509 50.0567 11.0864C49.9979 8.61587 50.3508 1.91017 47.4686 0.674922C46.7627 0.380814 45.9981 0.557322 45.7628 1.38082C45.704 1.61611 45.6452 2.08665 45.5275 2.67487C45.1746 1.73372 44.4687 0.969058 43.2923 0.557307C41.5864 0.0279138 39.3512 1.02788 37.6454 1.14552C34.9396 1.32199 32.175 1.14549 29.4692 0.969029C23.9988 0.557279 18.5284 0.0867353 12.9992 0.2632C11.2934 0.322021 8.70522 -0.148536 7.17586 0.792608C6.52883 1.14554 6.23474 1.79259 5.94063 2.49845C5.47006 2.02787 4.99953 1.5573 4.29367 1.32202C3.58781 1.08673 2.76431 1.73371 2.82313 2.43957C2.88195 3.0866 2.94072 3.67486 3.05836 4.3219C2.94072 4.20425 2.8819 4.08663 2.76425 3.96898C1.99957 2.96902 0.705544 3.96894 0.823187 5.02773C0.52908 5.26301 0.411451 5.67478 0.470273 6.14535C1.29377 10.4393 2.47017 14.7333 3.23485 19.0273C3.82307 22.2036 2.88195 25.9094 3.99956 28.9681C3.58781 31.2622 3.76425 33.4973 3.82307 35.8502C3.88189 38.7913 3.82308 41.7324 4.05837 44.6734C4.29366 47.3792 4.58773 49.9673 4.17598 52.6731C3.9407 54.4966 3.76425 56.2613 4.70539 57.9083C4.88186 58.2024 5.17593 58.3788 5.41122 58.4377C5.58768 58.6141 5.82301 58.7318 6.11712 58.7906C7.47002 58.9082 8.70522 60.7905 9.82283 61.5552C11.6463 62.8492 12.9992 64.261 14.3521 66.0257C17.0579 69.5549 17.999 73.7312 18.8814 78.0252C20.8225 87.8484 17.352 97.2598 17.1167 107.083C17.0579 111.259 17.5285 115.436 18.4108 119.494C19.2931 123.671 25.9399 141.611 27.3517 142.082C27.8222 142.67 28.8222 142.905 29.3516 142.023C30.2339 140.494 35.7631 122.73 36.7043 115.612C37.6454 108.495 37.9395 100.613 35.5867 93.7306C34.4102 90.2601 34.0573 87.0249 33.7044 83.3191C33.2927 79.3781 33.7044 75.1429 35.2338 71.496C36.7631 67.9667 38.116 64.6139 40.8806 61.967C43.2923 59.7317 46.7627 58.7318 49.4685 56.9083C49.5862 56.8495 49.645 56.7318 49.7626 56.673C50.0567 56.4966 50.2332 56.2025 50.2332 55.7319C50.2921 46.9087 51.5861 37.6737 49.9391 28.9681ZM47.1745 6.55707C47.1745 6.49825 47.1745 6.49828 47.1745 6.43946C47.2333 6.26299 47.2921 6.08651 47.351 5.91005C47.351 6.20416 47.4098 6.49829 47.4098 6.67476C47.6451 8.49822 47.7039 10.3216 47.7627 12.1451C47.9392 17.3802 48.7039 22.7918 47.8216 27.9681C47.8216 28.1446 47.8216 28.3211 47.8216 28.4387C47.8216 28.4387 47.8215 28.4975 47.7627 28.4975C47.2921 28.674 46.7627 28.7916 46.2922 28.8504C46.2922 21.4977 46.7039 14.0274 47.1745 6.55707ZM44.5864 18.792C44.8805 15.3803 44.4099 11.9686 44.9981 8.61582C45.0569 8.61582 45.1157 8.61582 45.1157 8.61582C45.4098 8.557 45.6451 8.49818 45.8804 8.32172C45.4687 15.2627 45.1157 22.2036 45.1157 29.1445C44.7628 29.2034 44.4099 29.2034 44.057 29.2622C44.057 29.2034 44.1158 29.0858 44.1158 28.9681C44.1158 28.7917 44.0569 28.6151 43.9393 28.5563C43.8805 25.2623 44.2923 22.0272 44.5864 18.792ZM41.2335 3.02778C41.5864 2.96896 41.9394 2.91018 42.2923 2.85136C44.1158 2.6749 43.6452 6.43943 43.6452 7.43939C43.6452 7.7335 43.7628 7.96883 43.8805 8.14529C43.3511 10.9687 43.5276 13.851 43.5276 16.792C43.5276 20.9684 42.704 25.0859 42.7629 29.2622V29.321C42.2923 29.321 41.7629 29.321 41.2923 29.321C41.2923 29.321 41.2923 29.321 41.2923 29.2622C40.5276 24.6741 41.1159 20.0861 41.1747 15.4392C41.1747 11.2628 40.1747 7.08646 41.2335 3.02778ZM39.9395 3.32189C39.1748 7.02764 39.763 10.9099 39.9395 14.6157C40.0571 17.3803 39.8218 20.0861 39.763 22.7919C39.4101 16.3215 39.3513 9.90994 39.3513 3.43957C39.5277 3.38075 39.763 3.32189 39.9395 3.32189ZM38.1748 3.49838C38.1748 12.0275 38.2337 20.6154 39.0572 29.1445C38.9395 29.1445 38.8219 29.1445 38.7042 29.1445C38.4101 29.1445 38.0571 29.0857 37.763 29.0857C37.763 20.5566 37.2925 12.0863 37.1748 3.55719C37.5278 3.55719 37.8219 3.5572 38.1748 3.49838ZM35.9984 3.55719C36.116 12.0275 36.5866 20.4978 36.5866 29.0269C36.3513 29.0269 36.1161 29.0269 35.8808 28.9681C35.8808 24.733 36.1749 20.4978 36.1749 16.2626C36.1749 12.0275 35.3514 7.79234 35.1749 3.55719C35.4102 3.61601 35.7043 3.55719 35.9984 3.55719ZM25.7046 28.6151C25.7046 20.086 25.8223 11.557 25.8223 3.08666C25.9988 3.08666 26.2341 3.08665 26.4105 3.14547C26.4694 11.0864 27.1164 18.9685 27.1164 26.9094C27.1164 27.674 28.2928 27.674 28.2928 26.9094C28.234 19.0273 27.6458 11.1452 27.587 3.26308C28.4693 3.3219 29.3516 3.38075 30.2339 3.43957C30.3516 7.08651 29.7045 10.7922 29.4104 14.4392C29.1751 16.8508 28.5869 19.6743 29.5869 21.9683C29.881 22.6742 30.881 22.086 30.5868 21.3801C29.5869 19.0861 30.4692 15.7332 30.6457 13.3215C30.8809 10.0864 31.528 6.85119 31.4104 3.55719C32.2339 3.61601 33.1161 3.61605 33.9396 3.67488C34.1161 7.55709 34.7632 11.4393 34.9397 15.3215C35.1161 19.8507 34.7044 24.38 34.6455 28.9092V29.0857C32.528 29.0269 30.4692 28.9681 28.3516 28.9092C27.4693 28.9092 26.5281 28.8504 25.6458 28.8504C25.6458 28.7328 25.7046 28.674 25.7046 28.6151ZM23.2342 2.91017C23.7047 2.96899 24.1753 2.96896 24.7047 3.02778C24.7047 11.5569 24.5871 20.1449 24.5871 28.674V28.7328C24.0577 28.7328 23.5283 28.674 22.9401 28.674C23.0577 24.6153 23.6459 20.6155 23.8224 16.6156C23.94 12.0275 23.3518 7.43942 23.2342 2.91017ZM21.1166 28.4975C22.0577 19.9684 21.4695 11.3805 21.4107 2.79255C21.5872 2.79255 21.8225 2.79254 21.9989 2.85136C22.1166 7.08651 22.5283 11.3216 22.5871 15.5568C22.646 19.9096 21.8225 24.2623 21.7048 28.6151C21.4695 28.6151 21.2931 28.6151 21.0578 28.6151C21.1166 28.5563 21.1166 28.5563 21.1166 28.4975ZM7.41117 4.96892C7.58763 4.55717 7.9406 2.969 8.41117 2.85136C8.99939 2.61607 9.70525 2.55727 10.4699 2.49845C10.9405 7.96884 10.8228 13.4392 10.8228 18.9096C10.8228 19.6743 11.9993 19.6743 11.9993 18.9096C11.9993 13.4392 12.1169 7.90997 11.6464 2.43957C12.9404 2.43957 14.2345 2.55725 15.2345 2.55725C16.8815 2.55725 18.5873 2.55722 20.2343 2.67487C20.2931 11.2628 20.8813 19.8508 19.9402 28.4387C19.9402 28.4387 19.9402 28.4387 19.9402 28.4975C18.4696 28.4387 16.9991 28.3798 15.4698 28.321C15.4698 28.2622 15.4698 28.2034 15.4698 28.2034C15.3521 23.4389 14.1169 18.6744 15.1756 13.9686C15.3521 13.204 14.2345 12.9099 14.058 13.6745C12.9992 18.4979 14.2345 23.38 14.3521 28.2622C14.3521 28.321 14.3521 28.3211 14.3521 28.3799C12.2934 28.3211 10.2346 28.2034 8.11707 28.2034C8.11707 28.2034 8.11707 28.2034 8.11707 28.1446C8.11707 20.439 8.41116 12.7334 7.29355 5.14541C7.41119 5.02777 7.41117 5.02774 7.41117 4.96892ZM29.4104 29.9681C35.1749 30.0269 42.057 31.4974 47.7039 29.8504C47.7627 30.321 47.8804 30.7327 47.9392 31.2033C46.6451 31.1445 45.351 31.0269 44.1158 31.321C37.7042 31.2033 31.3515 30.7327 24.94 30.8504C18.6461 30.968 12.3522 30.9092 6.11712 30.9092C6.17594 30.4386 6.23472 29.968 6.29354 29.4975C6.29354 29.4386 6.29354 29.3799 6.29354 29.321C13.9992 29.321 21.7048 29.9092 29.4104 29.9681ZM5.35241 8.6747C5.5877 7.43945 5.52888 6.26296 5.35241 5.08653C5.47006 5.20418 5.64655 5.32182 5.82301 5.38064C5.94066 5.43946 6.11708 5.49833 6.29354 5.49833C7.17586 11.4393 7.11707 17.4979 7.05825 23.4977C7.05825 18.4979 6.88179 13.5569 5.29361 8.79232C5.29361 8.79232 5.35241 8.73352 5.35241 8.6747ZM3.47015 9.26292C3.70544 9.43938 3.99956 9.49815 4.29367 9.49815C5.52892 13.2627 5.823 17.145 5.88182 21.086C5.76418 20.2037 5.58774 19.2626 5.4701 18.4391C4.94071 15.3215 4.17601 12.3216 3.47015 9.26292ZM5.82301 27.0858C5.70537 26.2623 5.76419 25.3211 5.82301 24.4388C5.88183 25.3211 5.82301 26.2035 5.82301 27.0858ZM6.11712 36.0267C6.0583 34.6738 5.99943 33.3797 5.99943 32.0268C12.2933 32.0268 18.5873 32.0856 24.8812 31.968C31.2927 31.8504 37.6454 32.3209 44.057 32.4385C44.1158 32.4385 44.1158 32.4385 44.1158 32.4385C44.1746 32.4385 44.2335 32.4385 44.2923 32.4385C45.5275 32.1444 46.8215 32.3209 48.0568 32.3797C48.1744 33.4385 48.2333 34.5561 48.2921 35.6149C45.704 35.7325 43.1159 36.1443 40.4689 36.0267C40.3512 36.0267 40.2336 36.0855 40.1748 36.0855C34.5867 35.7914 29.1163 35.9678 23.4695 36.1443C17.705 36.3208 11.9404 36.0267 6.11712 36.0267ZM47.8804 55.0848C45.3511 56.673 42.5865 57.7906 40.1748 59.5553C37.469 61.4964 36.469 64.7316 34.7043 67.4962C30.9986 73.3783 30.4104 80.7898 32.0574 87.4366C32.9397 91.1424 33.6456 94.4952 34.3514 98.2598C35.1749 102.613 35.0573 107.142 34.7632 111.495C34.1749 119.906 28.4693 138.376 27.9399 139.611C26.8223 138.611 23.4107 126.847 22.2342 123.788C18.5873 114.318 19.1755 103.848 20.9401 94.0247C22.4106 85.9661 22.4695 77.1429 19.1167 69.4373C17.6461 66.0256 15.4109 62.8493 12.5287 60.4964C10.8817 59.1435 8.88175 56.9083 6.64653 56.3789C6.05831 55.2025 6.29356 53.7908 6.52884 52.4967C9.64638 52.6144 12.6463 53.0849 15.7639 53.379C19.1755 53.732 22.646 53.4379 26.0576 53.379C33.2927 53.2614 40.5865 53.379 47.8216 53.379C47.8804 53.379 47.9392 53.379 47.998 53.3202C47.9392 54.026 47.8804 54.5554 47.8804 55.0848ZM47.9392 52.379C47.8804 52.379 47.8215 52.3202 47.7039 52.3202C40.4688 52.3202 33.2338 52.2614 25.9399 52.3202C22.8224 52.3202 19.7637 52.4967 16.6462 52.379C13.2934 52.2614 9.94047 51.6144 6.58765 51.4379C6.70529 50.3203 6.70535 49.2615 6.64653 48.1439C16.705 48.1439 26.7634 48.4969 36.8807 48.6733C36.9984 48.6733 37.116 48.6145 37.1748 48.5556C40.8218 48.4968 44.4687 48.2027 48.1157 48.1439C48.0569 49.5556 47.998 50.9673 47.9392 52.379ZM48.1745 47.0263C44.4099 47.0851 40.7042 47.438 36.9396 47.438C36.822 47.438 36.7043 47.4969 36.6455 47.4969C26.587 47.3792 16.5873 47.0263 6.52884 46.9675C6.47002 46.2028 6.35236 45.4381 6.29354 44.6146C6.05826 42.1441 6.05831 39.6147 6.05831 37.1442C11.4699 37.1442 16.8814 37.3796 22.3518 37.2619C28.3516 37.1443 34.2926 36.909 40.2924 37.2031C40.41 37.2031 40.5277 37.1442 40.5865 37.1442C43.1746 37.2619 45.704 36.7913 48.2921 36.7325C48.5274 40.1442 48.3509 43.6146 48.1745 47.0263Z" fill="#2AC0A5"/>
</svg>
