<svg width="123" height="100" viewBox="0 0 123 100" fill="none" xmlns="http://www.w3.org/2000/svg">
<path d="M122.176 18.3459C121.882 17.1695 120.47 16.8754 119.47 16.7577C119.294 16.7577 117.823 16.6401 117.823 16.6989C117.588 15.5813 117.294 14.8754 118.117 13.9931C118.47 13.5814 118.647 12.9932 118.647 12.5226C118.647 12.1697 118.529 11.8755 118.411 11.5814C118.411 11.5226 118.352 11.405 118.352 11.405C118.411 11.405 118.47 11.405 118.588 11.405C119.646 10.9344 120.352 9.69915 119.823 8.58154C119.058 6.87572 117.117 6.11105 115.47 5.52283C112.176 4.40523 108.823 3.75817 105.471 2.93467C94.5298 0.170064 38.5317 0.405357 32.7084 0.699464C26.7674 0.993572 20.7676 1.3465 14.8266 1.64061C11.5914 1.81708 7.76806 2.40529 5.17992 4.52286C4.94463 4.69933 4.82697 4.93462 4.82697 5.1699C3.827 6.75808 4.35639 8.11097 5.59164 9.46386C4.9446 10.6403 4.88578 11.9344 5.59164 13.052C5.29753 13.3461 4.9446 13.6402 4.70932 13.9931C4.47403 14.3461 4.12112 14.9343 4.0623 15.346C3.88583 16.5224 4.12112 15.6989 3.00352 15.6989C0.885942 15.6989 0.00359818 18.2283 0.297706 19.9341C0.944742 23.4634 2.76824 26.3456 4.2976 29.522C5.4152 31.816 6.06223 34.463 8.29745 35.8747C8.29745 35.9924 8.29744 36.0512 8.35626 36.1688C9.65033 41.9333 10.1209 47.7566 10.1209 53.6976C10.1797 59.6974 10.7679 65.6384 10.7091 71.6382C10.5915 75.8145 10.4738 80.0497 11.7091 84.0495C13.062 88.4023 16.4736 91.0493 20.4735 92.8728C29.8261 97.1079 40.4728 99.2843 50.7078 99.1667H50.7666H50.8254C58.0604 99.5196 65.3543 98.7549 72.5893 98.4608C79.4126 98.2255 86.1183 97.5785 92.7651 96.0491C99.2355 94.5786 109.47 91.9904 111.176 84.4613C111.353 84.2848 111.47 83.9907 111.529 83.6378C111.588 79.1085 112.294 74.5793 112.353 69.9912C112.411 69.8735 112.47 69.7559 112.47 69.5794C113.353 62.7561 113.882 55.8152 114.294 48.8743C114.706 41.7569 115.705 34.6983 115.529 27.5221C117.117 25.2869 118.823 23.6987 120.882 21.8752C122.058 21.1105 122.588 19.7576 122.176 18.3459ZM19.4147 3.58171C24.9439 3.05232 30.4732 3.05233 36.0024 2.81704C41.061 2.58176 90.1182 2.64058 101.882 4.28758C101.941 4.28758 101.941 4.28758 102 4.28758C102.882 4.46404 109.823 6.22868 112.117 6.87572C113.47 7.22865 114.882 7.69921 116.117 8.22861C116.235 8.28743 116.353 8.34626 116.47 8.40508C116.529 8.64037 116.411 8.75801 116.117 8.87565C115.823 8.99329 115.588 9.11093 115.294 9.16976C114.882 9.2874 114.47 9.46387 114.058 9.52269C112.706 9.8168 109.882 10.1109 109.823 10.1109C109.706 10.1109 96.2356 11.1109 94.7062 11.1109H56.4722C48.0019 11.0521 39.4728 10.5227 31.0025 9.93445C26.4733 9.64034 22.0029 9.52269 17.5324 8.69919C15.4149 8.34626 13.2973 7.69922 11.2385 7.111C11.2385 7.111 8.7092 6.34633 7.70924 5.69929C10.8856 3.58172 15.8854 3.93464 19.4147 3.58171ZM113.411 13.1108C112.47 13.6402 112.823 14.7578 112.353 15.5225C112.117 15.5813 111.823 15.6401 111.647 15.5225C111.529 15.4048 111.353 15.4048 111.235 15.4048C111.176 15.2872 111.059 15.2284 110.941 15.1107C110.941 14.3461 111.117 13.5814 111.353 12.8755C112.823 12.5226 114.294 12.052 115.706 11.405C115.706 11.5814 115.764 11.6991 115.823 11.8755C115.941 12.1108 115.941 12.3461 115.882 12.5226C115.705 12.4049 115.529 12.3461 115.294 12.4638C114.706 12.7579 114 12.8167 113.411 13.1108ZM115.176 13.7578C115.117 13.8167 115.117 13.9343 115.058 13.9931C114.588 14.2872 114.176 14.5813 113.706 14.8754C113.706 14.5813 113.764 14.2872 114.058 14.1108C114.411 13.9343 114.823 13.8167 115.176 13.7578ZM7.47394 6.99337C9.12094 7.93452 11.1209 8.22862 12.9443 8.69919C15.4737 9.40505 18.0618 9.93443 20.7088 10.2874C32.4731 11.6403 44.6491 12.1108 56.4722 12.2285H94.8827C96.2944 12.1108 111.412 11.1697 115.588 10.1697C110.529 12.6402 104.588 12.8167 98.9414 13.3461C98.4708 12.9932 97.8237 12.8755 97.3532 13.4049C97.2943 13.4637 97.2944 13.4637 97.2944 13.4637C94.5886 13.5814 91.8239 13.4049 89.1182 13.4049C85.7065 13.4049 82.4713 14.2872 79.0597 14.4049C78.8244 14.4049 78.6479 14.5225 78.5891 14.699C66.9424 14.5225 55.237 13.8755 43.5903 13.5225C37.1199 13.3461 30.7084 13.1108 24.2969 12.1697C18.4736 11.2873 12.5914 10.8168 7.35629 7.81687C7.121 7.46394 6.94456 7.05219 6.94456 6.58161C7.12103 6.8169 7.29747 6.93455 7.47394 6.99337ZM109.823 14.9343C108.588 14.8755 107.294 15.1107 106 15.346C106.059 15.2284 106.118 15.1695 106.176 15.0519C106.294 14.699 106.235 14.2872 106.059 13.9343C107.412 13.7578 108.765 13.5814 110.117 13.2873C109.941 13.7578 109.882 14.3461 109.823 14.9343ZM109.882 16.0519C109.294 16.1107 108.412 16.4048 107.706 16.4636C107.529 16.4636 107.353 16.5224 107.176 16.5224C108.059 16.346 108.941 16.1107 109.882 16.0519ZM103.471 14.8166C103.529 15.1107 103.706 15.4048 103.941 15.5813C103.647 15.5813 103.412 15.6401 103.118 15.6401C102.471 15.6401 101.412 15.8166 100.882 16.2872C99.9413 17.1107 100 15.346 99.7648 14.5225C101 14.4049 102.294 14.2872 103.529 14.1696C103.471 14.346 103.471 14.5813 103.471 14.8166ZM105.235 16.7577C104.176 16.8754 103.059 17.0518 102 17.1695C103.059 16.7577 104.118 16.8165 105.235 16.7577ZM84.883 17.2283C86.4124 16.6401 88.2359 16.8754 89.8241 16.6401C91.5887 16.346 94.4709 15.5225 96.1767 16.5813C95.7062 16.8166 95.0591 16.8165 94.4121 16.8165C91.0005 16.8754 87.8829 17.9342 84.5301 18.1695C84.4125 18.1695 84.3536 18.2283 84.2948 18.2283H84.236C83.9419 18.3459 83.589 18.4635 83.1772 18.5224C83.7066 17.993 84.236 17.4636 84.883 17.2283ZM81.2949 17.9342C81.2361 17.8165 81.1773 17.6989 81.1185 17.5812C80.8832 17.0518 80.7655 16.4636 80.5302 15.9342C80.8832 15.9342 81.2361 15.9342 81.5891 15.9342C82.0008 15.9342 82.1773 15.6401 82.1773 15.346C84.0596 15.1107 86.0006 14.8166 87.8829 14.6402C87.8829 14.9343 88.0594 15.2872 88.2358 15.5225C87.2359 15.5813 86.2947 15.6401 85.2948 15.8166C84.6477 15.9931 82.0008 17.8165 81.2949 17.9342ZM90.1182 15.4048C89.9417 15.4048 89.7652 15.4637 89.5888 15.4637C89.7652 15.2284 89.8241 14.9343 89.8241 14.6402C92.1769 14.6402 94.5297 14.699 96.8238 14.6402C96.8238 14.699 96.8238 14.699 96.8238 14.7578C96.8826 15.0519 96.8238 15.346 96.8238 15.5225C94.9415 14.4049 92.1769 15.0519 90.1182 15.4048ZM58.3546 15.346C60.8839 15.4637 63.472 15.5225 66.0014 15.6401V15.6989C66.0014 15.7578 66.0602 15.7578 66.0602 15.8166C64.7661 15.8166 63.4132 15.8166 62.1191 15.8166C60.4133 15.8166 59.8251 17.0518 58.4134 17.4048C58.3545 16.8165 58.4722 15.993 58.3546 15.346ZM60.2368 17.64C61.178 16.4636 64.8249 16.9342 66.1778 16.9342C67.5307 16.9342 75.5304 16.2872 75.5304 18.3459C75.5304 18.4636 75.5304 18.5224 75.5892 18.5812C70.4129 18.5224 65.2955 17.8753 60.1192 17.7577C60.1192 17.7577 60.178 17.6989 60.2368 17.64ZM68.0601 15.8166C68.0601 15.7578 68.0601 15.7578 68.0601 15.6989C69.3542 15.7578 70.5894 15.7578 71.8835 15.8166C71.2365 15.8754 70.5894 15.8754 70.06 15.8754C69.4129 15.8166 68.766 15.8166 68.0601 15.8166ZM74.5305 15.8754C75.4716 15.8754 76.4127 15.9342 77.3539 15.9342C77.0598 16.4048 76.8245 16.993 76.5303 17.4636C76.2951 16.4636 75.5304 16.0519 74.5305 15.8754ZM47.4137 16.993C49.1195 16.993 50.8254 16.9342 52.3547 17.8753C52.5312 17.993 52.6489 18.0518 52.8253 18.1106C52.59 18.1695 52.4135 18.1694 52.1194 18.2283C48.4725 18.5224 44.355 18.1695 40.7669 17.5224C40.3552 17.4636 40.061 17.346 39.7081 17.2871C42.2962 16.7577 44.8256 16.993 47.4137 16.993ZM38.2964 16.4048C37.8258 15.9342 37.4141 15.346 37.0611 14.5813C37.0611 14.5813 37.0612 14.5225 37.0023 14.5225C38.414 14.5813 39.8846 14.6402 41.2963 14.699C42.2963 14.7578 43.3551 14.7578 44.355 14.8166C44.355 15.2284 44.4727 15.5813 44.6491 15.8166C42.4727 15.8166 40.4728 15.7578 38.2964 16.4048ZM45.5314 14.9931C45.5314 15.0519 45.5314 15.0519 45.5314 14.9931C45.5314 14.9343 45.5314 14.8754 45.5314 14.8166C45.7667 14.8166 46.0609 14.8166 46.2962 14.8166C46.2962 15.1107 46.1197 15.2284 45.8256 15.1696C45.7667 15.1696 45.6491 15.1107 45.5903 15.0519C45.5314 15.0519 45.5314 15.0519 45.5314 14.9931C45.5314 15.0519 45.5314 15.0519 45.5314 14.9931ZM50.8842 15.9931C49.7078 15.6989 48.4137 15.7578 47.1785 15.8166C47.3549 15.5813 47.4726 15.2284 47.4726 14.9343C50.3548 15.0519 53.1783 15.1695 56.0605 15.2872C55.4723 16.2283 55.0605 16.9342 54.4723 17.4636C53.237 17.2871 52.1194 16.2283 50.8842 15.9931ZM20.5911 13.6402C20.5323 13.3461 20.4735 13.1108 20.4147 12.8755C20.9441 12.9343 21.5323 13.052 22.0617 13.1108C23.1793 13.2873 24.3557 13.4049 25.4733 13.5225C25.4733 13.9343 25.4145 14.4049 25.4733 14.8166C25.4733 14.8754 25.4733 14.8755 25.4733 14.9343C23.8263 14.699 22.2381 14.4049 20.5911 14.5813C20.6499 14.2284 20.6499 13.9343 20.5911 13.6402ZM26.4733 16.1107C28.1791 16.346 30.5908 15.7578 31.9437 17.0518C32.1202 17.2283 32.2966 17.4048 32.4731 17.5224C31.5907 17.5224 30.532 17.2871 29.8261 17.1695C28.1203 16.9342 26.3556 17.1695 24.6498 16.8754C23.5322 16.6989 22.4146 16.4048 21.297 16.0519C21.0029 15.9931 20.8264 15.8166 20.7088 15.6401C22.7087 15.5225 24.591 15.8754 26.4733 16.1107ZM26.6498 13.6402C26.7086 13.6402 26.7674 13.6402 26.8262 13.6402C26.8262 13.7578 26.8262 13.9343 26.885 14.052C26.9438 14.2284 26.9438 14.4637 26.885 14.6402C26.885 14.6402 26.885 14.699 26.8262 14.699C26.7674 14.699 26.7086 14.699 26.6498 14.6402C26.5321 14.5813 26.5909 14.0519 26.6498 13.6402ZM31.7084 15.346C30.5908 14.9931 29.4732 15.0519 28.2968 15.1107C28.1791 15.1107 28.0615 15.1107 27.885 15.1107C28.0615 14.699 28.0615 14.2284 27.9438 13.8167C30.179 14.0519 32.3554 14.2284 34.5907 14.4049C34.3554 14.8754 34.2966 15.4637 34.2966 16.0519C34.2377 16.1107 34.1201 16.1695 34.0613 16.2872C33.473 17.2871 32.2378 15.5225 31.7084 15.346ZM15.0031 14.7578C15.356 14.9343 15.709 15.1695 16.0619 15.2872C15.8266 15.2872 15.5913 15.2872 15.356 15.1696C14.2384 14.8166 13.1208 14.5225 12.062 14.2284C10.8268 13.8755 9.70916 13.3461 8.47391 12.9343C8.41509 12.7579 8.35627 12.5814 8.1798 12.4049C8.1798 12.3461 8.1798 12.2873 8.1798 12.1697C10.4738 12.699 13.0031 13.5814 15.0031 14.7578ZM8.06215 10.9932C8.06215 10.6991 8.00334 10.4638 8.00334 10.1697C8.12099 10.0521 8.23863 9.87561 8.29745 9.69915C9.70917 10.3462 11.1209 10.8756 12.5914 11.2873C12.6502 11.6403 12.7091 12.052 12.8267 12.4049C11.2974 11.8755 9.65033 11.3462 8.06215 10.9932ZM14.0619 12.2873C13.8855 12.1108 13.8267 11.8756 13.7678 11.6403C13.8855 11.6403 14.0031 11.6991 14.1208 11.6991C14.1208 11.9344 14.1796 12.1697 14.0619 12.2873ZM14.709 13.2873C14.7678 13.2284 14.8855 13.1696 14.9443 13.1108C15.2384 12.8167 15.356 12.4049 15.356 11.9932C16.2384 12.1697 17.1795 12.3461 18.1206 12.5226C18.1206 12.5814 18.1206 12.699 18.1206 12.7579C18.3559 13.3461 18.1795 13.9343 17.8265 14.3461C16.9442 14.6402 15.7089 13.8755 14.709 13.2873ZM112 49.0507C111.588 55.7564 111.117 62.5797 110.235 69.2265C110.117 69.403 110.059 69.5794 110.059 69.8735C110 74.1675 109.353 78.4615 109.235 82.7554C109.176 82.8731 109.117 82.9907 109.117 83.1084C108 90.9904 96.412 92.9316 90.0593 94.3433C83.5889 95.755 76.9421 96.0491 70.3541 96.2844C63.8249 96.5197 57.3546 97.2255 50.8254 96.8726H50.7666C50.7666 96.8726 50.7666 96.8726 50.7078 96.8726C41.7669 96.9902 32.4143 95.1668 24.0616 91.9316C19.65 90.2258 15.709 88.2258 14.0031 83.5201C12.6502 79.8732 12.9443 75.6969 13.062 71.8735C13.062 71.8735 13.062 71.8735 13.062 71.8147C13.062 71.7558 13.062 71.7558 13.062 71.697C13.1208 65.6972 12.4738 59.7562 12.4738 53.7565C12.4149 47.639 11.9444 41.5804 10.5915 35.6394C10.5915 35.5218 10.5327 35.463 10.4739 35.3453C10.5327 34.9336 10.415 34.463 9.88564 34.1689C8.35628 33.3454 7.5916 31.5807 6.94456 29.9926C7.23867 30.6984 7.5916 31.3455 8.12099 31.9925C8.70921 32.7572 9.82681 32.169 10.0621 31.4631C10.0621 31.4043 10.0621 31.4043 10.1209 31.3455C12.1208 32.816 15.356 32.8748 17.5912 33.5219C21.297 34.5806 25.4733 34.5807 29.3555 34.9336C38.0611 35.7571 46.8255 38.2276 55.5311 38.1688C55.6487 38.1688 55.7076 38.1687 55.7664 38.1099C59.8839 37.5217 64.0014 37.757 68.1189 37.8158C72.2364 37.8746 76.3539 37.4629 80.4126 37.1688C84.1772 36.9335 87.9418 36.8159 91.6475 36.11C95.3533 35.4042 99.2943 35.4042 102.941 34.463C103 34.463 103.059 34.463 103.118 34.463C106.588 34.2277 110.235 33.6395 113.059 31.5807C113.059 37.4629 112.353 43.2274 112 49.0507ZM7.76804 25.1104C8.06215 25.581 8.23863 26.1692 8.29745 26.8162C8.12099 26.2868 8.00333 25.6986 7.76804 25.1104ZM113.235 30.1102C110.647 32.4631 107.059 33.1101 103.647 33.3454C103.529 33.2866 103.353 33.2277 103.235 33.2866C99.4707 34.2865 95.2944 34.3454 91.471 34.9924C87.0594 35.7571 82.6478 35.8747 78.2362 36.1688C74.1775 36.4629 70.1777 36.6982 66.0602 36.5806C62.472 36.5218 58.9428 36.4629 55.4135 36.9923C47.8255 36.9923 40.1199 35.0512 32.5907 34.1101C29.0614 33.6395 25.4733 33.4042 21.944 33.0513C19.8853 32.816 18.003 32.4042 16.0619 31.816C14.2972 31.2866 11.9444 31.4043 10.5327 30.0514C10.7091 29.1691 10.7091 28.2279 10.6503 27.3456C12.0032 27.6397 13.4737 28.4044 14.7678 28.7573C17.7677 29.5808 21.0617 29.8161 24.1204 30.3455C30.1202 31.4043 36.2377 31.8749 42.2963 32.169C48.4725 32.4631 54.5311 32.9925 60.6485 33.5219C63.472 33.7571 66.3542 33.5219 69.1777 33.816C71.707 34.0512 79.2361 33.6983 80.3537 33.463C82.1184 33.0513 84.0595 33.1689 85.883 32.9925C89.824 32.5807 93.765 32.4631 97.7061 32.1101C100.882 31.816 103.941 31.169 107.059 30.522C109.117 30.1102 111.47 29.6985 113.294 28.522C113.235 29.1102 113.235 29.5808 113.235 30.1102ZM118.529 20.9341C118.705 20.6399 118.823 20.3458 118.882 20.0517C118.941 19.8164 118.882 19.5223 118.588 19.4047C117.882 19.1106 117.235 19.1106 116.47 19.1106C116.176 19.1106 116 19.3459 115.941 19.5812C115.823 19.6988 115.706 19.8164 115.706 20.0517C115.647 20.9929 116.058 22.1693 117.176 21.9929C117.294 21.9929 117.411 21.934 117.529 21.8752C116.647 22.5811 115.882 23.4046 115.176 24.2869C115.235 24.1692 115.294 23.9928 115.353 23.8751C115.47 23.5222 115.411 23.1693 115.176 22.8752C114.882 22.5222 114.353 22.5811 113.941 22.6399C113.823 22.6399 113.764 22.6987 113.706 22.7575C113.529 22.8163 113.353 22.934 113.353 23.1693C113.235 23.8751 113.117 24.4633 113.411 25.1104C113.529 25.4045 113.941 25.4633 114.235 25.3457C114.353 25.2868 114.529 25.1692 114.647 25.0516C114.294 25.5221 113.941 26.0515 113.588 26.5221C113.529 26.5809 113.529 26.6397 113.529 26.6397C113.47 26.7574 113.411 26.875 113.353 27.0515C111.235 28.9338 107.765 29.2279 105.118 29.7573C102 30.4043 98.9414 30.8749 95.8238 31.1102C92.5298 31.3455 89.2358 31.5219 85.9418 31.816C84.3536 31.9925 82.7066 31.9925 81.1185 32.1101C79.5891 32.2866 70.9424 32.816 68.3542 32.5219C65.472 32.2278 62.5309 32.4631 59.6486 32.2278C53.4723 31.6396 47.4137 31.2278 41.1786 30.9337C34.9436 30.6396 28.5909 29.9337 22.4734 28.8161C19.65 28.3456 16.8266 28.0515 14.0619 27.2868C12.8855 26.9927 11.7679 26.3456 10.5915 26.1104C10.5915 25.9339 10.5327 25.6986 10.5327 25.5221C10.1797 23.4046 7.8857 22.4046 7.70924 20.3458C7.70924 19.9929 7.53276 19.6988 7.29748 19.5223C7.29748 18.9341 6.88571 18.4047 6.17986 18.4636C5.65046 18.5224 5.1799 18.4636 4.65051 18.2871C3.88583 17.993 3.23879 18.7577 3.17997 19.4047C2.94469 21.4046 4.41523 23.4046 5.35638 25.1104C6.17988 26.6397 6.47398 28.2867 7.12102 29.8161C7.00338 29.522 6.88571 29.2279 6.76807 28.9338C5.65046 26.2868 4.1211 23.9339 3.23878 21.1693C2.94467 20.287 2.06238 18.0518 4.00349 18.0518C4.82699 18.0518 5.06228 17.993 5.76813 17.64C6.06224 17.4636 6.35632 17.0518 6.47396 16.7577C6.82689 15.5225 7.00339 15.0519 8.12099 14.2872C8.17981 14.2284 8.29744 14.1696 8.35626 14.052C11.1209 14.9343 13.9443 16.5224 16.8266 16.7577C18.5324 16.8754 19.4735 15.9342 19.7088 14.699C19.7676 15.5813 19.8264 16.5224 20.297 16.8165C22.0028 17.7577 24.1204 18.1106 26.0616 18.2283C28.7085 18.4047 31.826 19.1106 34.473 18.5812C34.9436 18.4636 35.3553 18.1106 35.5318 17.64C35.6494 17.2871 35.9435 14.1696 36.7082 16.1695C37.5317 18.4047 39.5905 18.4635 41.7669 18.8165C45.0609 19.4047 48.4137 19.3459 51.7077 19.4047C53.59 19.4635 55.884 19.0518 56.8251 17.2283C57.0604 16.7577 57.2369 16.2283 57.4134 15.7578C57.531 15.4637 57.4722 17.4636 57.4722 17.6989C57.4134 18.4047 58.0604 18.7577 58.531 19.0518C58.7663 19.2282 59.0015 19.1694 59.178 18.993C64.8837 19.0518 70.5306 19.8165 76.2362 19.8753C76.4127 19.8753 76.5304 19.8164 76.648 19.6988C76.7657 19.6988 76.8245 19.64 76.9421 19.5812C77.5304 19.0518 77.8833 18.2871 78.2362 17.5812C78.4715 17.1107 78.7068 16.6401 79.0597 16.2283C79.5891 15.5813 80.2361 17.6989 80.2949 17.993C80.3538 18.1694 80.4126 18.2871 80.4714 18.4047C80.4714 18.5812 80.5302 18.6988 80.6479 18.8753C80.8243 19.0518 80.942 19.1106 81.1185 19.2282C82.1184 20.0517 83.7654 19.9341 85.0007 19.4047C87.4123 19.2282 89.7652 18.4635 92.2357 18.2283C93.9416 18.0518 95.7062 18.2283 97.3532 17.7577C98.059 17.5224 98.7061 16.8166 98.7061 16.0519C98.7061 15.9931 98.5296 13.699 99.1178 15.2872C99.3531 15.9342 98.8825 16.7577 99.4119 17.4048C99.5884 17.5812 99.7648 17.8165 100 17.993C100 18.2871 100.177 18.5812 100.588 18.5812C103.235 18.5224 105.882 17.9342 108.529 17.7577C109.353 17.6989 111.059 17.6401 111.647 16.8165C112.823 17.4048 114.411 16.2872 115.529 15.5225C115.764 17.346 116.117 18.9929 118.352 19.1694C118.882 19.2282 119.352 19.2282 119.882 19.2871C120.176 19.1694 119.294 20.1694 118.529 20.9341ZM117.529 20.287C117.529 20.3458 117.47 20.4047 117.47 20.4047C117.411 20.4635 117.352 20.5811 117.294 20.6399C117.294 20.6399 117.058 20.7576 117.117 20.7576C117.058 20.7576 117.058 20.7576 117 20.8164C116.941 20.6988 116.882 20.4635 116.882 20.287C117.058 20.2282 117.294 20.287 117.529 20.287Z" fill="#2AC0A5"/>
</svg>
