<svg width="126" height="128" viewBox="0 0 126 128" fill="none" xmlns="http://www.w3.org/2000/svg">
<path d="M126.759 54.5646C124.818 53.3293 122.406 52.9764 119.936 53.1529C120.7 52.5058 121.406 51.7999 121.936 50.9176C124.053 47.6824 121.818 44.5649 118.759 43.3296C114.524 41.565 109.171 42.5649 104.936 43.6237C101.995 44.3884 99.2305 45.6237 96.4071 46.6825C99.407 45.2708 102.466 43.3296 104.936 41.2121C109.583 37.2122 106.583 31.2712 100.819 31.2124C100.701 31.2124 100.583 31.2124 100.466 31.2712C100.348 31.2712 100.23 31.2124 100.113 31.2124C95.0542 31.2712 90.7014 33.2123 86.5251 35.9181C82.5252 38.5063 78.5842 41.2121 74.5843 43.859C72.7608 45.0943 70.8197 46.3884 68.7021 46.9766C66.2905 47.6236 64.7611 43.6826 62.7024 42.9767C60.4083 42.1532 58.526 43.1532 56.7026 40.7415C55.5261 39.2122 52.2909 36.9181 52.585 35.0358C53.4674 29.2713 54.3497 23.6833 54.6438 17.86C54.8203 13.8013 55.5262 9.21316 53.8204 5.38977C52.4086 2.21341 48.644 -0.551176 44.9383 0.272325C43.6442 0.566433 41.1737 1.56641 39.9973 3.74281C39.9385 3.80163 39.9384 3.86041 39.8796 3.91923C38.762 6.97795 37.8797 10.0367 37.3503 13.2719C37.2327 13.9777 37.1739 14.7424 37.115 15.4483C36.9974 13.8601 36.9385 12.2719 36.7032 10.6837C36.1739 6.8603 32.8799 4.2722 28.9388 4.91924C23.939 5.74274 21.7626 9.56615 21.3509 14.2719C21.1156 17.3306 21.5273 20.5069 21.645 23.5656C21.8214 27.6831 21.9391 31.7418 22.5273 35.8593C22.939 39.1533 23.5861 42.3885 23.8802 45.6825C24.0567 47.2707 24.0567 48.8589 23.8214 50.3882C23.6449 51.8587 22.7038 53.1529 22.645 54.6234C22.5861 56.2116 22.7626 57.7997 22.8214 59.3879C22.939 62.3878 22.4685 59.1527 22.1744 58.1527C21.645 56.2704 21.2921 54.2704 20.8803 52.3882C19.7627 47.2119 17.9392 34.2711 10.7042 33.8006C10.5277 33.6829 10.2924 33.6241 10.0572 33.6241C3.99854 33.7417 0.939813 39.6239 0.704527 45.0355C0.528062 49.2706 2.93974 53.447 3.35149 57.6233C3.52796 59.5056 3.64559 61.3291 3.99852 63.1525C4.41027 65.3877 5.46908 67.5053 5.93965 69.7405C6.8808 74.2698 6.05731 78.9755 6.46906 83.5047C6.76317 86.9752 8.41014 90.2104 9.82186 93.3279C13.7629 101.681 14.2335 110.151 11.4689 119.033C11.1748 119.974 11.9983 120.562 12.7629 120.445C12.9394 120.562 13.1747 120.68 13.4688 120.68C17.4686 120.621 21.7038 120.092 25.5272 121.68C25.5272 122.033 25.7036 122.327 26.1154 122.562C26.9389 122.974 27.7624 123.327 28.5859 123.621C30.1153 124.15 30.8799 125.033 31.9975 126.15C33.174 127.327 35.1151 127.327 36.468 126.503C39.115 124.974 41.0561 122.974 44.1148 122.092C47.8206 121.033 51.5851 121.621 55.3497 122.033C58.4084 122.327 60.9966 121.915 63.82 120.856C67.1728 119.562 70.6433 118.856 74.1138 117.974C77.8195 117.033 81.29 116.092 85.1134 116.151C88.5838 116.209 92.0543 117.209 95.5836 117.327C99.8776 117.504 105.701 116.327 107.524 111.857C109.171 107.857 107.407 103.269 103.877 100.857C97.2306 96.3278 88.5838 97.916 80.8194 98.9159C83.231 97.5042 85.7604 96.3867 88.2309 95.2102C92.7014 93.0338 97.5247 91.6221 102.466 91.0927C106.583 90.6221 110.701 90.2692 114.759 89.7398C117.583 89.328 120.406 88.9752 122.936 87.5046C127.524 84.8577 127.759 78.3872 123.465 75.3873C121.053 73.7403 118.465 73.1522 115.642 72.7993C113.348 72.5051 107.054 73.1522 105.995 73.3875C109.113 71.7993 112.583 71.7992 115.759 70.9757C120.406 69.8581 125.877 68.3288 128.582 64.0348C130.818 61.0938 129.759 56.5057 126.759 54.5646ZM100.76 41.2709C100.76 41.3297 100.76 41.4474 100.76 41.5062C99.8775 42.0944 98.9364 42.6826 97.9365 43.212C97.2894 41.6827 99.2894 40.0356 100.936 39.7415C100.936 40.2121 100.878 40.7415 100.76 41.2709ZM57.1732 44.3884C57.4673 44.6237 57.8202 44.7414 58.1731 44.859C56.3496 46.4472 55.1732 48.6824 53.4086 50.3294C50.4675 53.094 46.2324 55.094 42.7619 57.2116C38.5267 59.8585 28.9976 65.3289 25.4684 59.2703C25.4684 58.2115 25.2919 57.0939 25.2331 56.388C25.1154 55.1528 25.4095 54.094 25.7625 52.9764C26.4683 53.1528 27.4095 52.8587 28.0565 52.6823C29.2918 52.3293 30.527 51.7411 31.527 50.9176C32.6446 50.0353 32.5857 48.8 31.9975 47.7412C33.5269 46.9766 34.9975 46.1531 36.5856 45.4473C41.409 43.1532 46.1147 40.565 51.1145 38.5651C51.5263 38.9769 51.9969 39.271 52.7027 39.6239C54.4674 40.4474 55.4673 43.212 57.1732 44.3884ZM26.1154 51.9176C26.1154 51.8588 26.1743 51.8 26.1743 51.7411C26.1743 51.6823 26.1743 51.6823 26.1743 51.6235C26.2919 51.3882 26.4683 51.1529 26.6448 50.9764C26.7624 50.8588 26.7625 50.7412 26.7625 50.6235C27.6448 49.8588 28.8212 49.3294 29.88 48.8589C30.2329 48.6824 30.5859 48.5059 30.9388 48.3295C31.2917 48.9765 31.3505 49.5648 30.7035 50.153C30.0564 50.7412 29.1741 51.0941 28.3506 51.3882C27.7624 51.6235 27.1154 51.7999 26.5272 51.8587C26.4095 51.9176 26.233 51.9176 26.1154 51.9176ZM23.8802 17.8012C23.7037 14.6248 23.6449 11.0367 26.1743 8.74263C28.5859 6.50742 32.5858 6.80151 34.2328 9.68376C34.7622 10.6249 34.821 12.0955 34.821 13.3895C34.5269 12.3308 33.9975 11.2719 33.174 10.6249C32.8799 10.3896 32.5858 10.5661 32.4093 10.8014C32.2917 10.8602 32.2328 10.919 32.174 11.0367C31.8799 11.6837 31.527 13.0954 31.4682 14.5071C31.4682 13.1542 31.1741 11.8014 30.6447 10.8014C30.5859 10.7426 30.527 10.6249 30.4682 10.6249C30.6446 9.91904 29.4682 9.56611 29.3506 10.3308C29.2329 10.919 29.1153 11.566 28.9976 12.1542C28.9976 11.8601 28.7624 11.6837 28.5271 11.6249C28.5859 11.3308 28.4095 10.919 27.9977 10.919C27.7624 10.919 27.5859 11.0366 27.5271 11.2131C27.4095 11.2719 27.3506 11.3308 27.2918 11.4484C27.2918 11.4484 27.2918 11.4484 27.233 11.4484C25.4684 12.6248 22.9979 16.9776 26.0566 18.0364C27.3506 18.4481 28.4683 17.7423 28.88 16.5659C28.88 16.507 28.88 16.4482 28.9388 16.3894C29.0565 17.0365 29.2918 17.6835 29.5859 18.2129C29.8211 18.6246 30.4094 18.5658 30.5859 18.2129C31.0564 17.3894 31.3505 16.2717 31.3505 15.0953C31.3505 17.2717 31.8799 19.2717 33.7622 18.8599C34.468 18.6834 34.821 18.0952 34.9975 17.3894C35.1151 18.6834 36.4091 22.6245 36.7032 24.2126C37.9385 29.036 37.115 34.1535 37.8209 39.0357C37.9385 39.8004 39.0561 39.4475 38.9385 38.7416C38.2326 33.9771 38.9973 28.9772 37.8797 24.2715C37.1738 20.5658 40.8208 8.27208 42.1149 4.86043C42.409 4.21339 43.4677 3.27224 44.6441 2.86049C45.7029 2.44873 46.7029 2.6252 47.8205 2.86049C50.5263 3.4487 51.7615 5.97802 52.2909 8.44853C53.1733 12.6249 52.4086 17.5658 52.1145 21.801C51.8792 24.8597 51.4675 27.9184 50.9969 30.9183C50.7028 32.7418 49.9381 34.9182 50.1734 36.8005C50.2322 37.0946 50.2911 37.3887 50.3499 37.624C45.0559 39.7415 39.9973 42.565 34.821 44.9767C32.4681 46.0943 30.2329 47.3295 27.9389 48.506C27.4095 48.8001 26.8801 49.0942 26.4095 49.3883C26.4683 48.7412 26.4095 48.0942 26.4095 47.4471C26.2918 40.7415 24.4684 34.1535 24.1155 27.4478C24.1155 24.2126 23.9978 20.9775 23.8802 17.8012ZM33.4681 17.7423C32.4681 18.154 32.7034 13.6836 32.9975 12.0366C33.4681 12.6837 33.7034 13.6836 33.8211 14.3895C33.9975 15.1542 34.4092 17.3894 33.4681 17.7423ZM30.0565 16.2129C29.8212 15.1541 29.88 13.9777 29.9977 12.8601C30.2918 13.9189 30.2917 15.1541 30.0565 16.2129ZM26.9389 16.9776C24.3507 17.2129 26.9389 13.1543 27.8212 12.5072C27.9389 13.8013 28.4683 16.86 26.9389 16.9776ZM26.7625 116.151C26.586 117.092 26.233 118.033 25.8213 118.915C25.2331 118.915 24.7037 118.856 24.1155 118.856C23.939 118.798 23.7625 118.798 23.6449 118.739C23.8214 118.327 23.9979 117.915 24.1155 117.504C24.292 116.798 23.1743 116.445 22.9979 117.209C22.8802 117.68 22.7038 118.151 22.4685 118.562C21.9391 118.504 21.4097 118.445 20.8803 118.445C20.998 118.209 21.0567 117.974 21.1156 117.739C21.3508 117.033 20.2333 116.739 19.998 117.445C19.8804 117.739 19.7627 118.092 19.645 118.386C18.8215 118.386 17.998 118.386 17.1745 118.386C17.4687 117.857 17.7628 117.327 18.0569 116.856C18.4686 116.209 17.4099 115.621 17.0569 116.268C16.6452 116.974 16.2334 117.68 15.8216 118.445C15.351 118.445 14.8805 118.445 14.41 118.445C14.4688 118.327 14.4688 118.151 14.5276 118.033C14.5864 117.974 14.6452 117.856 14.7041 117.739C14.9394 116.915 15.3511 116.209 15.5864 115.386C15.6452 115.092 15.5276 114.857 15.2923 114.739C15.704 112.563 15.9393 110.386 15.9981 108.151C16.6452 106.975 17.0569 105.622 17.2922 104.269C17.4098 103.504 16.2922 103.21 16.1746 103.975C16.1158 104.328 16.0569 104.68 15.9393 105.033C15.8805 103.975 15.7629 102.975 15.5864 101.916C15.8805 101.975 16.2334 101.798 16.2334 101.386V99.4453C16.2334 98.6807 15.057 98.6807 15.057 99.4453C15.057 99.3865 15.057 99.3277 14.9982 99.2689C14.2335 96.269 12.7041 93.4455 11.41 90.6221C9.52772 86.5634 8.99833 82.9165 9.05715 78.5049C9.11597 74.7403 9.17484 70.7993 7.99841 67.2112C7.35137 65.0936 6.64548 63.0937 6.35138 60.9173C6.11609 59.035 6.11609 57.0939 5.76316 55.2704C4.99848 51.3882 2.99858 47.5648 3.58679 43.5061C4.05737 40.0945 6.11613 36.624 9.70424 36.0946C9.88071 36.1535 10.0572 36.2122 10.2925 36.2122C14.1159 35.977 15.7628 41.2709 16.7039 44.0943C18.1157 48.2118 18.8804 52.5058 19.8215 56.741C20.1744 58.4468 21.4685 64.623 24.3507 62.9172C24.9978 62.5643 25.3507 61.9173 25.5272 61.1526C29.1741 65.2113 36.0563 62.329 40.2914 60.1526C43.4678 58.5056 46.4676 56.4469 49.5264 54.5646C46.7617 57.3292 44.056 60.0938 42.1149 63.4466C41.9384 63.5054 41.7619 63.6231 41.7031 63.8583C41.6443 64.0348 41.6443 64.2113 41.5855 64.3878C41.2914 64.976 40.9972 65.623 40.7619 66.2112C39.409 69.7405 40.0561 74.2698 44.6441 74.2698C47.0558 74.2698 49.5852 72.4463 51.4675 71.211C53.8792 69.6228 56.232 67.7994 58.4672 65.9759C61.4671 63.4466 64.3493 60.682 67.2904 58.035C67.9963 57.388 68.7022 56.6233 69.4669 55.9762C70.4668 55.0351 72.055 53.6234 71.8197 55.9762C71.7609 56.7409 72.9373 56.7409 72.9961 55.9762C73.3491 52.1529 70.5256 53.5058 68.6433 55.1528C63.8788 59.2703 59.5849 63.9172 54.4674 67.6229C52.2322 69.2699 50.0557 70.917 47.5852 72.211C43.703 74.211 40.5855 72.0345 41.5855 67.7405C41.6443 67.3876 41.7619 67.0347 41.8796 66.7406C42.056 66.9171 42.3502 66.9759 42.6443 66.8582C44.6442 65.9171 48.7028 61.8584 45.8206 60.0938C48.1734 57.3291 51.0557 54.8587 53.4086 52.3293C53.5262 52.2117 53.5851 52.0353 53.5851 51.9176C54.2909 51.3882 54.9968 50.7411 55.6438 50.0941C57.1732 48.4471 58.1731 46.4472 60.0554 45.1532C60.7025 45.212 61.3495 45.1532 61.9377 45.1532C62.7612 45.0943 64.2905 47.0942 64.8788 47.6236C65.6434 48.3295 66.4082 48.8 67.3493 49.2118C68.2316 50.1529 69.2904 50.6235 70.5256 51.0941C74.2902 52.6235 74.0549 55.7998 73.8785 59.2114C73.5255 65.8583 71.4668 72.6227 70.1727 79.1519C68.8786 85.6223 66.9963 91.9751 62.8788 97.2102C61.7024 98.7395 59.9966 100.798 57.9967 101.563C57.7614 101.504 57.5261 101.563 57.3496 101.739C56.9379 101.857 56.4673 101.857 56.0555 101.798C55.5261 101.739 55.0556 101.563 54.5262 101.386C54.4085 101.21 54.1733 101.151 53.938 101.151C52.1733 100.387 50.5263 99.0925 48.8793 98.3866C48.1735 98.0925 47.5853 99.0924 48.2911 99.3865C48.5852 99.5042 48.8205 99.6218 49.0558 99.7394C48.9969 99.7394 48.997 99.7983 48.9381 99.7983C48.8205 99.9159 48.6441 100.092 48.5264 100.21C47.997 100.739 48.8205 101.563 49.3499 101.034C49.4675 100.916 49.644 100.739 49.7617 100.622C49.9381 100.445 49.9381 100.328 49.9381 100.151C50.3498 100.387 50.8204 100.622 51.2322 100.857C50.9969 101.328 50.7616 101.798 50.4087 102.151C49.8793 102.681 50.7028 103.563 51.2322 102.975C51.6439 102.504 51.938 101.975 52.2321 101.445C52.5851 101.622 52.8792 101.798 53.2321 101.916C52.8204 102.681 52.4086 103.386 51.9968 104.151C51.6439 104.798 52.6439 105.445 52.9968 104.739C53.4086 103.916 53.8791 103.151 54.2909 102.328C54.3497 102.386 54.4674 102.386 54.5262 102.386C54.5262 102.445 54.4674 102.504 54.4674 102.563C54.2321 103.563 53.8203 104.563 53.5851 105.563C53.4086 106.327 54.585 106.622 54.7027 105.857C54.938 104.857 55.3497 103.857 55.585 102.857C55.585 102.798 55.585 102.739 55.585 102.681C56.0556 102.739 56.5261 102.798 56.9967 102.739C56.9378 103.151 56.9379 103.622 56.9379 104.033C56.6437 104.033 56.4084 104.21 56.4084 104.622C56.4084 104.975 56.232 105.386 55.9379 105.68C55.4085 106.21 56.232 107.033 56.7614 106.504C56.8203 106.445 56.879 106.327 56.9967 106.269C57.0555 108.327 57.2908 110.386 57.232 112.504C57.1731 114.974 56.1144 115.739 54.2321 115.974C54.3497 115.857 54.4086 115.739 54.4086 115.562C54.4086 115.386 54.3497 115.327 54.5262 115.21C55.1732 114.857 54.585 113.798 53.938 114.21C53.4086 114.504 53.2321 114.974 53.2321 115.562C53.2321 115.798 53.3498 115.974 53.5262 116.033C52.9969 116.033 52.4086 116.092 51.8792 116.151C52.0557 115.857 52.1145 115.504 52.1145 115.092C52.1145 114.327 50.9381 114.327 50.9381 115.092C50.9381 115.209 50.9381 115.504 50.8793 115.504C50.7028 115.739 50.6439 116.033 50.8204 116.268C50.4675 116.327 50.0558 116.386 49.7029 116.445C49.7617 116.386 49.7617 116.268 49.7617 116.209V115.798C49.7617 115.033 48.5852 115.033 48.5852 115.798V116.209C48.5852 116.386 48.644 116.562 48.7617 116.621C48.644 116.621 48.5264 116.68 48.4087 116.68C47.7029 116.798 46.997 116.974 46.2912 117.092V117.033C46.2912 116.268 45.1147 116.268 45.1147 117.033V117.268V117.327C43.6442 117.621 42.1737 117.974 40.6443 118.268C40.6443 117.915 40.7031 117.562 40.9972 117.268C41.5266 116.739 40.7031 115.857 40.1737 116.445C39.6443 117.033 39.4679 117.739 39.5267 118.504C38.762 118.621 37.9973 118.739 37.1738 118.856C36.9974 118.268 36.9386 117.621 37.0562 117.033C37.2327 116.268 36.0563 115.974 35.9386 116.739C35.7621 117.504 35.821 118.209 35.9974 118.974C35.2916 119.033 34.5857 119.033 33.8799 119.092C33.8799 119.092 33.8799 119.092 33.8799 119.033V118.151C33.8799 117.386 32.7034 117.386 32.7034 118.151V119.033C32.7034 119.033 32.7034 119.033 32.7034 119.092C32.0564 119.092 31.4681 119.092 30.8211 119.033C30.9387 118.68 30.7623 118.209 30.2918 118.209C29.8212 118.209 29.6447 118.621 29.7624 118.974C28.9389 118.915 28.1153 118.915 27.2918 118.856C27.6447 118.033 27.9389 117.209 28.1153 116.386C28.0565 115.739 26.8801 115.386 26.7625 116.151ZM42.4678 65.4466C42.4678 65.0936 42.4678 64.7995 42.5266 64.4466C43.1148 63.2701 43.8795 62.1525 44.703 61.0938C46.35 62.0349 43.9971 64.3878 42.4678 65.4466ZM123.289 84.4459C122.23 85.7988 120.465 86.4458 118.759 86.7987C118.465 86.1517 118.583 85.387 118.877 84.74C119.936 84.3282 122.7 83.2694 123.289 84.4459C123.289 84.4459 123.289 84.387 123.289 84.4459ZM120.23 67.4464C119.994 67.5053 119.759 67.6229 119.524 67.6817C119.347 67.4465 119.23 67.2112 119.583 66.9759C120.112 66.6818 120.818 66.6229 121.406 66.5641C121.818 66.5053 122.171 66.5053 122.583 66.5053C121.7 66.8582 120.936 67.1523 120.23 67.4464ZM119.171 59.6232C120.642 59.1527 123.994 59.3879 122.642 61.0938C122.053 61.8584 120.818 61.6819 119.936 61.5055C119.465 61.3878 118.995 61.2114 118.642 60.9173C118.289 60.6232 118.642 60.4467 118.936 60.2702C119.171 60.0938 119.23 59.8585 119.171 59.6232ZM123.23 63.3878C122.465 64.2113 120.994 64.6819 119.818 64.5642C120.7 63.7407 121.994 63.4466 123.23 63.3878ZM126.877 62.9172C126.406 63.9172 125.583 64.6818 124.583 65.3877C123.818 65.3877 123.053 65.3877 122.289 65.3877C123.171 65.0348 123.994 64.5054 124.465 63.7407C124.583 63.5643 124.583 63.3878 124.524 63.2701C124.877 62.976 124.759 62.2114 124.171 62.2114C123.877 62.2114 123.524 62.2114 123.171 62.2702C124.465 61.1526 124.347 59.4468 122.818 58.6821C121.465 58.0351 119.347 57.9762 118.053 58.9173C117.759 59.0938 117.759 59.4467 117.877 59.682C116.936 60.5644 117.23 61.7408 118.583 62.3878C119.112 62.6231 119.759 62.8584 120.406 62.9172C119.583 63.2701 118.818 63.8584 118.348 64.6819C118.23 64.9171 118.289 65.3289 118.583 65.5054C118.936 65.623 119.289 65.7407 119.642 65.7995C118.347 66.1524 117.936 67.0936 118.406 68.0935C106.818 70.0935 96.9953 75.7403 95.1718 76.7991C94.5248 77.2108 95.113 78.2108 95.76 77.7991C97.407 76.8579 100.819 75.505 102.76 75.2697C104.877 74.9168 107.76 75.3874 110.76 75.2109C114.112 75.0345 117.759 75.0932 120.877 76.505C123.818 77.8579 125.406 80.6225 123.994 83.3871C122.759 82.3283 119.936 83.1518 118.289 83.7988C118.23 83.7988 118.112 83.8576 118.053 83.9165C117.936 83.9753 117.818 84.093 117.818 84.2694C117.348 85.1518 117.23 86.2105 117.524 87.1516C116.936 87.2693 116.348 87.3281 115.818 87.3869C108.583 88.4457 101.113 88.5045 94.0542 90.6221C90.819 91.5633 87.8192 93.0927 84.7605 94.5632C81.5841 96.1514 78.4665 97.6219 75.7019 99.9159C74.9372 100.563 75.5255 101.975 76.5254 101.916C84.2311 101.386 92.4661 99.0336 100.054 101.563C104.877 103.21 108.583 109.622 103.642 113.386C98.9364 116.915 91.6425 114.562 86.3486 114.033C80.8782 113.504 75.6431 115.386 70.4668 116.68C67.7022 117.327 65.1141 118.151 62.4083 119.151C59.4084 120.327 56.4085 120.033 53.3498 119.621C48.5852 119.092 43.2325 119.209 39.115 122.033C38.115 122.739 37.1738 123.562 36.115 124.268C34.5857 125.327 33.5857 124.444 32.5269 123.327C31.2917 122.033 29.4094 121.621 27.8212 120.915C27.8212 120.621 27.7036 120.386 27.4683 120.209C31.1152 120.327 34.7622 120.445 38.3503 120.033C42.9384 119.445 47.4088 117.974 52.0557 117.504C53.7615 117.327 56.8202 117.856 57.5261 115.621C58.7613 111.445 57.4672 107.033 57.879 102.739C58.5848 102.504 59.2907 102.092 60.0554 101.504C65.2317 97.0925 68.114 90.8574 69.8198 84.3871C70.8197 80.5637 71.4668 76.6227 72.2314 72.7993C72.9961 68.9759 73.9373 65.2701 74.4667 61.4467C74.7608 59.1526 75.4667 54.9763 74.1138 52.7999C72.9373 50.9177 70.7021 50.5647 68.9963 49.5648C71.2315 49.2118 73.6432 47.4472 75.1137 46.4472C78.5842 44.212 82.0546 41.9768 85.4663 39.5651C89.8779 36.4476 94.466 33.7418 100.054 33.683C100.172 33.683 100.289 33.6829 100.407 33.6241C100.525 33.6829 100.642 33.683 100.76 33.683C102.525 33.683 104.23 34.3888 104.936 36.1534C105.583 37.8593 103.289 39.6827 102.172 40.5062C102.113 40.5651 102.054 40.6239 101.995 40.6239C102.054 39.918 102.054 39.2122 102.054 38.5063C102.054 37.7416 100.878 37.7416 100.878 38.5063V38.5651C98.4071 38.8592 95.8189 41.5062 96.8777 43.8002C96.6424 43.9179 96.3482 44.0943 96.113 44.212C92.5248 46.2119 87.7015 46.506 85.0546 49.9765C84.5252 50.6235 84.6428 51.6823 85.584 51.9176C89.0544 52.7999 93.7601 50.2706 96.9365 49.0354C102.113 47.0942 106.995 45.0355 112.583 44.8002C115.171 44.6825 120.994 45.0943 120.23 48.9177C119.877 50.5059 118.524 51.6823 116.877 52.6823C116.877 52.2117 116.818 51.7411 116.642 51.2705C116.465 50.9176 116.171 50.7412 115.759 50.9176C114.465 51.5058 113.054 51.7411 111.936 52.6235C110.995 53.1528 110.642 54.2117 110.877 55.1528C110.642 55.2116 104.054 58.1526 101.701 59.5055C97.6423 61.8584 93.4072 63.7995 89.3485 66.1524C88.7014 66.5053 89.2897 67.5641 89.9367 67.1523C93.3483 65.1524 96.9953 63.5642 100.466 61.5643C108.23 57.035 111.701 57.0939 112.759 56.6233C116.877 55.3293 122.641 54.2116 125.818 56.7998C127.7 58.3291 127.818 60.9173 126.877 62.9172ZM93.3484 47.9765C92.2308 48.4471 90.9367 48.9765 89.7015 49.3295C90.8779 48.8001 92.1131 48.3883 93.3484 47.9765ZM115.818 53.2705C114.701 53.7999 113.524 54.3293 112.465 54.741C112.289 54.7998 112.171 54.8587 112.054 54.8587C111.995 54.3881 112.112 53.9176 112.583 53.6823C113.524 52.9764 114.642 52.6823 115.701 52.2705C115.701 52.5058 115.759 52.7411 115.759 52.9764C115.701 53.0352 115.759 53.1528 115.818 53.2705Z" fill="#2AC0A5"/>
</svg>
