<svg width="171" height="72" viewBox="0 0 171 72" fill="none" xmlns="http://www.w3.org/2000/svg">
<path d="M169.704 30.6174C167.351 26.6175 161.704 27.9705 157.881 28.0881C157.704 28.0881 87.5892 27.9705 83.8834 28.0881C82.8247 28.0881 81.8247 28.5587 80.8247 28.9116C79.2953 29.441 56.1785 29.2645 52.1198 29.3233C44.0613 29.4998 35.9439 29.4998 27.8853 29.4998C27.4148 28.1469 26.5325 27.0882 24.7678 26.8529C22.7091 26.5588 20.6503 27.0881 18.5916 26.7352C14.5917 26.0881 16.5916 21.3236 17.8857 19.1472C20.3562 15.0885 23.4737 11.618 27.0619 8.55933C29.1794 6.73586 32.1205 4.73596 32.4146 1.67724C32.5322 0.44199 31.0029 0.206733 30.3559 0.971412C24.1208 3.61838 18.0622 7.91233 12.8859 12.2063C10.3565 14.3239 8.70953 16.912 7.00371 19.6766C5.35671 22.3824 3.59209 24.8529 2.47448 27.8528C1.23923 31.0292 0.768637 34.5584 0.650994 37.9113C0.533351 40.97 0.298065 44.2052 1.23921 47.1463C2.35682 50.6168 5.18024 52.499 5.23906 56.4988C5.29788 59.087 1.76862 60.9105 1.76862 63.3222C1.76862 65.381 1.70979 68.2044 3.1215 69.9102C4.4744 71.5572 8.35663 71.3219 10.1213 71.0866C12.4153 70.7925 15.0623 70.2043 16.9446 68.7337C18.4151 67.5573 17.8857 63.2045 17.474 61.734C17.121 60.4399 16.5328 59.44 15.8269 58.3224C14.7093 56.3813 14.7682 53.8519 15.2976 51.7343C16.1799 48.1462 19.9444 46.6757 23.1796 46.0875C24.5913 45.8522 26.5913 46.0287 27.5912 44.8522C33.5322 44.5581 39.532 44.3229 45.473 44.2052C51.414 44.0287 77.766 44.4404 81.707 45.0287C81.8247 45.0287 82.0012 45.0287 82.1188 45.0287C87.2363 46.3815 92.9419 46.0875 98.2358 46.7345C104.294 47.4403 110.294 47.2051 116.412 47.0874C122.47 46.9698 128.47 47.4992 134.529 47.558C140.529 47.558 146.528 47.6757 152.469 47.7345C155.587 47.7933 158.469 48.0286 161.116 49.7933C162.528 50.7344 163.351 51.7931 165.116 51.7931C166.292 51.7931 167.41 50.4991 167.704 49.3815C168.292 46.9698 168.939 44.6169 169.469 42.2053C170.175 39.1465 171.586 33.8526 169.704 30.6174ZM5.06261 49.0874C6.00375 49.5579 7.00374 49.852 8.06252 49.9697C10.2977 50.205 12.18 49.6756 14.0623 48.9109C13.5917 49.6168 13.18 50.4403 12.8859 51.2638C11.7094 54.7931 13.18 57.6753 14.2976 60.734C11.3565 61.3811 8.47425 61.5575 5.53317 61.3811C6.29785 60.3811 7.12136 59.3811 7.41547 58.3812C7.94486 56.2636 7.47429 53.6166 6.53314 51.6755C6.06257 50.7932 5.53318 49.9109 5.06261 49.0874ZM15.1799 64.7339C15.2387 66.2044 15.2975 67.322 13.5917 67.9102C12.0035 68.4396 10.533 68.8514 8.8272 68.969C7.53312 69.0867 6.29788 68.8514 5.12145 68.5573C4.35677 68.3808 4.1803 66.2633 4.12148 64.7927C4.12148 63.9692 4.41559 63.2045 4.82734 62.4987C8.18017 62.7928 11.4153 62.6163 14.7093 61.8517C14.9446 62.7928 15.1799 63.7339 15.1799 64.7339ZM26.0031 41.5582C26.0619 44.4405 22.3561 43.9111 20.2385 44.4993C18.7092 44.9111 17.3563 45.6169 16.1799 46.5581C12.2388 48.4992 7.35664 50.3226 3.88618 47.0286C3.29796 45.7933 2.8862 44.4993 2.8862 42.8523C2.82738 39.2642 2.88622 35.6172 3.70972 32.0879C4.41558 28.9116 5.70966 26.0293 7.47431 23.2647C9.23895 20.5589 10.8271 17.6179 13.0624 15.2062C15.4152 12.6769 18.8268 10.5005 21.7091 8.61821C23.709 7.32413 25.7678 5.97118 27.9442 4.73593C27.4148 5.2065 26.8266 5.67712 26.4148 6.03005C24.8266 7.38294 23.2385 8.79463 21.7679 10.2652C18.9445 13.0298 15.7681 16.912 14.474 20.6177C13.4153 23.5588 13.5917 26.6764 16.474 28.441C17.6504 29.1469 19.1798 29.2057 20.4738 29.2057C21.6503 29.2057 22.7679 29.0292 23.9443 29.088C25.9443 29.088 26.0619 31.0292 26.1207 32.4409C25.9442 32.6762 25.9443 38.7936 26.0031 41.5582ZM45.4142 42.0288C39.7085 42.1464 34.0028 42.3817 28.2971 42.6758C28.8265 39.0877 28.4736 33.4996 28.4736 33.2644C28.4736 32.8526 28.4148 32.3821 28.3559 31.9115C36.2968 31.9115 44.2378 31.9115 52.1198 31.735C55.708 31.6762 75.2367 31.3233 81.5894 30.7939C82.4717 34.7937 82.4717 38.8524 81.7658 42.9111C77.2366 42.4405 51.0022 41.8523 45.4142 42.0288ZM165.528 48.205C165.175 50.5579 161.351 47.3815 160.763 47.0286C159.234 46.2051 157.528 45.8522 155.822 45.6757C150.999 45.1464 145.999 45.264 141.176 45.264C131.352 45.264 121.588 44.7346 111.765 44.9698C106.765 45.0875 102 44.9698 97.0594 44.3816C92.4713 43.8522 87.5304 44.0875 83.0011 42.9699C83.707 38.8524 83.707 34.6761 82.8246 30.6174C83.1187 30.5586 83.2952 30.5586 83.4717 30.4998C85.2363 29.9704 162.234 30.2057 164.116 30.2057C167.586 30.2645 168.175 32.382 168.175 35.3231C168.116 39.7935 166.175 43.8522 165.528 48.205Z" fill="#2AC0A5"/>
</svg>
