<svg width="163" height="43" viewBox="0 0 163 43" fill="none" xmlns="http://www.w3.org/2000/svg">
<path d="M157.658 14.0984C155.128 11.0397 151.54 9.27506 147.893 7.92217C143.129 6.15752 125.717 0.922379 121.953 0.687093C117.482 0.392985 112.953 0.804707 108.483 0.804707C108.306 0.804707 52.6611 5.45165 47.2496 5.33401C46.9555 5.33401 46.6614 5.45166 46.4849 5.56931C45.8379 5.68695 45.3085 5.92221 44.6614 6.27514C43.0732 7.2751 41.9556 7.33395 40.0734 7.33395C35.3676 7.27513 24.6621 7.80451 23.0151 7.98097C21.3093 8.21626 19.8976 8.51032 18.1917 8.74561C17.0153 8.86325 15.8977 8.15739 14.7213 8.4515C13.839 8.68679 12.3684 10.5691 11.4861 10.275C10.8391 10.0397 10.3685 10.3927 10.1332 10.8632C8.25093 12.4514 7.13331 14.6278 5.89806 16.7454C4.19224 19.7453 2.01584 22.3334 0.66295 25.5097C0.2512 26.5097 1.13353 27.3921 1.89821 27.3333C2.07467 27.5097 2.30994 27.5685 2.60405 27.5685C5.72159 27.5685 8.89795 27.6862 12.0155 27.6862C13.6625 27.6862 15.2507 27.8626 16.8977 28.0391C18.3094 28.2156 19.8976 27.6273 21.1916 28.392C21.3681 28.6273 21.6622 28.7449 22.0151 28.7449C26.5444 28.8037 31.0148 29.3332 35.4853 29.1567C40.2498 28.9214 45.0144 28.7449 49.7789 28.7449C50.073 31.4507 51.7788 34.6271 54.8376 33.5095C55.4846 33.2742 56.014 32.7448 56.5434 32.3331C57.7786 31.2743 59.0139 30.8625 60.6021 30.5684C63.4255 30.039 66.3666 30.2743 69.2488 30.2743C83.8365 30.0979 98.2478 32.9213 112.836 33.0389C113.424 33.0389 113.777 32.686 113.894 32.2742C114.13 32.1566 114.365 31.9213 114.483 31.6272C114.894 30.5684 115.482 32.5095 115.482 32.5095C115.718 32.9213 116.306 33.333 116.718 33.3918C117.718 33.5095 118.306 33.4507 118.953 32.686C119.188 32.3919 119.424 32.2154 119.541 31.8625C119.365 32.2742 119.953 33.5095 120.247 33.8624C120.953 34.7448 121.541 35.0388 122.659 35.0977C123.129 35.0977 123.659 34.7447 123.776 34.2153C123.953 33.5683 124.012 32.8624 124.129 32.1566C124.365 30.9802 124.188 33.8624 124.247 34.333C124.365 35.8035 125.423 36.4506 126.776 36.4506C127.247 36.4506 127.835 36.0977 127.894 35.5683C128.011 34.8624 128.07 34.2154 128.188 33.5095C128.247 33.1566 128.306 32.8036 128.364 32.4507C128.776 32.9213 128.953 33.5095 128.894 34.1565C128.953 36.2153 129.776 37.0976 131.717 37.7446C132.305 37.9211 133.011 37.5093 133.188 36.9211C133.423 35.8623 133.658 37.8623 133.658 37.9799C133.776 38.4505 133.952 38.921 134.305 39.274C135.129 40.0975 136.717 40.274 137.658 39.6858C137.776 39.6269 137.893 39.5093 138.011 39.3917C138.07 39.6858 138.129 39.9798 138.305 40.2151C138.835 41.0974 139.893 41.7445 140.835 41.9209C141.599 42.0974 142.187 41.568 142.482 40.921L142.54 40.8622C142.658 40.9798 142.776 41.1563 142.834 41.3327C143.011 41.6268 143.305 41.921 143.658 42.0386C150.246 44.0386 157.422 39.921 160.716 34.333C164.834 27.8038 162.304 19.6865 157.658 14.0984ZM133.364 5.45162C133.364 5.51044 133.364 5.51048 133.364 5.56931C133.364 5.56931 133.364 5.56929 133.305 5.62811C133.364 5.56929 133.364 5.56929 133.305 5.62811H133.247H133.188H133.07H133.011C133.011 5.62811 132.952 5.62813 132.952 5.56931C132.952 5.56931 132.894 5.45162 132.835 5.45162C132.776 5.3928 132.776 5.33402 132.717 5.2752C132.952 5.33402 133.188 5.3928 133.364 5.45162ZM127.894 4.09877C128.129 4.15759 128.364 4.21637 128.541 4.27519C128.541 4.33401 128.482 4.39286 128.482 4.45168C128.482 4.80461 128.482 5.21638 128.423 5.56931C128.423 5.68695 128.364 5.86338 128.306 5.98103C128.247 5.92221 128.188 5.92224 128.129 5.86341C127.835 5.68695 127.894 4.92221 127.894 4.6281C127.894 4.39282 127.894 4.21641 127.894 4.09877ZM122.953 3.15757C123.188 3.15757 123.423 3.21643 123.6 3.27525C123.659 4.03993 123.718 5.51043 123.365 5.51043C122.894 5.56925 122.894 4.09871 122.953 3.15757ZM118.424 4.5693C118.424 4.0399 118.482 3.56935 118.541 3.03995C118.835 3.03995 119.071 3.03995 119.306 3.03995C119.365 3.86345 119.541 5.15751 119.012 5.74573C118.894 5.86337 118.659 5.74576 118.6 5.62811C118.365 5.45165 118.424 4.8634 118.424 4.5693ZM113.659 3.27525C113.894 3.27525 114.13 3.27527 114.306 3.21645C114.365 4.09877 114.483 6.03986 113.953 5.92222C113.424 5.80458 113.6 4.15758 113.659 3.27525ZM109.659 3.45167C109.718 3.8046 109.718 4.15756 109.718 4.51049C109.718 4.86342 109.718 5.62813 109.365 5.86341C108.777 6.27516 108.718 4.39288 108.718 3.51055C109.012 3.45173 109.306 3.45167 109.659 3.45167ZM104.306 3.74578C104.424 3.74578 104.542 3.74578 104.659 3.74578C104.659 4.03989 104.718 4.33405 104.718 4.68698C104.718 5.03991 104.836 5.74573 104.601 6.03983C104.659 5.92219 104.542 5.92219 104.483 5.74573C104.365 5.51044 104.306 5.15751 104.306 4.8634C104.248 4.45165 104.248 4.03989 104.306 3.74578ZM99.3654 4.03989C99.7183 4.03989 100.071 3.98108 100.424 3.98108C100.542 4.68694 100.601 5.68692 100.13 5.98103C99.6007 6.33396 99.3654 5.45163 99.3654 5.0987C99.3654 4.74578 99.3654 4.39282 99.3654 4.03989ZM94.895 4.334C95.1891 4.334 95.4244 4.27519 95.6597 4.27519C95.7185 4.74576 95.7185 5.86337 95.3067 6.03983C94.7773 6.27512 94.8362 5.03985 94.895 4.334ZM90.2481 4.68698C90.601 4.68698 90.9539 4.6281 91.248 4.6281C91.3069 5.27514 91.248 6.27515 90.8363 6.21633C90.2481 6.09868 90.1893 5.33402 90.2481 4.68698ZM86.1894 4.98109C86.1894 5.09873 86.1894 5.21636 86.1894 5.33401C86.1894 5.21636 86.1894 5.45162 86.1306 5.45162L86.0717 5.39281C86.0129 5.33399 86.0129 5.27514 85.9541 5.21632C85.9541 5.1575 85.9541 5.15753 85.8953 5.0987C85.8953 5.0987 85.8953 5.03991 85.8953 4.98109C86.0129 4.98109 86.0718 4.98109 86.1894 4.98109ZM81.6013 5.33401C81.6013 5.39283 81.5425 5.51048 81.5425 5.56931C81.4837 5.68695 81.4249 5.74571 81.366 5.80453C81.3072 5.68689 81.2484 5.51047 81.2484 5.33401C81.366 5.33401 81.4837 5.33401 81.6013 5.33401ZM47.8378 7.68687C52.72 7.68687 57.5433 6.74571 62.4255 6.56924C63.1902 6.51042 64.4843 6.45159 66.1313 6.33394C66.3666 6.62805 66.6607 6.86332 67.0136 6.98096C67.6606 7.15743 68.2488 6.74572 68.543 6.21633C69.3076 6.15751 70.1311 6.09866 70.9546 6.03983C71.1311 6.39276 71.484 6.68691 71.9546 6.74574C72.5428 6.80456 72.9546 6.39279 73.1898 5.92222C73.8369 5.8634 74.4839 5.80453 75.131 5.80453C75.3662 6.33393 75.7192 6.80456 76.3074 7.03984C76.7191 7.21631 77.1897 7.03984 77.4838 6.74574C77.7779 6.45163 77.8956 6.03988 77.9544 5.56931C78.6602 5.51048 79.3661 5.45163 80.072 5.39281C80.072 5.56928 80.1308 5.80458 80.1308 5.92222C80.2484 6.39279 80.6013 6.86332 81.1307 6.98096C82.1307 7.15743 82.6601 6.03982 82.7778 5.21632C83.4248 5.1575 84.0718 5.0987 84.7189 5.0987C84.8365 5.80456 85.1894 6.51039 85.9541 6.68686C86.4247 6.8045 86.8364 6.56926 87.1305 6.21633C87.3658 5.8634 87.4246 5.39278 87.3658 4.92221C87.954 4.86339 88.5423 4.86342 89.1305 4.8046C89.1305 6.03985 89.3658 7.27512 90.8363 7.39276C92.4245 7.5104 92.4833 5.74573 92.4245 4.5693C92.8951 4.51048 93.3068 4.5105 93.7774 4.45168C93.7774 5.74576 93.7774 7.51036 95.4832 7.27507C96.7773 7.09861 97.0714 5.3928 96.8949 4.27519C97.3655 4.21637 97.8361 4.2164 98.2478 4.15758C98.189 4.80461 98.189 5.39281 98.3654 5.98103C98.6007 6.80453 99.4831 7.39274 100.365 7.15746C101.718 6.80453 101.718 5.09872 101.601 3.86347C101.954 3.86347 102.248 3.80466 102.424 3.80466C102.601 3.80466 102.836 3.8046 103.13 3.74578C102.954 5.09868 103.189 6.74574 104.483 7.03984C106.189 7.39277 105.953 4.8046 105.895 3.62817C106.424 3.62817 106.953 3.56936 107.542 3.56936C107.542 4.98108 107.6 7.27513 109.483 7.03984C110.953 6.86338 111.071 4.80458 110.836 3.39287C111.424 3.39287 111.953 3.33406 112.541 3.33406C112.424 4.74578 112.247 7.03981 113.953 7.15746C115.894 7.2751 115.6 4.62816 115.541 3.21645C116.188 3.21645 116.777 3.15757 117.365 3.15757C117.247 4.80457 117.012 7.33389 119.306 6.98096C120.776 6.74568 120.541 4.27519 120.482 3.09876C120.659 3.09876 120.776 3.09876 120.894 3.09876C121.188 3.09876 121.482 3.09875 121.776 3.15757C121.718 4.6281 121.659 6.74572 123.365 6.80454C124.835 6.86336 124.835 4.80461 124.776 3.56936C125.423 3.687 126.07 3.80462 126.717 3.98108C126.659 5.21633 126.659 6.86332 128.011 7.27507C129.541 7.74564 129.658 5.74577 129.658 4.68698C130.306 4.86345 130.894 4.98105 131.423 5.15751C131.482 6.09866 131.952 6.9222 133.011 7.03984C133.482 7.09866 133.952 6.86338 134.247 6.45163C134.364 6.27516 134.423 6.09868 134.482 5.92222C137.246 6.62808 139.835 7.68684 142.54 8.6868C144.364 9.39266 146.187 9.98089 147.952 10.6867C147.187 10.6867 146.423 10.6279 145.658 10.5103C145.599 10.5103 145.54 10.5103 145.481 10.5103C145.423 10.5103 145.423 10.5103 145.364 10.4514C143.834 10.3926 142.599 9.56915 141.129 9.45151C139.305 9.33387 47.6025 8.68684 45.132 8.80449C45.8379 8.27509 47.7201 7.74569 47.8378 7.68687ZM19.9564 10.7456C20.0152 10.7456 20.0152 10.7456 20.074 10.6867C22.074 10.0397 49.8377 10.0397 53.5435 10.0985C57.6022 10.1574 138.423 10.4514 140.364 10.4514C142.07 10.3926 143.658 11.3926 145.364 11.5103C145.423 11.5103 145.423 11.5103 145.423 11.5103C145.54 11.5103 145.717 11.5102 145.834 11.5691C145.893 11.6279 145.952 11.6867 146.011 11.7456C146.481 12.0397 146.834 12.4514 147.187 12.8631C147.364 13.0984 147.54 13.3337 147.717 13.6278C147.775 13.6866 147.834 13.8043 147.834 13.8631C147.893 13.9219 147.893 13.9807 147.893 13.9807C147.834 14.0984 147.834 14.216 147.834 14.2748C146.07 14.0396 144.364 13.9219 142.658 13.4513C141.835 13.216 140.011 13.9219 139.364 13.4513C138.835 12.9808 138.305 13.0985 137.658 13.2161C136.188 13.4514 137.893 14.1572 135.011 13.7454C134.599 13.6866 134.07 13.3925 133.658 13.569C132.188 14.1572 128.953 13.7455 127.482 13.2749C126.364 12.9808 126.012 13.9808 124.365 13.2749C123.541 12.922 123.07 13.1572 122.306 13.6278C122.129 13.7455 122.071 13.8631 122.012 13.9807C121.718 13.6278 121.423 13.3926 121.188 13.2161C120.012 12.3926 118.424 12.1573 117.012 11.9808C114.13 11.6279 96.7184 11.6279 96.6596 11.7456C96.2479 12.0397 95.9538 12.4514 95.7773 12.9808C95.7185 13.0396 95.6597 13.0396 95.6008 13.1572C94.6597 14.3337 94.1303 12.922 93.248 12.9808C92.0127 13.0396 90.8951 13.1572 89.6599 13.1572C89.0128 13.1572 87.3658 14.1572 86.8953 13.6866C86.4247 13.2161 85.7776 13.2161 85.1894 13.3925C83.7777 13.8043 82.4836 12.922 81.1307 13.569C80.1308 14.0396 80.0131 13.3337 79.1896 13.3337C78.8955 13.3337 78.5426 13.3925 78.3073 13.569C77.3662 14.0984 76.7191 13.569 75.8368 13.3925C74.778 13.2161 74.4251 13.8043 73.4251 13.9219C73.3663 13.9219 73.2487 13.9807 73.1898 13.9807C72.8369 13.569 72.5428 13.2749 71.9546 13.2749C71.3664 13.2749 70.4841 14.4513 69.8958 13.6866C69.19 12.8043 67.543 13.3337 66.8371 13.9219C66.543 14.1572 65.896 13.2749 65.6019 13.2161C65.0137 13.0396 64.5431 13.2749 64.0137 13.5102C63.0725 13.922 63.0725 13.8043 62.0138 13.569C61.4844 13.4514 61.0138 13.7454 60.5432 14.0395C59.4844 13.0396 57.9551 13.6278 56.5434 14.0395C54.5434 14.6278 51.8965 14.2161 49.8377 14.0984C47.3084 13.922 44.7791 13.7455 42.1909 13.6278C37.8381 13.4514 33.603 13.6866 29.2502 13.9807C27.4267 14.0984 25.6621 13.9808 23.8974 13.9219C23.1916 13.9219 22.4857 13.8631 21.7799 13.8631C20.074 13.6867 19.9564 12.2161 19.9564 10.7456ZM152.128 19.9806C152.834 20.5688 153.187 21.5099 153.481 22.451C149.423 22.5687 145.423 23.0981 141.364 23.0393C136.599 22.9804 131.776 22.6275 127.012 22.5687C126.717 21.0981 125.894 19.2747 124.894 17.6865C132.129 17.6865 139.423 17.5688 146.658 17.5688C146.834 17.5688 146.952 17.51 147.011 17.4512C149.07 17.4512 150.775 17.6865 152.011 19.4512C151.893 19.6276 151.893 19.8041 152.128 19.9806ZM125.894 22.9805C125.835 24.0392 123.012 23.9804 122.129 23.9216C121.188 23.8628 118.894 23.804 116.071 23.804V23.7451C116.071 21.9804 116.13 20.157 116.13 18.3923C116.13 16.5689 115.718 14.8043 116.012 13.0396C116.13 13.0396 116.188 13.0396 116.306 13.0396C122.894 13.2161 125.953 22.0981 125.894 22.9805ZM114.894 17.2159C115.071 19.3923 114.894 21.6276 114.894 23.804V23.8628C114.894 23.804 114.894 23.7451 114.894 23.6275C114.424 21.6864 114.541 19.6864 114.365 17.6865C114.247 16.2748 113.718 14.4513 114.306 13.0984V13.0396C114.483 13.0396 114.659 13.0396 114.835 13.0396C114.659 14.3925 114.777 15.8042 114.894 17.2159ZM112.541 12.9808C112.718 12.9808 112.894 12.9808 113.071 12.9808C112.659 14.3337 112.894 15.8042 113.071 17.2159C113.306 19.3923 113.13 21.6276 113.659 23.804C113.365 23.804 113.071 23.804 112.777 23.804C112.836 23.7451 112.894 23.6275 112.894 23.5099C112.953 19.9806 112.6 16.5101 112.541 12.9808ZM110.6 23.2746C110.071 21.804 110.424 20.0982 110.542 18.6276C110.659 16.7454 110.542 14.8631 110.542 12.9808C110.836 12.9808 111.13 12.9808 111.365 12.9808C111.424 16.5101 111.718 19.9806 111.777 23.5099C111.777 23.6275 111.836 23.7451 111.894 23.804C111.424 23.804 110.953 23.804 110.424 23.804C110.6 23.7451 110.659 23.5098 110.6 23.2746ZM108.659 13.0396V12.9808C108.895 12.9808 109.13 12.9808 109.365 12.9808C109.365 15.0396 109.424 17.0983 109.306 19.1571C109.189 20.6276 108.953 22.2158 109.483 23.6275C109.542 23.7451 109.6 23.804 109.659 23.8628C109.483 23.8628 109.306 23.8628 109.189 23.8628C109.189 23.804 109.189 23.6863 109.189 23.6275C108.6 20.3335 108.13 16.3336 108.659 13.0396ZM107.247 17.9806C107.189 16.2748 106.659 14.6278 106.6 12.922C106.895 12.922 107.189 12.922 107.483 12.922C106.953 16.3925 107.424 20.3923 108.012 23.804C107.718 23.804 107.483 23.804 107.189 23.804C107.247 23.6863 107.306 23.6274 107.306 23.451C107.306 21.6863 107.306 19.8629 107.247 17.9806ZM106.248 23.8628C105.953 23.8628 105.659 23.8628 105.365 23.8628C105.306 20.2158 104.777 16.5689 104.718 12.922C104.953 12.922 105.189 12.922 105.424 12.922C105.483 14.6278 105.953 16.2748 106.071 17.9806C106.248 19.8041 106.13 21.6864 106.13 23.5099C106.189 23.6863 106.189 23.7451 106.248 23.8628ZM103.13 12.922C103.248 12.922 103.424 12.922 103.601 12.922C103.659 16.5689 104.189 20.2158 104.248 23.8628H103.542C103.601 23.804 103.601 23.6863 103.601 23.6275C103.483 20.0394 102.424 16.5101 103.13 12.922ZM101.307 12.922C101.483 12.922 101.718 12.922 101.895 12.922C101.248 16.5101 102.365 23.804 102.424 23.8628C102.189 23.8628 101.895 23.8628 101.659 23.8628C101.718 23.8628 100.189 15.8631 101.307 12.922ZM99.3066 17.9806C99.1889 16.3924 98.5419 14.5102 99.1301 12.9808C99.4242 12.9808 99.7183 12.9808 100.071 12.9808C99.6595 14.4513 99.8948 16.0395 100.012 17.5688C100.189 19.6276 100.365 21.6863 100.483 23.7451C100.483 23.8039 100.483 23.8628 100.542 23.9216C100.189 23.9216 99.836 23.9216 99.5419 23.9216V23.8628C99.3066 21.8628 99.483 19.9217 99.3066 17.9806ZM97.9537 16.3924C98.3066 18.8629 98.1301 21.3334 98.4243 23.7451C98.4243 23.7451 98.4243 23.7451 98.3654 23.7451C96.542 23.3333 96.9537 20.9217 96.8361 19.4512C96.7184 18.0394 96.0714 13.7455 97.8949 12.9808C97.6596 14.0984 97.7772 15.2748 97.9537 16.3924ZM15.0154 25.5686C11.2508 25.098 7.19214 25.2745 3.36874 25.2745C4.42753 23.2158 5.72159 21.2746 7.07449 19.3335C8.60385 17.0983 9.60381 14.569 11.6626 12.7455C13.7213 12.8631 14.6625 10.5103 17.0741 10.9809C17.6624 11.0985 18.2506 11.0985 18.8388 11.0397C18.78 12.8631 18.8976 14.5101 21.1328 14.8631C24.8974 15.4513 28.8973 15.1572 32.6618 14.8631C37.3676 14.5101 42.0733 14.6866 46.779 14.9807C49.426 15.1572 52.0141 15.3336 54.6611 15.3925C55.661 15.3925 59.6021 14.2749 60.1315 15.0984C60.3079 15.3336 60.6609 15.5101 60.955 15.3337H63.249C63.4843 15.5101 63.7784 15.3924 63.9549 15.216C65.4842 13.6866 66.1313 16.0395 67.4842 14.9219C68.6018 13.9807 69.19 14.9219 70.2488 15.216C71.0135 15.4513 71.8958 14.0396 72.6016 14.8043C72.7781 15.0395 73.0722 15.0395 73.2487 14.9219C73.3075 14.9807 73.4251 14.9807 73.5428 14.9807C74.6604 14.8631 75.778 14.3337 76.8956 14.8043C77.7191 15.1572 79.1896 14.2749 79.7779 14.7454C80.3073 15.1572 80.719 15.0983 81.3072 14.9219C82.5425 14.4513 83.8365 15.0396 84.9541 14.6866C85.8365 14.4514 86.9541 15.5101 87.7188 15.216C88.7775 14.8042 89.6011 14.569 90.7187 14.569C92.248 14.569 93.4833 14.6278 94.9538 14.9807C95.1303 15.0396 95.3655 14.9807 95.4832 14.9219C95.4244 15.8042 95.4832 16.6277 95.4832 17.3336C95.542 18.5689 95.4832 20.5687 95.8949 22.2157C86.8953 21.5687 39.4263 22.2157 35.4853 22.2157C32.8971 22.2746 30.309 22.1569 27.7208 22.1569C25.1915 22.1569 22.7798 22.8628 20.2505 22.3334C19.5446 22.2158 19.2505 23.1569 19.7799 23.3922C19.7799 24.2157 20.074 25.0392 20.4858 25.8038C18.7211 25.5097 16.6624 25.8039 15.0154 25.5686ZM61.1903 28.2744C59.4256 28.4509 57.8374 28.9214 56.3081 29.7449C55.6022 30.0979 53.8376 32.3331 52.9553 30.9802C52.4259 30.2155 52.1906 29.0978 52.1318 28.1567C56.1904 28.1567 60.2491 28.0979 64.3078 28.0391C63.249 28.0391 62.1902 28.1567 61.1903 28.2744ZM22.4857 26.5097C22.4269 26.4509 22.3681 26.4509 22.3093 26.3921C21.721 25.5686 21.074 24.5686 20.9564 23.5687C22.1916 23.6863 23.4269 23.6275 24.7209 23.5099C27.2503 23.2158 29.7796 23.2745 32.3089 23.3334C37.4264 23.451 88.1305 22.6275 96.3067 23.3334C96.6008 23.8628 96.8361 24.5098 97.4243 24.5686C99.836 24.9215 112.365 25.2156 120.129 25.2156C125.6 25.2156 127.482 25.2744 127.012 23.7451C131.423 23.7451 135.835 23.9216 140.246 24.1569C144.776 24.3922 149.305 23.6863 153.834 23.6275C153.834 23.6275 153.834 23.6275 153.834 23.6863C154.069 24.2745 154.305 24.7451 154.54 25.3921C155.246 27.0391 153.069 27.5685 151.834 27.5097C147.481 27.3332 143.187 27.2744 138.835 27.2744C129.541 27.2156 91.0716 26.5097 81.3072 26.6274C71.4252 26.6862 27.1914 26.6274 22.4857 26.5097ZM160.187 29.7449C158.952 36.0976 153.011 40.2151 146.717 40.1563C145.599 40.1563 145.187 40.3328 144.717 39.8034C144.305 39.274 143.776 38.3328 143.07 38.1564C142.011 37.8622 141.482 38.8034 140.952 39.5681C139.835 38.7446 139.776 36.627 138.188 35.98C136.894 35.4506 135.482 37.4505 135.952 38.5681C135.423 37.0388 136.658 34.8036 134.305 34.1565C133.188 33.8624 132.305 34.2154 131.717 34.9801C130.717 33.333 131.129 29.5096 128.129 29.9213C127.129 30.039 126.659 30.8037 126.364 31.7449C126.012 30.5096 125.365 29.2743 124.129 29.2743C122.718 29.2743 122.247 30.686 122.012 31.9801C121.6 31.1566 121.247 29.9802 120.482 29.7449C119.306 29.392 118.071 29.6273 117.6 30.9214C117.6 30.9802 117.6 30.9801 117.541 31.039C117.541 30.9213 117.482 30.7449 117.365 30.5684C117.071 30.039 116.188 29.392 115.6 29.2743C114.012 28.8626 113.13 29.4508 112.483 30.8037C100.424 30.686 88.3658 28.7449 76.3074 28.1567C74.0134 28.0391 71.7193 27.9803 69.4253 27.9215C73.0134 27.8627 76.6015 27.8038 80.1896 27.745C90.601 27.6273 123.659 28.1568 129.717 28.2156C135.658 28.2744 141.776 27.9803 147.717 28.2744C149.187 28.3332 156.305 30.0978 156.128 26.9215C156.069 25.3921 155.305 24.098 154.834 22.7452C154.481 21.6275 154.069 20.3335 153.305 19.51C153.305 19.3923 153.305 19.2747 153.246 19.1571C151.658 16.5689 149.364 16.2748 146.54 16.2748C146.364 16.2748 146.246 16.3336 146.187 16.3924C139.011 16.3924 131.835 16.5101 124.659 16.5101C124.482 16.5101 124.365 16.5689 124.306 16.6865C123.835 15.9218 123.306 15.2749 122.835 14.6866C122.894 14.6866 123.012 14.6278 123.07 14.6278C123.953 14.0984 124.717 14.8631 125.482 15.0984C126.423 15.3925 127.188 14.3925 128.247 14.9219C128.894 15.216 129.306 15.4513 129.953 15.0396C130.835 14.5102 132.07 15.3336 133.011 15.1572C134.247 14.9219 135.07 14.9807 136.188 15.0396C137.482 15.0984 137.776 14.0984 139.188 14.8043C139.893 15.0984 140.246 15.3336 140.952 14.9219C142.011 14.3925 146.952 15.3336 148.128 15.5101C148.658 15.5689 148.952 15.0396 148.834 14.6866C149.364 13.9808 148.952 13.1572 148.481 12.569C148.246 12.2749 148.011 11.9808 147.776 11.6867C148.717 11.6867 149.658 11.6867 150.599 11.6867C151.187 11.9808 151.775 12.275 152.364 12.6279C157.893 15.9219 161.481 23.3334 160.187 29.7449Z" fill="#2AC0A5"/>
</svg>
