<svg width="206" height="109" viewBox="0 0 206 109" fill="none" xmlns="http://www.w3.org/2000/svg">
<path d="M205.181 71.577C203.71 64.6361 199.651 57.8716 196.71 51.5189C193.593 44.6956 190.358 37.9311 187.005 31.1667C185.711 28.5785 184.181 26.3433 182.24 24.2845C179.946 21.814 177.064 18.4612 177.77 14.8143L177.829 14.7554C179.887 10.6968 173.946 7.04985 170.476 6.87338C169.652 6.81456 168.829 6.93219 168.241 7.5204C167.594 8.0498 166.594 6.10869 165.653 5.87341C163.888 5.40284 162.123 5.52047 160.947 6.63808C159.3 5.40283 158.3 4.5205 155.771 4.75579C154.3 4.87343 153.418 5.344 152.888 6.22632C152.535 5.69693 152.241 4.87344 151.888 4.57933C151.182 3.87347 150.418 3.57938 149.477 3.34409C146.242 2.52059 142.124 3.34408 138.83 3.4029C131.771 3.28526 125.007 1.34417 118.066 0.226559C115.301 -0.185191 112.478 0.403002 109.713 0.167716C108.243 0.0500732 106.831 0.0500732 105.419 0.167716C103.949 0.285359 102.655 0.932417 101.243 1.10888C101.184 1.05006 101.067 1.05004 100.949 1.05004C99.2431 0.755931 97.7726 0.69711 96.1256 1.34415C93.9492 2.22647 91.8904 0.697124 89.6552 0.991231C88.8905 1.10887 88.2435 1.52061 87.5965 1.93236C86.4789 2.63822 84.6554 1.81474 83.4202 1.6971C81.7143 1.52063 79.8908 2.22647 78.4791 3.10879C77.4203 2.81468 76.3616 2.8735 75.1851 2.81468C73.8322 2.69704 71.4794 2.22648 70.2441 3.04998C69.95 3.28527 68.5383 5.22639 68.5971 5.22639C66.3031 5.46167 33.1866 5.40283 27.3044 5.75576C26.1868 5.81458 25.7751 6.991 25.8339 7.40275C26.0104 11.9908 28.8338 10.9909 32.5984 11.2262C35.5394 11.4026 46.4802 10.5791 48.7743 10.8144C48.2449 11.0497 47.7743 11.2262 47.6566 11.285C46.4802 12.1085 47.1861 13.3437 45.3038 13.4026C43.4803 13.4614 6.36397 14.4025 1.30532 14.4025C0.0700663 14.4025 -0.165227 15.9319 0.599452 16.5201C0.599452 16.5201 0.599474 16.5789 0.658295 16.5789C1.59944 17.6965 2.5994 18.7553 3.77583 19.6377C4.01111 19.8141 5.12874 20.1082 5.48167 20.1082C18.9518 20.1082 32.4807 19.8141 45.9508 19.8141C45.9508 21.3435 46.1861 22.7552 46.6567 24.2257C46.8332 24.8139 49.8919 26.2257 50.6566 27.1668C51.186 27.8138 52.0683 28.6373 52.8918 28.9314C54.3623 29.402 56.0093 29.2255 57.5387 29.2255C59.1269 29.2255 62.1268 29.2844 63.5973 28.0491C65.3619 28.9314 67.4795 27.755 69.4794 28.1079C69.4794 30.3431 69.4206 32.6372 69.5971 34.8724C69.6559 35.99 70.1265 37.4605 69.5971 38.5781C69.2442 39.284 68.8324 39.8722 68.5971 40.6369C68.2442 41.8721 69.1265 45.4014 66.8913 45.3426C65.3031 45.2838 63.8914 44.8132 62.362 45.4015C62.1267 45.4603 62.0091 45.6367 61.8915 45.7544C61.6562 45.8132 61.4209 45.9897 61.1856 46.2249C59.5974 48.5778 61.1856 50.166 63.4796 50.9307C64.8914 51.4012 66.4796 51.5777 67.8325 52.1659C69.7736 53.0483 67.4795 52.3424 67.1266 53.6953C66.3619 56.4599 67.1266 59.5186 67.3618 62.2832C67.656 66.0478 67.3031 69.93 67.2442 73.6358C67.1266 77.4592 67.0677 81.2826 67.0677 85.1648C67.0677 86.5765 66.8913 88.1058 67.1854 89.4587C67.3619 90.2822 68.1854 92.2234 67.4207 92.8704C66.8913 93.341 66.9501 93.9292 67.303 94.341C67.303 94.4586 67.3619 94.5174 67.4207 94.6351C69.1853 98.282 67.7148 102.635 70.597 105.87C72.8911 108.458 78.0085 108.576 81.0084 107.34C84.0083 106.105 84.8319 102.811 85.1848 99.929C85.3024 98.929 85.2436 97.9879 85.0671 96.9879C84.8907 95.6938 84.126 96.2232 84.8318 95.2821C85.8906 93.9292 85.773 78.5768 85.6554 72.8123C85.5965 67.636 85.0671 62.342 84.7142 57.1658C84.5965 55.4599 84.3025 53.5776 83.3025 52.1659C83.2437 52.0483 83.1848 51.9895 83.0672 51.8718C84.0083 50.9895 86.0671 50.8718 86.8318 50.7542C88.4788 50.4601 89.9493 49.7542 90.3022 48.519C92.5375 49.519 94.8315 49.4601 97.5961 48.9307C99.7137 48.519 101.478 49.8131 103.596 49.5778C104.125 49.5189 104.596 49.2837 105.008 48.9307C105.949 48.2249 107.125 49.0484 108.066 49.2249C109.596 49.519 110.596 47.872 112.125 48.4602C114.243 49.2249 116.125 48.8719 118.184 48.3425C119.301 49.9895 120.654 51.0483 122.536 51.1071C122.536 52.46 122.536 53.5188 123.301 54.9305C124.36 56.9893 126.183 58.8716 127.654 60.5774C131.771 65.2243 135.595 70.0476 139.948 74.4593C140.006 74.5181 140.065 74.5769 140.183 74.6357C140.242 74.6946 140.242 74.7534 140.301 74.7534C144.712 79.9885 149.947 84.6942 155.065 89.1646C158.594 92.2822 163.006 98.1055 168.417 97.1055C171.535 96.5173 174.241 94.8115 177.24 93.8703C181.064 92.6351 184.828 91.2822 188.593 89.8117C189.946 89.2823 191.828 88.047 193.24 88.6353C194.005 88.9294 194.593 88.8117 195.357 88.6353C197.651 88.1059 200.004 86.4589 201.592 84.8119C202.592 83.7531 202.534 82.459 203.887 81.5767C204.592 81.1649 205.239 80.5767 205.534 79.812C206.298 77.2239 205.769 74.3416 205.181 71.577ZM5.30517 17.7554C5.18753 17.7554 5.06989 17.7553 5.01106 17.8142C4.95224 17.7553 4.89344 17.6965 4.7758 17.6377C4.42287 17.4024 4.12874 17.1083 3.83463 16.8142C4.77578 16.8142 6.77572 16.7554 9.36387 16.6966C9.59916 16.873 9.77562 17.1083 9.95208 17.3436C10.0697 17.4612 10.1286 17.6377 10.1874 17.7554C8.5992 17.7554 6.95217 17.7554 5.30517 17.7554ZM11.4814 17.6965C11.4226 17.4024 11.305 17.1671 11.1285 16.873C11.0697 16.7554 11.0109 16.6966 10.8932 16.5789C11.6579 16.5789 12.4226 16.5201 13.2461 16.5201C13.4225 16.6965 13.5402 16.8142 13.6578 16.9907C13.8343 17.1672 13.8931 17.4024 14.0108 17.6377C13.1285 17.6965 12.3049 17.6965 11.4814 17.6965ZM15.1872 17.6965C15.0696 17.2848 14.9519 16.9318 14.7166 16.5201C15.4225 16.5201 16.1283 16.4613 16.8342 16.4613C17.0107 16.6377 17.1871 16.7554 17.3636 16.873C17.6577 17.1083 17.8342 17.3436 18.0106 17.6377C17.0695 17.6377 16.1284 17.6377 15.1872 17.6965ZM19.3047 17.5789C19.1283 17.1672 18.8341 16.7554 18.54 16.4025C19.2459 16.4025 19.8929 16.3436 20.5988 16.3436C20.9517 16.5789 21.187 16.9907 21.4223 17.226C21.4811 17.3436 21.5988 17.4613 21.6576 17.5789C20.8929 17.5789 20.1282 17.5789 19.3047 17.5789ZM23.0693 17.5201C22.834 17.1083 22.5399 16.6377 22.2458 16.2848C22.7752 16.2848 23.3634 16.226 23.8928 16.226C24.3045 16.5789 24.6574 17.0495 25.0104 17.5201C24.3045 17.5201 23.6575 17.5201 23.0693 17.5201ZM26.3045 17.4613C26.0692 16.9907 25.7751 16.5789 25.4221 16.1672C26.2456 16.1672 27.1279 16.1084 27.9514 16.1084C28.3632 16.4613 28.7161 16.9319 28.9514 17.4613C28.0691 17.4613 27.1868 17.4613 26.3045 17.4613ZM46.7743 17.4613C41.2451 17.3436 35.7747 17.4024 30.2455 17.4613C30.069 16.9907 29.8338 16.5201 29.4808 16.1084C36.9512 15.8731 43.3627 15.6966 44.3627 15.8143C45.1273 15.8731 46.0096 15.8731 46.7743 15.6966C46.7743 16.2848 46.7743 16.9318 46.8332 17.5201C46.8332 17.4612 46.7743 17.4613 46.7743 17.4613ZM180.593 25.9315C184.828 30.6372 187.181 36.8135 189.887 42.4604C192.946 48.9307 195.946 55.4599 198.946 61.9303C200.357 64.9302 201.71 67.9889 202.651 71.1653C202.769 71.5182 202.828 71.8711 202.945 72.224C201.24 72.8123 198.887 72.0476 197.416 71.5182C194.475 70.4594 192.828 67.636 191.769 64.8714C189.711 59.5186 187.181 54.3423 185.24 48.9307C185.593 48.6955 185.887 48.4602 186.181 48.2249C189.122 45.5779 188.005 41.7545 184.946 39.8134C183.475 38.8723 181.946 38.6958 180.534 39.0487C180.534 38.9899 175.946 30.4608 173.299 26.5197C172.123 24.6963 170.947 22.8728 169.652 21.167C168.182 19.2847 164.829 17.2848 164.947 14.6378V14.579C166.123 13.3437 169.652 13.8143 171.005 13.8731C172.535 13.9319 174.005 14.1084 175.476 14.2261C174.593 18.873 177.652 22.6963 180.593 25.9315ZM185.122 47.6367C183.358 48.9896 180.711 49.5778 178.534 49.519C175.711 49.4013 173.77 46.1073 175.123 43.7545C175.946 42.5192 179.593 39.8134 182.887 40.3428C186.475 40.931 188.181 45.3426 185.122 47.6367ZM78.832 17.6965C78.7732 17.6965 78.7144 17.6377 78.5968 17.6377C75.9498 17.8142 73.3616 17.8142 70.7147 17.8142C70.8323 16.0495 70.8912 14.2849 70.7735 12.4614C70.7735 12.1673 70.7147 11.932 70.7147 11.6968C70.7147 11.6968 70.7735 11.6967 70.7735 11.6379C72.8911 10.0497 76.0086 9.69679 78.0674 11.5203C78.185 11.6379 78.3027 11.6968 78.4791 11.6968C78.5379 13.7555 78.7144 15.7554 78.832 17.6965ZM72.0088 5.04989C73.5381 4.93225 76.538 4.81461 78.0674 5.46165C78.0674 5.81458 78.0674 6.10869 78.1262 6.46162C78.0674 6.63809 78.0674 6.75572 78.1262 6.93219C78.185 8.10862 78.2439 9.22624 78.3027 10.4027C76.0675 8.81449 72.9499 8.93213 70.6559 10.4027C70.6559 9.16742 70.7735 7.99097 70.5382 6.81454C71.0088 6.10868 70.6559 5.22636 72.0088 5.04989ZM70.4206 43.578C70.4794 42.4015 70.4206 41.4016 70.95 40.3428C71.3617 39.5781 71.8323 38.8722 71.8323 37.9899C71.9499 31.9901 70.5382 26.0492 70.5382 26.0492C70.5382 26.0492 70.1265 21.5199 70.597 18.9906C73.244 18.9906 78.7732 18.7553 78.832 18.6965C78.8909 20.52 79.0673 22.3434 78.832 24.1669C77.4203 36.1665 79.8908 39.5781 80.3026 40.1663C81.1261 41.8722 80.185 44.0486 81.1261 45.8132C77.3615 46.0485 73.5969 46.1073 69.8324 46.1073C70.3029 45.4603 70.4206 44.5779 70.4206 43.578ZM79.3026 7.22629C88.5376 6.99101 125.595 6.93218 135.007 7.10864C135.007 7.10864 135.124 7.69689 135.124 7.87335C135.183 8.69685 90.714 8.28508 79.3615 8.28508C79.3026 7.99097 79.3026 7.63805 79.3026 7.22629ZM61.8915 26.2845C61.8915 26.9315 56.5975 26.8727 55.8917 26.8727C54.3035 26.8727 53.3624 26.6962 52.1271 25.5198C51.0095 24.461 50.2448 23.9316 48.9507 23.1669C48.8919 23.1081 48.5978 22.9904 48.539 22.9904C48.3625 22.2258 48.0096 15.6378 48.0684 15.1084C48.1272 15.0496 48.2449 14.9908 48.3037 14.9319C48.7155 14.5202 48.8919 14.0496 49.0096 13.5202C49.1272 12.8732 50.5977 12.8143 51.0683 12.6967C52.1271 12.4026 52.7741 11.5791 52.7741 10.4615C54.127 10.3438 62.2444 9.75563 62.1856 12.0497C62.0679 14.5202 61.8915 26.108 61.8915 26.2845ZM30.1278 9.22624C28.9514 9.1086 28.3044 9.10858 28.1279 8.10862C33.0101 8.10862 68.5971 7.63805 69.4794 7.34395C69.5383 8.0498 69.5382 8.75565 69.5382 9.4615C68.8912 9.10858 63.8326 8.75566 62.5973 9.4027C61.5385 8.8733 31.4807 9.34388 30.1278 9.22624ZM69.1265 25.8139C67.303 25.8727 64.1855 26.4021 63.2443 25.0492C63.3032 22.5199 63.4208 10.8732 63.3032 10.3438C64.362 9.93208 69.4794 9.46153 69.5971 12.4614C69.6559 14.0496 69.8324 15.7554 69.5971 17.3436C69.1853 20.1082 69.1265 25.8139 69.1265 25.8139ZM79.4203 105.399C78.0085 105.988 76.1263 105.811 74.6557 105.576C72.0088 105.105 70.8911 103.164 70.597 100.694C70.3617 98.9878 70.3618 97.6349 70.0677 96.2232C74.1263 96.3409 78.3027 97.5173 82.2437 96.3997C82.7731 99.4584 82.8907 103.929 79.4203 105.399ZM84.5966 48.7543C83.0672 49.1072 81.832 49.7542 80.832 50.9307C80.3614 51.46 80.0673 52.2248 80.4791 52.8718C81.6555 54.9305 82.0672 56.4011 82.1849 58.8716C82.4202 63.8714 82.9496 68.8712 83.0672 73.871C83.126 79.4003 83.2437 93.4586 82.7143 93.8115C82.2437 94.1056 82.1261 94.5762 82.1261 95.1056C78.1262 96.2821 73.8911 94.988 69.7736 94.9292C69.6559 94.5762 69.5382 94.2821 69.4206 93.9292C70.0676 92.8116 69.7736 91.4587 69.4794 90.1058C68.7148 86.6941 69.1853 82.8707 69.2441 79.4003C69.303 75.5769 69.4206 71.7535 69.4794 67.9301C69.5383 63.9302 69.1265 60.1068 68.95 56.107C68.95 55.5776 69.1265 54.5776 69.1265 54.5776C69.1265 54.5776 70.5382 54.107 70.7147 53.4012C71.0088 52.3424 70.4794 51.2836 69.6559 50.6365C68.6559 49.813 67.2442 49.4601 66.0678 49.166C65.0678 48.9307 62.4209 48.6955 62.8914 47.5779C64.7737 46.9308 87.8906 46.0485 87.7729 47.7543C87.6553 48.7543 85.0671 48.6366 84.5966 48.7543ZM82.9495 43.1662C83.7142 43.8721 84.4789 44.5191 85.3024 45.1662C84.6554 45.225 83.8319 45.4015 83.4202 45.1073C82.9496 44.6956 82.8907 43.9309 82.9495 43.1662ZM89.067 45.225C86.773 43.3427 81.3026 39.1664 80.2438 36.5782C78.9497 32.1078 79.9497 27.108 80.1261 22.5199C80.1849 21.5199 80.1849 20.4611 80.1261 19.4612C83.1848 28.9314 87.4788 37.9311 92.0081 46.8132C91.0081 46.519 90.0081 46.0485 89.067 45.225ZM201.592 80.1649C201.063 80.6355 200.593 81.1061 200.298 81.8119C199.593 83.5178 198.357 84.4001 196.887 85.2824C195.593 86.0471 194.593 86.5765 193.122 86.2235C192.063 85.9883 191.24 86.1059 190.24 86.4589C187.299 87.4588 184.417 88.8705 181.476 89.8705C178.476 90.9293 175.417 91.8116 172.535 93.1057C169.005 94.6939 166.535 95.2233 162.947 93.2233C160.535 91.8704 155.535 85.5765 153.535 82.8708C151.477 80.0473 148.712 77.7533 146.712 74.871C142.536 68.8124 138.124 63.0479 133.477 57.3422C128.595 51.4012 124.654 44.9309 120.125 38.7546C117.772 35.5195 115.419 32.4019 113.478 28.8726C112.537 27.1668 109.949 24.7551 110.125 22.6963C110.184 21.9317 109.007 21.9317 108.949 22.6963C108.772 24.461 110.36 26.2257 111.243 27.5786C113.125 30.3432 114.419 33.4607 116.537 36.0488C121.595 42.3427 125.654 49.3425 130.654 55.6952C135.771 62.1656 141.3 68.3418 145.712 75.4004C147.594 78.4003 150.418 80.6355 152.535 83.4001C152.947 83.9295 153.359 84.4589 153.712 85.0471C149.477 81.2825 145.3 77.3415 141.653 73.0476C141.595 72.9887 141.477 72.8711 141.418 72.8123C141.418 72.7534 141.359 72.7534 141.3 72.6946C137.889 69.283 134.771 65.5772 131.654 61.9303C130.124 60.1656 128.595 58.401 127.066 56.6363C126.301 55.754 125.654 54.6952 125.007 53.6953C124.183 52.4012 124.595 51.1659 124.595 49.7542C124.595 48.9307 123.831 48.4602 123.125 48.6366C121.301 48.9896 120.536 47.9896 119.654 46.6367C119.36 46.1661 118.889 46.0485 118.478 46.1073C118.242 45.9309 117.89 45.8132 117.537 45.9308C116.007 46.3426 114.89 46.6955 113.243 46.4014C112.596 46.2838 112.184 45.8132 111.537 45.7544C110.243 45.6367 108.537 47.0485 107.478 46.5779C106.419 46.1073 105.713 45.9897 104.596 46.1661C104.243 46.2249 103.89 46.5191 103.596 46.7543C102.478 47.6367 101.008 46.8132 99.8313 46.4602C98.5372 46.0485 97.2432 46.4603 95.9491 46.6955C95.1256 46.872 94.3021 46.9308 93.5374 46.872C88.2435 36.4606 83.1848 25.8139 80.0085 14.5202C80.0085 14.4614 79.9497 14.4025 79.9497 14.3437C79.832 12.6967 79.6555 10.9909 79.5379 9.34389C92.361 9.34389 136.007 8.69683 136.007 8.69683C136.007 8.69683 135.595 6.28517 135.418 6.28517C125.948 6.1087 88.5964 5.63812 79.3615 5.87341C79.3615 5.75576 79.3615 5.57929 79.3615 5.46165C79.6556 5.34401 79.8909 5.10874 80.0673 4.81463C81.8908 3.81466 83.5966 3.75584 85.6554 4.52052C87.0671 5.04991 88.4788 4.04995 89.5376 3.34409C90.9493 2.40295 92.8904 3.93231 94.3609 3.93231C96.4785 3.99113 97.949 2.8147 100.125 3.04998C100.302 3.22645 100.537 3.28525 100.831 3.28525C103.596 3.22643 106.066 2.10883 108.89 2.22647C112.478 2.40293 116.066 1.9912 119.595 2.57942C125.948 3.69703 132.242 5.34401 138.771 5.46165H138.83C138.889 5.46165 138.889 5.46165 138.948 5.46165H139.006C139.006 5.46165 139.006 5.46165 139.065 5.46165C140.889 5.46165 142.712 5.40282 144.536 5.344C145.947 5.28518 149.536 4.7558 150.477 6.16752C151.477 7.52041 151.83 8.63802 153.653 8.81448C154.359 8.8733 154.771 8.22627 154.829 7.63805C154.947 6.16752 157.947 6.75572 158.594 7.22629C159.3 7.81451 159.947 8.46155 160.712 8.99094C161.417 9.46151 162.182 8.93211 162.417 8.28508C163.417 5.75575 167.241 11.1085 169.358 9.4027C170.888 8.16745 176.24 10.6379 176.064 12.8143C173.711 12.6967 171.358 12.4026 168.947 12.4026H168.77C168.711 12.3438 168.652 12.3438 168.535 12.3438C160.123 10.9321 151.712 12.932 143.242 12.4026C137.124 12.0497 129.771 10.5791 124.36 14.2849C123.713 14.6966 124.301 15.7554 124.948 15.2848C130.36 11.5791 137.889 13.2261 144.006 13.579C150.947 13.9908 157.77 12.6379 164.711 13.0496C164.3 13.2849 163.947 13.6378 163.711 14.1084C163.594 14.3437 163.653 14.6378 163.829 14.8143C163.888 15.9907 164.476 16.9319 165.241 17.873C166.888 19.9318 168.829 21.5788 170.358 23.7552C173.593 28.5197 179.534 39.0487 179.593 39.1076C178.064 39.6958 175.946 41.1663 174.888 41.931C171.946 43.9897 173.593 48.1072 176.417 49.8131C178.476 51.0483 181.887 50.4601 184.299 49.2837C185.593 52.9306 187.181 56.4599 188.652 59.9892C190.063 63.2832 191.063 66.8713 193.299 69.7535C195.063 72.0476 199.945 74.2828 203.239 73.224C203.416 74.224 203.534 75.2239 203.592 76.2239C203.592 78.3415 202.828 78.9885 201.592 80.1649Z" fill="#2AC0A5"/>
<path d="M100.831 14.1085C104.125 17.4614 100.772 24.9317 96.1842 25.167C93.1843 25.3434 87.4198 23.5788 86.8316 20.1083C87.4198 20.4024 88.1845 20.5201 89.1256 20.5201C91.0667 24.3435 97.9489 25.1082 99.8312 20.8142C99.8312 20.8142 99.8312 20.8142 99.8312 20.7554C100.008 20.6965 100.125 20.6965 100.302 20.6377C102.125 20.1671 102.419 16.8143 100.596 16.1085C99.9488 15.8732 99.2429 15.7555 98.4783 15.7555C98.4783 15.6967 98.4783 15.6967 98.4195 15.6379C96.8901 12.5792 90.4786 12.2851 89.7727 16.0496C88.5374 16.0496 87.361 16.0497 86.1258 16.1085C85.8905 16.1085 85.714 16.2261 85.6552 16.4026C85.4787 16.4614 85.3611 16.6379 85.3611 16.8732C85.3611 17.6967 85.4787 18.3437 85.6552 18.8731C85.5964 18.9319 85.5375 19.0495 85.5375 19.1672C85.067 24.0494 93.1843 27.2257 97.1254 26.2257C102.066 24.9905 105.36 17.1672 101.596 13.285C101.125 12.7556 100.302 13.5791 100.831 14.1085ZM90.4786 20.5201C93.0079 20.5789 95.7725 21.1671 98.3606 20.9907C96.5372 23.3435 92.1844 22.9318 90.4786 20.5201ZM97.1842 15.8732C96.6548 15.932 96.1254 15.932 95.596 15.9908C94.0666 16.0497 92.5373 16.1085 91.0668 16.1673C91.5962 13.8144 95.7725 14.285 97.1842 15.8732ZM99.9488 17.1673C101.008 17.3437 100.949 18.8143 99.5959 19.6966C99.0665 19.7554 89.008 19.1672 88.9492 19.4025C88.9492 19.4025 88.9492 19.4025 88.8904 19.4025C87.0669 19.4613 86.6551 18.7554 86.5963 17.3437C89.5962 17.2849 99.3606 17.0496 99.9488 17.1673Z" fill="#2AC0A5"/>
<path d="M117.477 14.7555C117.301 15.1085 117.419 27.3434 118.713 33.049C119.477 36.343 121.889 34.696 122.477 32.2255C122.948 29.9903 122.595 19.7554 122.007 17.226C121.477 15.2261 118.889 11.4027 117.477 14.7555ZM121.301 31.8726C121.301 32.6373 120.83 33.049 120.007 33.2255C119.772 32.6961 119.713 32.1667 119.654 31.6373C119.36 29.9315 119.183 28.1669 119.007 26.461C118.654 22.6376 118.948 18.6966 118.948 14.8732C118.948 14.8144 118.948 14.8144 118.948 14.8144C119.889 14.4026 120.889 18.226 120.948 18.4025C121.066 19.9907 120.948 21.6377 121.066 23.2258C121.301 26.0493 121.713 28.9904 121.301 31.8726Z" fill="#2AC0A5"/>
<path d="M179.593 41.4605C175.652 41.637 174.77 47.872 178.77 48.8132C180.887 49.2838 183.358 48.1073 183.534 45.7545C183.652 43.4016 181.887 41.4017 179.593 41.4605ZM179.064 47.6956C176.24 47.225 176.946 42.1075 180.064 42.7546C181.417 43.1075 182.358 44.1663 182.358 45.578C182.358 47.2838 180.534 47.9308 179.064 47.6956Z" fill="#2AC0A5"/>
<path d="M180.593 58.1658C179.181 55.7541 177.123 54.8129 174.417 55.2835H174.358C175.417 53.1659 173.24 49.1661 172.476 47.5779C171.652 45.7544 170.77 43.5192 169.417 41.9899C167.946 40.2252 166.417 39.9311 164.594 39.9311C168.241 38.2253 171.476 35.6959 174.064 32.1078C174.534 31.5196 173.476 30.9314 173.064 31.5196C168.652 37.5782 162.005 40.2252 153.77 42.0487C152.359 41.4605 150.712 41.5781 149.241 41.6958C145.418 42.0487 141.889 44.1074 136.712 43.9898C136.536 43.6957 136.595 43.8133 136.653 43.931C132.712 36.8136 128.065 30.5196 126.007 22.5199C125.83 21.8141 124.654 22.1082 124.889 22.814C127.007 31.1079 136.595 45.8132 136.595 45.8721C140.594 52.8718 160.594 81.1061 162.888 83.8119C166.594 88.2235 171.24 87.2824 176.123 85.8707C181.358 84.3413 185.005 81.6944 184.828 75.871C184.769 72.8711 183.828 69.8712 183.005 67.0478C182.181 64.2832 182.005 60.6363 180.593 58.1658ZM155.241 42.6369C157.594 42.284 159.829 41.7546 161.888 40.9899C162.005 41.1075 162.123 41.1663 162.3 41.1663C165.299 41.0487 167.652 41.2252 169.358 44.1662C169.946 45.1662 170.417 46.1662 170.946 47.1661C171.535 48.3426 174.77 54.2247 172.887 55.2835C172.77 55.3423 172.711 55.46 172.652 55.5188C171.535 55.5188 170.652 55.1658 169.77 53.8718C169.005 52.7542 168.476 51.4013 167.946 50.166C167.005 48.0485 166.241 45.8721 164.594 44.2251C162.476 42.1075 160.064 42.8134 157.476 43.1663C156.653 43.2839 155.888 42.9898 155.123 42.6957C155.123 42.6369 155.182 42.6369 155.241 42.6369ZM181.652 80.1062C180.358 82.3414 177.005 83.1649 174.77 83.8119C172.123 84.5766 169.476 85.5177 166.829 84.1648C164.417 82.9296 142.477 51.6954 139.359 46.0485C141.536 45.9309 143.594 45.3427 145.712 44.8133C149.006 43.931 151.476 43.7545 154.653 44.9897C157.064 45.9309 159.123 44.6368 161.535 45.0486C164.005 45.4603 165.064 49.4013 165.947 51.3425C167.417 54.7541 168.946 58.2246 173.123 57.8717C175.476 57.6952 177.652 57.0481 178.77 59.8716C179.299 61.1068 179.417 62.5774 179.652 63.9303C180.181 66.6361 181.181 69.283 181.828 71.9888C182.417 74.5182 183.064 77.6945 181.652 80.1062Z" fill="#2AC0A5"/>
<path d="M136.594 43.8722C136.594 43.8722 136.595 43.9299 136.652 43.9299C136.652 43.9299 136.652 43.9299 136.594 43.8722Z" fill="#2AC0A5"/>
<path d="M154.182 24.1081C154.359 23.167 156.829 23.3434 158.123 23.5199C158.006 26.6374 161.182 25.6963 163.711 25.6375C164.829 25.6375 168.594 25.6963 167.711 23.6375C166.653 21.2259 161.535 22.6964 159.653 22.4611C158.065 22.2846 153.535 21.4023 153.065 23.7552C152.888 24.5787 154.006 24.8728 154.182 24.1081ZM159.241 23.6375C160.77 23.7552 162.241 23.6375 163.77 23.5787C164.358 23.5787 164.888 23.5787 165.476 23.6375C165.947 23.6375 166.3 23.814 166.417 24.2258C165.711 24.461 164.829 24.461 164.064 24.5199C163.358 24.5199 162.594 24.5199 161.888 24.5199H160.006C159.065 24.461 159.182 24.2846 159.241 23.6375Z" fill="#2AC0A5"/>
<path d="M154.477 26.9314C153.83 27.3432 154.712 28.2844 155.3 27.755C156.006 27.1079 157.065 27.0491 158.123 27.0491C157.712 29.4608 160.006 28.9902 162.006 28.9902C164.241 29.049 170.005 29.6961 169.711 27.5785C169.417 25.108 155.594 26.1668 154.477 26.9314ZM167.829 27.9314C166.77 27.9314 158.947 28.8137 159.3 27.2256V27.1667C159.535 27.1667 165.829 27.2256 166.123 27.2256C167.829 27.1667 169.064 27.4608 167.829 27.9314Z" fill="#2AC0A5"/>
<path d="M156.123 30.9903C156.77 30.9903 157.417 30.9903 158.064 30.9903C158.006 32.5197 159.417 32.8138 161.006 32.8726C164.241 32.9903 168.535 33.5197 171.535 31.9903C172.946 31.2845 171.946 29.6375 170.711 29.6375C165.888 29.6375 161.006 29.8139 156.182 29.8139C155.417 29.8139 155.417 30.9903 156.123 30.9903ZM169.711 30.8727C171.182 30.755 169.123 31.5197 168.888 31.5197C167.711 31.6374 166.535 31.8138 165.299 31.8138C164.888 31.8138 159.888 32.0491 159.359 31.0491C162.77 31.108 166.299 31.2256 169.711 30.8727Z" fill="#2AC0A5"/>
</svg>
