<svg width="118" height="141" viewBox="0 0 118 141" fill="none" xmlns="http://www.w3.org/2000/svg">
<path d="M117.54 29.1041C117.305 23.9278 115.775 18.2221 110.423 16.5751C110.599 15.0458 110.717 13.5164 110.658 11.9871C110.658 9.45774 110.364 6.16374 109.246 3.86971C108.364 2.10506 105.952 1.6933 104.188 1.3992C100.423 0.752159 96.5407 0.634502 92.7761 0.57568C84.5999 0.458037 76.4238 0.810995 68.2476 1.04628C64.1889 1.16392 60.1302 1.28157 56.0715 1.04628C52.0716 0.810995 48.1306 0.340416 44.1896 0.340416C40.1309 0.340416 36.131 0.928617 32.0723 0.987438C28.0137 1.10508 24.0726 0.693338 20.0728 0.222766C16.5435 -0.188985 13.7788 0.516873 10.4848 1.3992C8.30845 1.98741 6.66146 0.869802 5.07328 2.86973C2.54395 3.45795 2.13219 6.57548 1.8969 8.92834C1.83808 9.45773 2.54395 10.046 2.01455 10.5165C1.66162 10.8695 1.36751 11.34 1.36751 11.8694C1.24987 13.2811 1.36751 14.6928 1.36751 16.1634C1.36751 17.7516 0.779297 19.2809 0.779297 20.7515C0.779297 21.3985 0.779297 22.0455 1.0734 22.6337C1.54398 23.4572 1.83809 22.869 1.48516 23.869C1.01459 25.1043 1.36752 27.6924 2.01455 28.81C4.13213 32.2805 8.01435 33.4569 11.8377 33.9275C14.1318 34.2216 16.4846 33.8686 18.7787 33.8098C22.1315 33.6922 25.4255 33.751 28.7783 33.8098C35.6016 33.8686 42.4249 34.0451 49.2482 34.2216C55.1304 34.398 60.9537 34.4569 66.777 34.8098C71.9533 35.1039 77.2472 35.3392 82.3059 34.0451C82.5412 34.1628 82.8353 34.2216 83.1882 34.1039C85.5999 33.3393 89.0704 34.5157 91.5409 34.8098C94.5996 35.1627 98.6583 35.751 101.717 35.0451C106.482 33.9863 108.305 28.5159 109.246 23.9867C111.128 27.2807 110.305 32.1628 110.54 35.751C110.717 38.1038 110.775 40.5155 110.305 42.8684C109.776 45.5153 107.658 46.6918 105.305 47.5153C101.188 49.0446 96.6583 49.6328 92.482 50.9269C87.0116 52.6327 81.6589 54.3385 76.0708 55.515C73.4239 56.1032 71.071 57.0443 68.6005 58.0443C66.6594 58.809 66.0123 59.7501 65.13 61.6324C64.3065 63.3971 61.6007 62.5736 60.0714 63.4559C58.7773 64.2206 58.3655 66.2793 58.1303 67.5734C57.3068 71.9262 58.3656 76.8083 58.3067 81.2788C58.3067 87.3962 57.4832 93.4548 58.1303 99.5723C58.1303 99.8076 58.2479 99.9252 58.3067 100.102C58.3067 109.631 58.8361 119.277 57.6009 128.689C57.1891 131.689 56.895 134.983 58.7185 137.571C60.3067 139.806 63.7771 140.336 66.3064 140.512C68.8358 140.688 71.8357 140.159 73.5415 138.1C75.4238 135.865 75.1885 131.924 75.1885 129.218C75.1885 118.748 74.365 108.219 75.1885 97.7488C75.1885 97.4547 75.1297 97.2194 75.012 97.0429C75.012 93.1607 75.0709 89.3373 75.2473 85.5139C75.4826 81.4552 76.2473 77.4554 76.3649 73.3967C76.4237 71.0439 76.7767 67.2793 75.7179 65.0441C75.012 63.4559 73.9533 63.1029 72.718 62.9265C75.5414 61.2795 79.0707 60.6913 82.1882 60.103C87.3645 59.1031 92.5997 57.6325 97.5995 55.9855C102.246 54.4562 106.952 53.0445 111.54 51.3387C113.834 50.5152 115.54 49.1623 116.481 46.927C117.54 44.3977 117.069 41.1625 117.246 38.4567C117.481 35.398 117.716 32.2805 117.54 29.1041ZM107.599 19.928C107.599 20.0456 107.54 20.1632 107.54 20.2809C107.482 20.2221 107.364 20.1633 107.246 20.1633H106.305C105.54 20.1633 105.54 21.3397 106.305 21.3397H107.246C107.305 21.3397 107.364 21.3397 107.423 21.2809C107.305 22.1632 107.129 23.1043 106.893 23.9867C106.423 24.1631 105.893 24.3396 105.482 24.6337C104.835 25.0454 105.423 26.0454 106.07 25.6337C106.246 25.516 106.364 25.4572 106.54 25.3984C106.364 25.9278 106.246 26.4572 106.011 26.9865C105.011 27.4571 104.011 27.9277 103.07 28.5159C102.423 28.9276 103.011 29.9276 103.658 29.5159C104.246 29.1629 104.835 28.81 105.423 28.5159C105.364 28.5747 105.364 28.6924 105.305 28.7512C104.717 30.1629 104.011 31.104 103.129 31.6923C103.011 31.2217 102.893 30.7511 102.599 30.2805C102.188 29.6335 101.188 30.2217 101.599 30.8687C101.893 31.2805 102.011 31.7511 102.07 32.2805C100.952 32.6922 99.6582 32.8099 98.0701 32.751C97.8936 32.751 97.6583 32.751 97.4818 32.751C96.9524 32.3981 96.7172 31.8687 97.1289 31.2805C97.5995 30.6923 96.5407 30.1041 96.129 30.6923C95.6584 31.3393 95.6584 32.0452 95.9525 32.6922C95.5996 32.6922 95.2466 32.6334 94.9525 32.6334C94.5996 32.3393 94.5996 31.8687 94.6584 31.3393C94.7761 30.5747 93.6584 30.2806 93.5408 31.0452C93.4231 31.5746 93.4232 32.104 93.5996 32.5746C93.2467 32.5746 92.8349 32.5158 92.482 32.5158C93.0702 31.457 93.3055 30.2217 93.2467 28.9865C93.1879 28.2218 92.0114 28.2218 92.0703 28.9865C92.1291 30.1629 91.835 31.3982 91.1879 32.3981C90.9526 32.3981 90.7762 32.3393 90.5409 32.3393C90.5409 32.3393 90.5409 32.2805 90.4821 32.2805C90.188 31.9864 90.1292 31.457 90.1292 31.0452C90.1292 30.2806 88.9527 30.2806 88.9527 31.0452C88.9527 31.457 89.0115 31.8099 89.1292 32.2217C88.9527 32.2217 88.7763 32.1628 88.6586 32.1628C88.3057 32.104 87.8939 32.0452 87.4822 31.9864C87.7175 31.2805 87.8939 30.5746 87.8939 29.81C87.8939 29.0453 86.7175 29.0453 86.7175 29.81C86.7175 30.5158 86.5411 31.2217 86.2469 31.8687C85.5411 31.8099 84.8352 31.7511 84.1293 31.7511C84.1293 31.7511 84.1293 31.7511 84.1293 31.6923C84.0117 31.3982 83.9529 31.0452 83.8352 30.7511C83.5411 29.6923 83.8941 28.5747 84.1882 27.5748C84.4235 26.8689 83.3059 26.516 83.0706 27.2807C82.6588 28.5159 82.3059 29.81 82.7177 31.104C82.7177 31.1629 82.7176 31.1629 82.7765 31.1629V31.2217C82.8353 31.3393 82.8941 31.5158 82.8941 31.6335C81.7177 31.9864 80.4824 32.2216 79.2472 32.4569C79.6589 31.2217 79.7178 29.8688 79.6001 28.5159C79.5413 27.7512 78.3649 27.7512 78.4237 28.5159C78.5413 29.9276 78.4825 31.2805 77.9531 32.6334C76.6002 32.8099 75.1885 32.8687 73.8356 32.9275C74.0121 32.104 73.9532 31.2217 73.9532 30.3982C73.9532 29.6335 72.7768 29.6335 72.7768 30.3982C72.7768 31.2805 72.8945 32.1628 72.6592 32.9863C71.3063 32.9863 69.9534 32.9863 68.6005 32.9275C69.3652 31.8687 69.8946 30.6335 70.071 29.3394C70.1887 28.5747 69.0711 28.2806 68.9534 29.0453C68.7769 30.457 68.1299 31.7511 67.2476 32.8099L67.1888 32.8687C66.8947 32.8687 66.6594 32.8099 66.3653 32.8099C66.0123 31.9864 65.8359 31.104 66.0123 30.2217C66.13 29.457 65.0124 29.1629 64.8947 29.9276C64.7771 30.9276 64.8359 31.8099 65.13 32.751C64.13 32.6922 63.1301 32.6334 62.1301 32.5746C61.7184 31.8687 61.3655 31.1629 61.2478 30.3394C61.1302 29.5747 59.9537 29.9276 60.1302 30.6335C60.2478 31.2805 60.4831 31.8687 60.7772 32.4569C60.2478 32.3981 59.7773 32.3981 59.2479 32.3393C59.2479 31.9864 59.3067 31.6335 59.4243 31.3393C59.6596 30.6335 58.4832 30.2806 58.3067 31.0452C58.1891 31.457 58.1303 31.8687 58.1303 32.2805C57.6597 32.2805 57.1891 32.2217 56.7185 32.2217C56.7185 31.3982 56.7186 30.5747 56.5421 29.7512C56.3656 28.9865 55.248 29.3394 55.4245 30.0453C55.6009 30.7511 55.6009 31.457 55.6009 32.2217C55.4833 32.2217 55.3657 32.2217 55.248 32.2217C53.8951 32.2217 52.5422 32.1628 51.1893 32.1628C51.954 31.0452 52.7187 30.0453 52.7775 28.6335C52.7775 27.8689 51.6011 27.8689 51.6011 28.6335C51.5422 30.0453 50.5423 31.0452 49.7776 32.1628C48.2483 32.1628 46.7189 32.104 45.1895 32.0452V31.5746C45.1895 30.8099 44.0131 30.8099 44.0131 31.5746V32.0452C43.6602 32.0452 43.3072 32.0452 42.8955 32.0452C42.9543 31.7511 42.9543 31.3982 42.9543 31.0452C42.9543 30.2806 41.7779 30.2806 41.7779 31.0452C41.7779 31.3982 41.7779 31.6923 41.7191 31.9864C40.8367 31.9864 39.8956 31.9276 39.0133 31.9276C38.2486 30.457 37.7192 28.9276 37.8368 27.163C37.8957 26.3983 36.7192 26.3983 36.6604 27.163C36.5428 28.8688 37.0134 30.3982 37.7192 31.8687C36.8369 31.8687 35.9546 31.8099 35.0722 31.8099C35.1899 31.3393 35.1899 30.8099 35.0722 30.3394C34.8958 29.5747 33.7782 29.9276 33.9546 30.6335C34.0723 31.0452 34.0135 31.457 33.837 31.8099C33.2488 31.8099 32.7194 31.8099 32.1312 31.7511C32.1312 30.6923 32.6606 29.6923 33.1899 28.7512C33.5429 28.1042 32.5429 27.4571 32.19 28.163C31.6018 29.2806 31.0135 30.457 31.0135 31.7511C30.4841 31.7511 29.9548 31.7511 29.4254 31.7511V31.457C29.4254 30.6923 28.2489 30.6923 28.2489 31.457V31.7511C28.0725 31.7511 27.896 31.7511 27.7784 31.7511C27.7195 30.9276 27.4843 30.1629 26.7784 29.6923C26.5431 29.5159 26.1314 29.6335 25.9549 29.9276C25.7784 30.2217 25.8961 30.5158 26.1902 30.7511C26.4843 30.9864 26.6019 31.3982 26.6019 31.8099C25.8373 31.8099 25.0726 31.8099 24.3079 31.8099C24.3667 31.1041 24.5432 30.3982 24.7785 29.6923C25.0726 28.9865 23.8961 28.6924 23.6609 29.3982C23.3667 30.1629 23.1903 30.9864 23.1315 31.8099C22.955 31.8099 22.7785 31.8099 22.6021 31.8099C22.6609 31.6334 22.6021 31.457 22.4256 31.2805C22.1903 31.0452 21.8962 30.7511 21.8374 30.3982C21.8374 29.6335 20.6022 29.6335 20.661 30.3982C20.661 30.9864 20.9551 31.3982 21.308 31.8099C19.4257 31.8687 17.5434 32.0452 15.6611 32.0452C15.72 31.7511 15.8964 31.457 16.1317 31.1629C16.6611 30.6335 15.8376 29.81 15.3082 30.3394C14.8376 30.8099 14.5435 31.3981 14.4259 32.0452C13.8377 32.0452 13.1906 31.9864 12.6024 31.9864V31.1629C12.6024 30.3982 11.426 30.3982 11.426 31.1629V31.8687C11.0142 31.8099 10.6025 31.7511 10.1907 31.6335C9.60252 31.5158 9.01431 31.3393 8.48492 31.1629C8.54374 31.0452 8.60255 30.8688 8.66137 30.7511C8.77902 30.457 8.7202 30.1041 8.42609 29.9276C8.19081 29.7512 7.77906 29.8688 7.60259 30.1629C7.54377 30.3394 7.42613 30.5158 7.36731 30.7511C6.30853 30.2217 5.4262 29.5747 4.72034 28.6335C4.66152 28.5747 4.60269 28.4571 4.54387 28.3983C4.83798 28.5747 5.30856 28.5159 5.36738 28.1042C5.54385 27.1042 6.01441 26.3395 6.66145 25.5748C7.19084 25.0454 6.36734 24.2219 5.83795 24.7513C5.01445 25.5748 4.42624 26.6336 4.19095 27.7512C3.7792 26.5748 4.19094 25.2807 4.24976 24.0455C4.48505 23.8102 4.83798 23.6926 5.13208 23.6926C5.89676 23.6926 5.89676 22.5161 5.13208 22.5161C4.72033 22.5161 4.36741 22.6338 4.01448 22.8102C3.72037 22.0456 3.30862 21.4573 3.42626 20.575C3.77919 18.4574 3.89684 16.634 3.83802 14.4576C3.7792 13.0459 5.24973 11.693 4.95563 10.4577C4.72034 9.39893 3.95567 5.45788 6.19088 5.5167C6.89674 5.5167 7.24967 4.98731 7.30849 4.45792C7.95552 3.86971 9.30842 4.22262 10.0143 4.22262C11.1907 4.28144 12.4848 3.69323 13.5436 3.3403C16.6611 2.28151 20.0728 2.92855 23.2491 3.3403C29.9548 4.22262 36.6016 3.45796 43.2484 3.10503C49.7776 2.7521 56.3068 3.98733 62.8948 3.92851C69.9534 3.86969 77.012 3.69323 84.0117 3.45795C90.7762 3.22266 97.776 2.98738 104.482 4.16381C105.482 4.34028 106.658 4.51673 107.305 5.39905C108.07 6.39902 107.893 8.34015 108.07 9.5754C108.54 12.8694 108.011 16.3399 107.599 19.928ZM74.0709 69.1616C74.365 72.6909 74.0709 76.2201 73.6003 79.6906C72.7768 85.7492 72.7768 91.9255 72.7768 98.0429C72.7768 98.2782 72.8356 98.4547 72.8945 98.6311C72.3651 106.572 72.6592 114.513 72.9533 122.454C73.0709 125.807 73.0121 129.218 72.8356 132.571C72.7768 134.336 72.5415 136.453 70.9534 137.571C69.6593 138.453 67.8358 138.394 66.3653 138.394C63.0124 138.277 60.0714 137.042 59.7184 133.453C59.4832 130.806 60.189 128.042 60.4831 125.395C61.3654 117.101 60.7184 108.454 60.7184 100.16C60.7184 99.8664 60.6596 99.6311 60.4831 99.4546C59.8949 93.4548 60.6596 87.5139 60.7184 81.5141C60.7184 79.0436 60.6596 76.5731 60.4831 74.1025C60.3655 72.3967 59.4243 65.6323 62.3066 65.397C63.0124 65.3382 63.7183 65.3382 64.483 65.2205C65.4241 67.2793 68.2476 66.5734 69.4828 64.9852C69.4828 64.9852 69.4828 64.9852 69.5416 64.9852C70.3651 65.1617 71.1298 65.1617 71.9533 65.1617C74.3062 65.2205 73.9532 67.8675 74.0709 69.1616ZM115.246 32.3393C115.246 34.9274 115.011 37.5156 114.893 40.1037C114.775 42.6331 115.246 45.7506 113.305 47.7505C112.364 48.7505 110.893 49.1623 109.658 49.574C107.423 50.3387 105.129 50.9269 102.893 51.6916C98.5995 53.1621 94.3055 54.5738 89.8939 55.8091C85.894 56.9855 81.8941 57.7502 77.8943 58.6325C74.6591 59.3972 71.3651 60.5148 69.0122 62.9265C68.7769 63.2206 68.6593 63.5735 68.7181 63.9264C68.0711 64.8676 66.3065 65.8087 65.6594 64.6911C65.8947 64.5735 66.13 64.397 66.3064 64.2205C66.8947 63.5735 67.1888 62.9853 67.6005 62.2206C68.3064 60.6325 69.7769 60.2795 71.2475 59.6325C73.9533 58.456 76.8943 57.8678 79.7766 57.2796C82.9529 56.6326 85.9528 55.6326 88.9527 54.6326C93.8349 53.0445 98.7759 51.8092 103.776 50.574C106.952 49.7505 110.952 48.3976 112.187 44.9859C113.717 40.8684 112.834 36.3391 112.775 32.0452C112.717 28.1041 112.893 23.9278 109.893 20.9279L109.834 20.8691C109.952 20.2221 110.07 19.5162 110.128 18.8103C115.128 20.9279 115.305 27.6336 115.246 32.3393Z" fill="#2AC0A5"/>
</svg>
