<svg width="110" height="88" viewBox="0 0 110 88" fill="none" xmlns="http://www.w3.org/2000/svg">
<path d="M109.059 71.0241C107.824 65.3184 100.942 65.142 96.1775 64.142C92.6482 63.3773 89.1189 62.8479 85.5896 62.2597C82.0015 61.6714 78.0605 61.495 74.6488 60.4362C74.7665 58.848 75.3547 57.4951 74.8253 55.7305C74.2371 53.4953 71.4136 51.3777 72.1195 48.966C73.59 44.0838 75.4135 39.437 76.1194 34.3783C76.7076 30.202 76.8252 25.7904 75.1194 21.8493C73.3548 17.7318 69.4137 15.3201 67.2961 11.5556C67.4726 10.5556 67.4726 9.55566 66.7079 8.79098C65.2374 7.32044 62.8257 8.02627 61.1787 6.84984C57.12 3.96759 52.0025 2.26175 47.1204 1.61472C41.297 0.850036 35.4737 0.49715 29.768 1.7324C24.4153 2.85001 18.7684 5.08521 14.1215 7.96747C6.47469 12.7908 1.2396 22.7316 0.827845 31.6137C0.710202 33.8489 1.06312 36.0841 1.59252 38.2605C2.47484 41.8486 2.82776 45.3779 2.9454 49.0837C3.00423 52.1424 2.6513 55.2011 2.6513 58.2598C2.6513 60.9068 3.88655 62.9067 4.71005 65.3772C4.47476 67.3183 5.063 68.6713 6.82764 69.6712C8.82758 70.8477 12.2981 71.9064 14.5921 72.0241C16.1803 72.1417 17.4743 71.3182 18.9449 72.1417C20.2978 72.9064 21.533 72.6711 22.8859 72.1417C24.0035 71.7299 26.0034 73.0829 27.2975 72.9652C27.7093 72.9064 28.0034 72.7299 28.4151 72.5534C29.2386 72.0828 29.7092 73.1416 30.3562 73.3769C31.5915 73.8475 32.415 73.7887 33.6502 73.3181C35.0619 72.7299 36.8854 74.9063 38.3559 74.9652C42.7676 75.2004 47.238 76.965 51.5908 77.7886C55.2377 78.4944 59.2964 80.3767 63.0022 79.2591C66.1785 78.3768 69.0608 75.4945 71.4724 73.3769C71.5313 73.3181 71.5901 73.2593 71.5901 73.2005C71.7666 73.0829 71.943 72.9064 72.1195 72.7299C76.237 73.9652 80.531 74.3769 84.6485 75.3769C88.8248 76.3768 92.9423 77.318 97.2363 77.3768C97.2363 78.6709 97.1774 80.0238 97.0598 81.3178C96.8833 82.9648 96.8834 84.4354 97.5304 85.9059C97.5892 86.0236 97.648 86.0824 97.7068 86.1412C97.7068 86.2001 97.7657 86.2588 97.7657 86.3177C98.4716 87.6706 99.4127 88.1411 100.824 87.5529C101.53 87.2588 102.06 86.3765 102.53 85.7883C103.177 85.0236 104.824 85.3177 105.589 84.6118C108.883 81.8472 109.942 75.0239 109.059 71.0241ZM63.8256 10.1438C64.5903 10.3203 65.1785 10.6733 65.0021 11.4968C64.9433 11.7909 64.708 12.9673 66.0021 13.9084C66.2374 14.9084 66.4138 15.9671 66.6491 16.9671C67.0609 18.5553 67.8255 19.967 68.1785 21.614C68.5314 23.261 65.6491 27.7315 63.3551 25.7315C62.5316 25.0257 61.9434 24.0257 61.414 23.0846C61.0611 22.0258 60.1199 17.4965 59.9434 17.673C60.5317 16.9083 60.0023 16.026 59.7081 15.379C59.0023 13.7908 60.0023 12.4379 58.8847 10.8497C58.7082 10.6144 58.4729 10.438 58.2376 10.2615C60.0023 10.0262 63.7668 10.1438 63.8256 10.1438ZM55.8847 11.0262H55.9436C58.9435 11.085 58.12 12.9673 58.2964 14.9672C58.3553 15.379 59.1199 16.7907 58.8258 17.1436C58.4141 17.5554 58.6494 18.2024 58.767 18.6141C58.8847 19.1435 59.5905 20.0847 59.767 20.4964C59.8258 20.6729 59.8258 20.7905 59.8846 20.967C59.1788 20.0847 58.3553 19.3788 57.3553 18.6141C55.9436 17.5554 54.4142 16.6142 53.0613 15.4378C52.2966 14.7319 51.7084 13.9085 51.0026 13.2026C52.6496 12.4379 54.2377 11.6732 55.8847 11.0262ZM50.9438 11.9673C50.8849 11.9085 50.8849 11.9085 50.8261 11.8497C50.4144 11.6144 50.0026 11.3791 49.6497 11.085C50.0026 11.085 50.3556 11.085 50.7673 11.1438C51.1202 11.2027 51.4143 11.3791 51.7084 11.5556C51.4143 11.6732 51.1791 11.8496 50.9438 11.9673ZM12.2392 12.5555C15.4744 9.2615 20.0625 7.43809 24.2976 5.84991C29.0034 4.08526 33.8855 3.08527 38.8854 3.32055C38.1207 3.55584 37.356 3.84995 36.5913 4.20288C35.1208 4.84991 33.8855 5.96751 32.8856 7.20276C31.8268 8.43801 31.7091 10.8497 30.2974 11.7321C30.1209 11.8497 30.0621 11.9673 30.0033 12.1438C27.6504 13.732 24.9447 13.5555 22.2389 13.7319C19.9448 13.8496 17.592 14.379 15.4744 15.2613C13.5921 16.0848 11.8863 16.9083 10.3569 18.32C9.7099 18.9082 9.23933 19.6141 8.70994 20.2612C8.35701 20.7317 8.0629 21.2023 7.82762 21.6728C7.70997 21.9081 7.5335 22.1434 7.41586 22.3787C6.82764 23.8493 6.00414 24.261 4.94535 23.5552C6.59235 19.4965 9.12169 15.7319 12.2392 12.5555ZM5.29826 60.3774C5.18062 59.9657 5.12182 59.5539 5.063 59.1422C4.82771 56.9069 5.18064 54.6129 5.23946 52.4365C5.47474 47.4367 5.063 42.4957 3.88657 37.6723C2.82778 33.3783 3.12187 29.1432 4.41594 25.1433C4.76887 25.3198 5.18064 25.3786 5.65121 25.261C8.29818 24.7316 9.12168 21.4964 10.651 19.673C13.3568 16.4966 18.239 15.2613 22.2389 14.9084C25.3564 14.6143 28.2386 14.9084 30.8856 12.9673C31.0621 12.8497 31.1209 12.732 31.1209 12.5555C32.7679 11.2614 32.9444 8.90862 34.2973 7.32044C36.1796 5.08523 39.4736 4.02641 42.5323 3.61466C46.591 3.96759 50.532 4.61463 54.4731 5.96752C56.5906 6.67338 58.3553 7.73215 60.1787 8.9674C58.9435 9.02622 57.7082 9.14387 56.473 9.55562C55.2965 9.90855 54.1201 10.3791 52.9437 10.9085L52.8849 10.8497C52.0614 10.5556 51.3555 10.085 50.532 9.90853C49.7085 9.73207 48.885 9.96735 48.1203 10.2026C47.9439 10.2615 47.8262 10.3791 47.7674 10.4967C47.6497 10.6732 47.6498 10.9085 47.8262 11.085C47.8262 11.085 47.8262 11.085 47.8262 11.1438C47.8262 11.1438 47.8262 11.1438 47.8262 11.2026C47.8262 11.2026 47.885 11.2615 47.9438 11.2615C47.9438 11.2615 47.9439 11.2615 48.0027 11.2615C48.5321 11.732 49.1203 12.1438 49.7085 12.4967C49.4144 12.6732 49.2379 12.9673 49.4144 13.2614C49.4732 13.4379 49.6497 13.6143 49.8261 13.6143C51.179 14.7907 52.2378 16.2613 53.6495 17.3789C55.3554 18.7318 57.1788 19.7317 58.767 21.2611C59.3552 21.8493 60.2964 23.261 60.5317 23.9081C61.2963 25.3198 62.1787 26.7903 63.5904 27.2609C65.708 27.9667 68.002 25.5551 69.0608 23.9669C69.7666 22.9669 69.2961 21.3788 69.0608 20.3788C68.7667 19.0847 68.1784 17.8494 67.7079 16.6142C67.5902 16.3789 67.5314 16.1437 67.4726 15.9084C69.2373 17.9671 71.2372 19.8494 72.5901 22.261C75.1194 26.6727 74.0606 33.0842 73.0018 37.7899C72.4724 40.2604 71.7666 42.6721 71.0019 45.0838C70.4725 46.7896 69.649 48.319 69.4137 50.1424C69.2372 51.613 70.649 53.0835 71.4136 54.1423C73.2371 56.6717 71.9431 58.8481 72.1783 61.495C72.1783 61.848 72.3548 62.1421 72.5901 62.3185C70.8254 64.4361 67.7079 65.3772 65.6491 67.0831C64.7668 67.7889 63.708 68.2595 62.5316 68.6124C62.8257 67.9066 62.8845 67.0831 62.7669 66.2007C62.6492 65.2596 62.414 64.3184 61.9434 63.4361C61.1199 61.9656 58.8847 59.7304 59.1788 58.6128C59.8258 56.1423 60.9434 53.9658 61.9434 51.613C62.9434 49.3189 63.5315 46.8485 64.2374 44.4368C65.5315 39.7899 65.5903 35.5547 63.7668 30.9667C63.4727 30.2608 62.3551 30.5549 62.6492 31.2608C64.708 36.4371 63.9433 40.9075 62.5316 46.1426C61.3552 50.4366 58.9435 54.26 57.9435 58.6128C57.6494 59.9068 59.2376 61.7891 60.1199 62.9068C61.061 64.0832 63.0022 68.2595 60.4729 68.8477C60.414 68.8477 60.3552 68.9065 60.2964 68.9065C57.8259 69.1418 55.2377 68.9065 53.1202 68.5536C49.7673 68.0242 46.7086 66.4949 43.3558 65.8478C42.7087 65.7302 41.7088 65.8478 41.1206 66.1419C39.1206 67.3184 37.5325 67.9065 35.1208 67.7889C31.7091 67.6124 28.3563 66.8478 25.0035 66.436C21.4742 66.0243 18.1802 66.5537 14.7097 66.7301C12.9451 66.789 10.8863 66.7301 9.53342 65.436C8.70992 64.6714 8.23936 63.4949 7.70997 62.5538C7.2394 61.5538 6.47469 60.6715 5.29826 60.3774ZM61.6493 77.2591C59.8846 77.7297 57.12 76.671 55.4142 76.2592C53.6495 75.8475 51.9437 75.4945 50.1791 75.1416C46.9439 74.4945 43.7675 73.2593 40.5912 72.7887C39.0618 72.5534 37.8854 72.2005 36.5325 71.4359C35.6502 70.9065 34.6502 70.5536 33.6502 70.8477C32.1209 71.3182 31.5915 71.0829 30.2974 70.2594C29.4739 69.7889 28.9445 69.8477 28.0622 70.0241C27.7681 70.1418 27.474 70.3182 27.2975 70.4947C26.6505 70.9652 25.6505 70.2006 25.1211 69.9653C24.1211 69.5536 23.4153 69.6124 22.3565 69.8476C20.7095 70.2594 19.5919 69.4947 18.0625 69.2006C16.7685 68.9653 15.6509 69.7888 14.1803 69.5535C12.4745 69.2594 6.76882 68.083 7.12175 65.7301C7.12175 65.6125 7.12175 65.5537 7.12175 65.4948C7.18057 65.3184 7.18057 65.0831 7.12175 64.789C6.82764 63.789 6.35707 62.8479 5.94532 61.9067C7.35704 62.9655 8.29816 65.6714 9.41577 66.7301C11.0039 68.2007 13.945 68.083 15.945 67.9654C19.8272 67.7889 23.3565 67.436 27.2387 67.9654C30.9445 68.4948 34.709 69.3771 38.4148 69.083C39.2383 69.0242 40.003 68.5536 40.65 68.1418C43.297 66.4948 45.5322 67.6124 48.1203 68.4359C51.8261 69.6712 55.4142 70.1418 59.3552 70.0829C59.8258 70.0829 61.2963 70.0242 63.0022 69.6712C64.6492 71.3182 67.4726 71.377 69.8843 71.6123C69.5902 71.7888 65.0609 76.3768 61.6493 77.2591ZM85.3543 73.2005C81.0015 72.0241 65.2962 70.7888 64.1786 69.3182C65.0021 69.0241 65.8256 68.5536 66.5903 67.9066C68.8843 66.0831 72.1783 65.0243 73.943 62.6126C76.0017 63.2597 78.0017 63.4949 80.1192 63.6714C82.5309 63.9067 84.825 64.4949 87.2366 64.8478C92.4717 65.5537 97.7657 66.7301 102.824 68.083C103.53 68.2595 104.118 68.4948 104.589 68.7889C100.707 69.8477 97.5304 70.73 93.2364 69.73C90.0012 68.9654 86.6484 67.8478 83.3544 67.6125C83.1191 67.6125 83.0015 67.6712 82.8838 67.8477C81.5898 68.3771 80.531 69.0242 79.5898 70.0829C79.2957 70.4359 79.4134 70.9064 79.8251 71.0829C84.9426 73.2005 92.06 72.0829 96.8245 75.1416C92.9423 75.0239 89.1189 74.2005 85.3543 73.2005ZM106.001 79.3179C105.765 80.259 105.354 81.2002 104.883 82.0826C104.177 83.4354 103.118 82.7884 102.177 83.3178C101.53 83.6707 99.8833 85.3177 99.8244 85.2589C99.7656 85.1413 99.7068 85.0824 99.648 85.0236C99.648 84.9648 99.5891 84.906 99.5891 84.7883C99.0009 83.3766 99.4127 81.7296 99.5303 80.2591C99.648 78.7886 99.648 77.2591 99.648 75.7886C99.648 74.9651 98.9421 74.6122 98.295 74.6711C93.5893 70.9653 86.5308 72.024 81.0016 70.2006C81.7074 69.6124 82.4133 69.2006 83.3544 68.8477C83.4133 68.8477 83.472 68.7889 83.472 68.7889C87.5896 69.083 91.7659 70.73 95.8246 71.4359C99.1774 72.0241 102.53 70.5536 105.707 69.6712C106.471 70.5536 106.765 71.7299 106.765 73.4357C106.883 75.4357 106.53 77.4356 106.001 79.3179Z" fill="#2AC0A5"/>
<path d="M59.767 35.2606C62.5316 34.7312 61.1787 30.849 59.2376 30.496C59.1199 30.4372 59.0023 30.3784 58.8847 30.3784C55.8259 30.6137 57.0612 35.7312 59.767 35.2606ZM58.3553 31.849C58.4141 31.849 58.4729 31.7901 58.5317 31.7901C59.5905 31.0255 61.0611 33.6725 59.6493 34.0842C58.6494 34.3195 57.9435 32.6136 58.3553 31.849Z" fill="#2AC0A5"/>
<path d="M58.8848 67.9652C60.1789 67.9064 60.9436 66.7888 60.5907 65.6124C60.2965 64.6124 59.3554 63.8477 58.3554 63.73C58.2378 63.5536 58.0025 63.436 57.7672 63.4948C55.1791 64.083 56.5908 68.0829 58.8848 67.9652ZM57.6496 64.7888C57.7084 64.7888 57.7672 64.8476 57.8261 64.8476C58.4731 64.8476 59.0025 65.2006 59.2966 65.73C59.6495 66.3182 59.3554 66.7888 58.7084 66.7888C57.9437 66.8476 57.179 65.3771 57.6496 64.7888Z" fill="#2AC0A5"/>
<path d="M11.0038 60.1421C11.0038 59.9068 10.8861 59.7304 10.592 59.6716C9.35677 59.4363 8.65093 60.3774 8.76857 61.5538C8.88622 62.7302 9.6509 63.9655 10.8273 64.2596C12.0626 64.5537 13.1214 63.8478 12.7096 62.5537C12.4155 61.6714 11.7685 60.7303 11.0038 60.1421ZM11.2391 63.142C10.592 63.0831 10.1803 62.4361 10.0038 61.9067C9.94499 61.6714 9.76852 61.0833 10.0038 60.9068C10.4744 61.2597 10.8862 61.7891 11.2391 62.2596C11.4155 62.4949 11.5332 62.789 11.6508 63.0832C11.6508 63.142 11.6508 63.142 11.6508 63.142C11.5332 63.142 11.2979 63.142 11.2391 63.142Z" fill="#2AC0A5"/>
<path d="M21.239 57.6128C21.239 57.6128 21.239 57.6716 21.2978 57.6716C24.6507 60.6715 30.474 60.495 34.7091 60.2597C39.2384 60.0244 43.4736 58.7892 46.297 55.0834C52.8262 46.5543 50.4145 33.4371 43.9441 25.6139C41.4148 22.4963 27.5329 15.0848 19.7685 18.9082C19.2979 19.1435 17.4157 20.4375 16.3569 21.0846C14.651 22.2022 13.2393 23.4963 11.9453 25.1433C9.41593 28.3784 8.18066 32.8489 8.18066 36.9076C8.23949 41.378 10.6512 46.2014 12.8864 49.966C14.7098 53.0247 18.0039 56.2011 21.239 57.6128ZM12.4158 26.7315C13.5334 24.8492 15.2392 23.4963 17.0039 22.2022C18.0627 21.4375 20.592 19.9082 20.9449 19.7317C28.3564 16.673 41.4736 24.4962 43.003 26.3197C45.8264 29.7313 47.3558 33.9076 48.3557 38.1428C49.6498 43.4367 48.7087 48.2013 46.1793 52.9659C43.9441 57.1422 39.9443 58.495 35.5327 58.9656C31.6504 59.3774 21.7684 60.3186 14.004 49.3778C11.8276 46.319 10.5923 42.4956 9.71001 38.8487C8.65122 34.8488 10.2982 30.2608 12.4158 26.7315Z" fill="#2AC0A5"/>
<path d="M19.0624 50.7894C20.1211 52.8481 22.2387 53.6128 24.4739 53.4363C26.0621 53.2599 27.4738 52.2599 27.8268 50.6718C28.1209 49.26 27.2385 48.0836 26.1797 47.2601C27.7679 46.2601 28.9444 44.2014 27.8268 42.4368C26.7092 40.7309 24.4739 40.1427 22.5916 40.8486C19.7094 41.3192 17.8859 44.8484 20.4741 46.6131C19.4153 47.7307 18.2389 49.0836 19.0624 50.7894ZM21.9446 46.8484C22.1799 46.6131 22.1799 46.0837 21.827 45.9072C19.6506 44.9661 20.4741 42.7897 22.1211 42.1426C22.2975 42.2015 22.474 42.2015 22.6505 42.1426C23.7092 41.4956 24.9445 41.6133 26.0033 42.1426C28.2973 43.2603 26.5915 46.0837 24.9445 46.6131C24.4739 46.7895 24.3563 47.4366 24.8269 47.6719C27.415 49.2601 27.1797 52.0247 23.9445 52.3188C22.5916 52.4364 21.1799 51.8482 20.3564 50.7306C19.1212 49.1424 21.0035 47.7895 21.9446 46.8484Z" fill="#2AC0A5"/>
<path d="M23.8858 45.5544C24.7681 45.4368 25.5916 44.9074 25.6504 43.9074C25.7093 42.9074 24.7093 42.3193 23.827 42.3193C23.7681 42.3193 23.7682 42.3193 23.7093 42.3193C23.5917 42.2604 23.5329 42.2604 23.4152 42.3193C22.6506 42.6134 22.0035 43.3192 22.0623 44.2015C22.1211 45.2015 23.0035 45.7309 23.8858 45.5544ZM23.7093 43.4957C23.7682 43.4957 23.7682 43.4957 23.7682 43.4957C23.9446 43.4957 24.1211 43.4957 24.2387 43.6133C24.3564 43.6721 24.4152 43.7898 24.4152 43.8486C24.474 44.1427 24.1211 44.3192 23.7093 44.378C23.5329 44.378 23.4152 44.4368 23.2976 44.378C23.2388 44.3192 23.1799 44.2603 23.1799 44.2015C23.1799 43.9662 23.3564 43.6133 23.7093 43.4957Z" fill="#2AC0A5"/>
<path d="M23.6508 51.3189C24.5331 51.3189 25.4743 50.7307 25.239 49.6719C25.0625 48.7896 24.239 48.2014 23.4155 47.9661C23.3567 47.9661 23.2979 47.9661 23.239 47.9661C23.1802 47.9661 23.1214 47.9661 23.1214 47.9661C22.2979 48.2014 21.5921 48.8484 21.6509 49.7895C21.7097 50.9071 22.7097 51.3777 23.6508 51.3189ZM23.2979 49.2013C23.592 49.3189 23.8861 49.4954 24.0626 49.8483C24.1214 49.9071 24.0625 50.0836 24.1214 50.0248C24.0625 50.0836 23.9449 50.1424 23.7685 50.2012C23.3567 50.2601 22.8861 50.2013 22.8273 49.7895C22.7685 49.5542 23.0626 49.3189 23.2979 49.2013Z" fill="#2AC0A5"/>
<path d="M29.1212 46.7896C29.5918 49.0248 30.0624 51.2012 29.7094 53.4364C29.6506 53.7305 29.7683 54.0835 30.1212 54.1423C31.8858 54.554 32.5917 53.7894 32.827 52.0835C32.827 51.9071 32.8858 51.7894 32.8858 51.6129C32.7682 50.7306 33.0623 50.4954 33.8269 50.9659C33.8858 51.3777 33.8269 51.8482 33.8269 52.26C33.8269 52.8482 33.827 53.7893 34.2975 54.2599C35.2387 55.2011 36.4739 54.3188 36.7092 53.2012C36.8857 52.2012 36.3563 50.9659 37.0621 50.1424C37.3562 49.7895 37.3562 52.5541 37.3562 52.9659C37.2386 54.907 39.2385 55.0834 40.415 53.9658C41.5326 52.907 40.7679 50.5542 40.415 49.3778C40.0032 47.7896 39.2385 45.8485 37.768 44.9662C37.2386 44.6132 36.4739 44.6721 35.9445 44.9662C35.3563 45.3191 35.3563 45.9073 35.1799 46.4367C34.6505 45.672 34.2975 44.7896 33.1799 44.9073C32.6505 44.9661 32.2976 45.3779 32.0035 45.8485C31.4153 44.8485 30.9447 44.4956 29.3565 45.672C29.0624 45.9073 29.0624 46.2602 29.2389 46.5543C29.1212 46.6131 29.0624 46.7308 29.1212 46.7896ZM31.5917 47.5542C31.827 47.966 32.5329 47.9072 32.6505 47.4366C33.0623 45.4955 34.2387 47.4367 34.7681 47.9072C35.0034 48.1425 35.3563 48.1425 35.5916 47.9072C35.9445 47.4955 36.0622 47.2013 36.1798 46.6719C36.6504 44.6132 38.2386 47.2602 38.4739 47.7307C39.2385 49.2013 39.7091 51.0248 39.6503 52.6718C38.6503 53.3776 38.2386 53.26 38.4739 52.4365C38.4739 52.1424 38.4739 51.7894 38.4739 51.4953C38.4739 50.8483 38.4739 50.2012 38.2974 49.5542C38.0621 48.7307 37.1209 48.6131 36.4739 49.0837C35.2975 50.0248 35.474 51.3189 35.474 52.6718C35.0034 53.3776 34.8269 53.3776 34.8858 52.6718C34.8269 52.3188 34.8858 51.9659 34.8858 51.6129C34.8858 51.0247 34.8858 50.4954 34.5916 49.966C34.1799 49.0837 33.5328 48.5543 32.5917 49.0837C31.4153 49.7895 31.9447 52.6717 30.8271 53.0247C31.0623 50.7895 30.5918 48.6719 30.1212 46.4955V46.4367C31.0623 46.0249 31.0623 46.7307 31.5917 47.5542Z" fill="#2AC0A5"/>
<path d="M103.589 76.4945C103.354 76.4945 103.236 76.6121 103.118 76.7886C102.001 76.965 100.883 77.7886 100.413 78.7885C99.7656 80.2002 101.06 81.4355 102.471 81.259C103.765 81.1414 104.707 79.9061 105.118 78.7885C105.589 77.5533 104.942 76.3768 103.589 76.4945ZM103.942 78.5532C103.707 79.2003 103.118 79.8473 102.412 80.0826C102.118 80.1414 101.707 80.0237 101.471 79.7885C101.236 79.612 101.53 79.2002 101.589 79.0238C102.001 78.3179 102.942 77.8474 103.765 77.9062C103.883 77.9062 103.942 77.9061 104.001 77.8473C104.118 78.0238 104.06 78.2591 103.942 78.5532Z" fill="#2AC0A5"/>
</svg>
