<svg width="149" height="30" viewBox="0 0 149 30" fill="none" xmlns="http://www.w3.org/2000/svg">
<path d="M146.764 7.73761C145.411 5.62003 142.999 4.62013 140.646 3.97309C136.94 3.03195 133.058 2.09076 129.235 1.50254C120.941 0.208471 112.059 -0.262101 103.765 1.50254C101.824 1.91429 99.8829 2.50255 97.883 2.79666C95.4713 3.20841 93.0008 2.91425 90.5891 2.73778C86.2951 2.44367 82.06 3.09071 77.8248 3.6201C77.7072 3.6201 77.6484 3.67898 77.5307 3.67898C75.0014 3.62016 72.6485 3.38485 70.178 2.62017C68.7075 2.14959 67.3546 2.20844 66.0017 2.79666C64.3547 3.50252 62.8253 4.26714 61.4724 5.38475C60.1784 6.44354 59.649 8.61994 59.002 10.0317C53.708 10.6199 48.1788 10.2081 42.8849 10.0905C37.6497 10.0316 32.6499 10.6199 27.4737 10.6199C25.2973 10.6199 23.7091 11.8552 21.4739 11.6787C19.2975 11.5022 17.2975 12.9728 15.1211 13.0904C12.533 13.2669 9.82719 12.8551 7.23904 12.7374C5.18029 12.6786 3.53328 13.3845 1.82746 14.2669C1.47453 14.2669 1.18042 14.5021 0.945137 14.7962C0.415743 15.3256 0.592201 16.1491 1.12159 16.5608C2.47449 18.149 4.53327 18.502 6.59202 18.6785C10.0625 18.9137 13.4741 18.7373 16.8858 18.6785C17.9446 18.6785 18.8269 19.7373 19.9445 19.8549C21.6503 20.0314 23.2973 19.9137 24.9443 20.3254C28.4736 21.2077 31.7088 21.1489 35.2969 21.2666C35.4145 21.2666 35.5322 21.2666 35.591 21.2077C35.7087 21.3254 35.8851 21.3842 36.0616 21.3842C43.826 22.6195 51.5904 21.2078 59.3549 21.3842C59.8843 22.5018 60.8842 23.5018 61.7665 24.09C61.8842 24.2077 62.0019 24.2077 62.1195 24.2665L62.1783 24.3253C63.3548 25.2076 64.8253 25.5017 66.0017 26.3841C67.1193 27.1487 68.1193 28.0899 69.531 28.2075C73.2368 28.5604 76.9425 27.1487 80.5894 26.7958C84.8834 26.384 89.2362 26.6782 93.589 26.3841C98.1183 26.09 102.589 26.5605 107.059 27.3252C110.882 28.0311 114.706 29.031 118.588 29.0898C122.647 29.2075 126.882 28.8546 130.882 28.4428C136.117 27.9722 142.058 27.0899 145.94 23.2665C150.058 19.5019 149.646 12.208 146.764 7.73761ZM122.412 3.09077C126.353 3.38488 130.235 4.0319 134.117 4.91422C136.235 5.44361 138.47 5.6789 140.587 6.38476C140.587 6.44358 140.646 6.50236 140.705 6.56118C141.94 7.97289 139.705 9.09056 138.47 8.97292C138.293 8.97292 138.117 9.0317 137.999 9.14934C134.411 8.5023 130.823 7.73764 127.235 7.03178C125.117 6.62003 120.353 5.62006 120 2.91427C120.823 2.9731 121.588 3.03195 122.412 3.09077ZM97.5888 5.14952C98.4712 5.0907 99.4124 4.91419 100.354 4.73773C104.765 3.79658 109.059 3.20837 113.353 2.97308C113.588 3.09072 113.824 3.26723 114 3.38488C118 5.9142 112.412 7.73762 111.471 7.97291C110 8.38466 108.471 8.44347 107 8.91404C104.824 9.56108 102.706 9.97284 100.53 8.85523C99.5888 8.32584 97.0595 6.67888 97.5888 5.14952ZM72.4721 5.67886C74.1779 5.91414 75.8249 5.97302 77.5307 6.03184C77.766 6.03184 77.9425 5.97298 78.1189 5.91416C78.1778 5.91416 78.2366 5.91416 78.3542 5.91416C82.4129 5.44358 86.4128 4.85536 90.4715 5.09064C91.2361 5.14946 91.942 5.14951 92.7067 5.20833C93.4714 6.97297 90.0009 9.67873 88.8833 10.3258C86.354 11.6787 82.8247 11.2081 80.0601 10.9728C76.0014 10.561 71.4721 9.14934 70.2957 5.03183C71.0603 5.26712 71.8839 5.56121 72.4721 5.67886ZM23.062 14.208C24.0032 14.2668 24.8855 14.0316 25.7678 13.7374C25.8855 13.9727 25.9443 14.208 26.0619 14.5021C24.5326 14.7374 22.0032 15.5609 20.5915 14.6786C20.4151 14.5609 20.1798 14.5609 20.0033 14.6786C20.0033 14.6198 19.9445 14.5021 19.9445 14.4433C20.9444 14.0903 21.8856 14.0903 23.062 14.208ZM18.4739 16.7373C18.4739 16.7373 18.4739 16.7961 18.4739 16.7373C18.4151 16.7373 18.3563 16.7373 18.2975 16.6785C16.1799 15.6786 12.533 16.502 10.2389 16.4432C8.41546 16.3844 5.82733 16.6785 4.00386 15.9138C5.88615 15.2668 7.65079 15.1491 9.88601 15.2668C12.2977 15.4433 14.6505 15.5609 17.0034 15.2668C17.5328 15.208 18.2386 14.855 18.768 14.6786C19.0621 15.3844 19.1798 16.4432 18.4739 16.7373ZM25.709 18.2667C23.7091 17.7961 21.6503 17.7961 19.7092 17.2667C20.0033 16.855 20.121 16.3256 20.121 15.7962C21.8856 16.7373 24.4738 15.9138 26.2972 15.6197C26.6502 16.7373 26.6502 17.8549 25.709 18.2667ZM35.0616 18.9726C32.4146 18.9137 29.7088 19.2078 27.1207 18.6196C28.0618 17.3255 27.4148 15.0315 26.8266 13.3257C27.4736 13.1492 28.1207 12.9727 28.8853 12.9727C30.9441 13.0316 32.8852 13.0315 34.8851 12.7374C35.591 14.4433 36.2969 17.7961 35.0616 18.9726ZM60.9431 18.7961C60.4137 18.3255 59.4137 18.3843 59.002 19.0902C51.4728 18.9725 43.9436 20.2666 36.4145 19.149C37.2968 17.4432 36.8263 14.3845 36.0616 12.561C38.5909 12.1493 41.179 12.4433 43.7672 12.4433C49.0611 12.5021 54.4727 12.9139 59.7078 12.2669C59.8843 12.2669 60.0019 12.208 60.1196 12.1492C61.1784 12.208 62.2371 12.4433 63.1195 13.0315C64.4724 13.855 64.4723 15.7373 64.1194 17.0902C63.7665 18.6784 62.296 18.7961 60.9431 18.7961ZM61.943 19.9137C62.943 19.8549 63.8253 19.6196 64.6488 18.7373C65.7076 17.5608 65.7664 15.4433 65.2958 14.0316C64.8253 12.5022 63.7076 11.7963 62.3548 11.3846V11.3258C62.6489 9.61995 64.3547 10.0905 65.0017 11.2081C65.7664 12.5022 65.59 14.3845 65.5311 15.855C65.4723 17.0903 65.4135 18.2667 65.0017 19.4431C64.5311 20.8548 63.4136 21.5607 62.2959 20.4431C62.2371 20.2666 62.0607 20.0902 61.943 19.9137ZM114.059 26.3841C113.941 26.3841 113.824 26.3253 113.706 26.3253C114 26.0312 113.941 25.3253 113.353 25.3253C112.824 25.3253 112.647 25.8546 112.824 26.2076C112.471 26.1488 112.177 26.09 111.824 26.0312C112.118 25.6782 112 25.09 111.412 25.0311C110.941 25.0311 110.765 25.5017 110.882 25.8547C110.53 25.7958 110.177 25.737 109.824 25.6782C110.235 25.3841 110.118 24.6194 109.53 24.6194C109 24.6194 108.824 25.2076 109.059 25.5606C108.706 25.5017 108.353 25.4429 108 25.3841C108.353 25.09 108.236 24.3841 107.647 24.3841C107.118 24.3841 106.942 24.9135 107.118 25.2664C106.883 25.2076 106.589 25.1488 106.353 25.1488C106.53 24.7959 106.353 24.3253 105.883 24.2665C105.471 24.2665 105.236 24.6194 105.294 24.9723C105 24.9135 104.647 24.8547 104.353 24.7958C104.412 24.5017 104.236 24.1488 103.824 24.09C103.471 24.09 103.236 24.3253 103.236 24.6194C102.942 24.5606 102.647 24.5606 102.353 24.5017C102.353 24.2665 102.177 24.0312 101.824 23.9724C101.53 23.9724 101.353 24.1488 101.236 24.3841C100.942 24.3841 100.648 24.3253 100.354 24.3253C101.824 22.8548 105.942 23.6783 107.53 24.0312C109.883 24.5018 113.471 24.443 114.824 26.6194C114.588 26.4429 114.294 26.4429 114.059 26.3841ZM122.294 26.6782C122.647 26.4429 122.941 26.2664 123.353 26.09C123.353 26.2664 123.412 26.5017 123.588 26.6194C123.176 26.6782 122.706 26.6782 122.294 26.6782ZM124.764 26.6194C124.588 26.6194 124.411 26.6194 124.235 26.6194C124.529 26.3841 124.529 25.9135 124.235 25.737C126.411 24.8547 128.941 24.5017 131.235 24.2076C132.999 23.9723 137.411 23.0312 139.705 24.0312C139.646 24.2077 139.646 24.5018 139.823 24.6194C135.235 26.3841 129.47 26.4429 124.764 26.6194ZM141.881 23.6194C141.764 23.6782 141.646 23.7371 141.529 23.7959C139.705 21.796 135.235 22.5019 132.941 22.796C128.647 23.2665 123.529 23.7371 120.235 26.7958C118.882 26.8546 117.529 26.7958 116.176 26.6782C114.941 23.2077 110.118 23.1489 106.941 22.6195C104.53 22.2077 100.236 21.6195 98.9418 24.1488C97.9418 24.09 96.883 24.09 95.8242 24.09C96.883 21.3254 94.5302 18.6784 92.1185 17.149C88.5892 14.7962 82.9423 15.3256 79.0013 16.0903C78.2366 16.2668 78.5307 17.3844 79.2954 17.2079C82.5306 16.5609 86.001 16.5021 89.2362 17.2079C92.0008 17.7961 96.1772 21.0313 94.5302 24.09C90.5891 24.1488 86.6481 24.3841 82.7659 24.4429C79.6483 24.5018 76.5896 25.09 73.5897 25.6782C73.4721 25.6782 73.2956 25.737 73.1779 25.737C71.5897 23.9136 73.472 19.7373 75.1779 18.6785C75.8249 18.2667 75.2955 17.2667 74.6485 17.6196C72.4132 18.9725 70.531 23.3841 71.8839 25.9135C70.531 26.0311 69.178 25.9135 67.9428 24.9723C66.4723 23.9136 64.8253 23.3841 63.4136 22.3842C63.3547 22.3254 63.2371 22.2666 63.1783 22.2666C63.59 22.3254 64.0606 22.2666 64.5312 21.9136C66.7664 20.2078 66.7076 17.0903 66.7076 14.561C66.7076 12.7375 66.5311 10.0905 64.59 9.20815C63.0018 8.50229 61.4724 9.14934 61.1195 10.914C61.1195 10.9728 61.1195 11.0317 61.1195 11.0905C61.0019 11.0905 60.9431 11.0317 60.8254 11.0317C60.9431 10.914 61.0019 10.7963 61.1195 10.6787C61.6489 9.56107 62.0607 8.44348 62.7077 7.38469C63.5312 6.0318 66.1782 5.14951 67.5899 4.62011C67.9428 4.50247 68.4134 4.50248 68.884 4.56131C69.9428 10.6787 77.0013 11.9728 82.3541 12.2081C86.2363 12.3846 89.5891 11.8551 92.2361 8.85523C93.1772 7.79644 94.0007 6.38477 93.7654 5.14952C94.589 5.14952 95.4125 5.14952 96.2948 5.14952C96.1183 6.50241 97.1771 7.67879 98.2359 8.61993C100.589 10.6787 103.236 10.9728 106.236 10.267C108.824 9.67875 114.529 9.50228 116 6.73767C116.882 5.14949 116.294 3.85543 115.176 2.85547C116.353 2.85547 117.529 2.79665 118.765 2.85547C118.941 5.26715 121.529 6.44359 123.529 7.20827C124.882 7.73767 126.294 8.03173 127.764 8.26702C131.235 8.79641 134.588 9.67875 138.058 10.267C138.293 10.3258 138.47 10.2081 138.646 10.0905C140.47 10.0905 142.411 8.61999 142.117 6.91417C142.411 7.03181 142.646 7.14942 142.94 7.32589C145.94 8.97289 146.528 13.2669 146.528 16.3256C146.646 19.5608 144.528 22.0901 141.881 23.6194Z" fill="#2AC0A5"/>
</svg>
