<svg width="156" height="286" viewBox="0 0 156 286" fill="none" xmlns="http://www.w3.org/2000/svg">
<path d="M154.058 263.408C153.234 259.643 151.352 256.173 150.587 252.35C149.764 248.526 99.0595 16.0636 98.1183 13.1225C98.0007 12.8284 97.9418 12.5931 97.883 12.4755C98.0007 12.4755 98.1183 12.3578 98.2948 12.0637C98.7065 11.4167 98.5889 10.7108 98.4124 10.005C97.8242 7.24035 98.3536 4.41692 97.2948 1.76995C97.1183 1.29938 96.7654 1.06409 96.3537 1.00527C96.236 0.946449 96.1184 0.887628 95.9419 0.828806C91.6479 0.122948 87.0598 0.652342 82.6482 0.534699C77.2955 0.417056 72.0016 0.181768 66.6488 0.064125C61.3549 -0.053518 56.1198 0.00530484 50.8258 0.122948C46.3554 0.240591 41.7673 0.00530533 37.3557 0.828806C36.7086 0.769985 36.0616 1.12291 36.0616 1.94641C36.1205 4.12281 35.6499 6.47567 35.1793 8.53442C34.944 9.59321 35.0029 10.5344 36.0616 11.1814C37.0616 11.7696 37.3557 11.5343 37.4733 13.0049C37.5322 14.1813 37.2381 15.3577 36.944 16.5341C36.4146 18.887 35.7087 21.181 35.2381 23.5927C34.0029 29.8278 32.8853 36.1217 32.0029 42.4744C31.1206 48.5919 1.65106 210.88 1.65106 213.116C1.65106 214.527 0.356992 215.586 0.180527 216.998C0.004063 219.057 -0.584181 222.821 2.06279 223.645C3.70979 224.174 6.82734 224.468 7.88613 222.645C9.47431 219.821 9.12138 216.351 9.06256 213.233C8.88609 206.41 24.5914 195.057 25.5326 193.704C31.7088 193.528 37.6498 191.763 43.7672 191.352C46.1201 191.175 48.473 190.705 50.8258 191.175C52.1787 191.469 53.5904 193.528 54.4728 194.528C55.4139 195.587 56.4139 196.646 57.4726 197.646C57.5903 201.939 58.2373 206.233 58.5903 210.469C59.002 215.763 59.5314 221.056 60.0608 226.35C61.0019 236.291 62.8254 246.409 62.943 256.349C62.8842 258.467 63.2372 260.467 63.5901 262.526C63.8254 263.996 63.943 265.349 63.7077 266.761C63.6489 267.055 63.6489 267.231 63.7077 267.349C62.7078 267.643 62.4725 268.643 62.5313 269.467C62.5901 270.055 63.5312 274.349 63.5312 275.878C63.5901 279.702 65.0606 281.643 67.5899 284.407C69.6487 286.701 72.531 285.819 75.1779 284.995C78.0602 284.172 76.7073 279.937 76.3544 277.937C76.0602 276.231 76.0602 274.349 75.3544 272.761C73.8839 269.172 90.7068 246.056 92.4714 241.762C101.295 240.232 110 237.997 119.059 237.821C121.412 240.526 134.294 250.997 138.411 254.644C138.47 260.408 138.705 266.761 143.881 270.29C146.705 272.231 153.587 274.584 155.41 270.29C156.116 268.467 154.469 265.29 154.058 263.408ZM102.177 42.0039C102.001 41.945 101.883 41.8274 101.706 41.7686C101.648 41.7686 101.648 41.7686 101.589 41.7686C101.353 41.6509 101.059 41.6509 100.883 41.8274C100.471 42.1803 100.059 42.7097 100.354 43.2979C100.589 43.7097 101.118 43.7685 101.53 43.7097C101.883 43.6509 102.236 43.592 102.471 43.3567C112.824 89.9434 131.47 173.764 131.47 173.764C131.47 173.882 147.94 251.232 148.528 253.996C148.94 256.055 149.764 258.055 150.469 259.996C149.705 260.408 148.822 260.82 148.117 260.467C147.528 260.173 147.117 259.408 146.705 258.761C146.705 258.702 146.705 258.585 146.705 258.526C146.117 256.349 145.94 253.349 144.411 251.585C143.705 248.938 143.411 246.291 143.058 243.585C142.587 240.173 141.764 236.879 140.999 233.527C141.058 233.527 141.058 233.468 141.117 233.468C141.94 232.644 141.234 230.409 140.823 229.174C141.058 229.409 141.352 229.586 141.705 229.644C143.176 229.939 143.176 227.939 142.352 227.233C142.352 227.233 142.293 227.233 142.293 227.174C142.176 226.88 141.823 226.645 141.47 226.821C140.94 227.115 140.705 227.703 140.587 228.233C140.176 226.645 139.705 225.233 138.823 223.88C138.94 223.703 138.999 223.527 138.882 223.292C136.117 217.762 134.999 211.057 133.882 204.998C133.294 201.763 132.646 198.469 132.058 195.234C131.411 191.763 130.117 188.469 129.882 184.94C129.882 184.881 129.941 184.822 129.941 184.764C130.058 184.646 130.117 184.47 130.058 184.234C129.823 183.117 129.705 182.058 129.529 180.999C129.588 181.117 129.588 181.234 129.647 181.293C130.058 182.058 131.058 182.47 131.823 181.999C132.47 181.587 132.646 180.705 132.352 180.058C132.058 179.411 131.47 178.999 130.764 179.117C130.588 178.94 130.352 178.881 130.117 179.058C129.647 179.411 129.411 179.881 129.411 180.411C129.058 178.529 128.529 176.764 127.176 175.235C127.117 175.117 127 175.058 126.941 174.999C126.941 174.94 126.941 174.882 126.941 174.823C125.529 168.352 124.294 161.706 123.412 155.176C122.647 149.294 120 143.824 119.471 137.883V137.824C120.47 137.059 119.706 135.059 119.412 134.177C119 132.883 118.941 131.236 117.941 130.236C117.941 130.118 117.941 130.06 117.941 129.942C116.529 125.354 116.059 120.531 115 115.825C114.471 113.472 113.53 111.296 112.941 108.943C112.353 106.531 112.235 104.119 111.588 101.708V101.649C111.647 100.59 111.647 99.5901 111.471 98.5901C111.471 98.5313 111.471 98.4137 111.471 98.296C110.883 96.4137 110.236 94.5314 110.118 92.5315C110.236 92.355 110.236 92.1786 110.177 92.0021C110.177 91.9433 110.236 91.8845 110.236 91.7668C110.294 90.2963 109.588 89.0022 109.412 87.5317C109.294 86.4141 109.353 85.4141 108.883 84.3553C108.765 84.12 108.647 84.0612 108.471 84.0612C108.353 83.9436 108.236 83.8259 108 83.8259C107.647 81.5319 106.824 79.4143 106.412 77.1203V77.0615C106.471 76.9438 106.471 76.885 106.412 76.7674C105.412 71.8263 104.353 66.8853 103.353 61.8855C102.824 59.3562 102.471 56.8269 102.059 54.2387C101.706 51.7682 100.706 49.533 100.412 47.0037C100.412 47.0037 100.412 47.0037 100.412 46.9449C100.589 46.886 100.765 46.7684 100.824 46.6507C101.177 46.0625 100.589 44.8273 100.412 44.2391C100.059 42.7097 99.8241 41.0039 99.2359 39.5333C99.1771 39.4157 99.1183 39.2981 99.0006 39.2392C98.9418 39.0628 98.7653 38.8863 98.4712 38.8863C98.4124 38.8863 98.4124 38.8863 98.3536 38.8863C98.3536 38.8275 98.3536 38.7687 98.3536 38.651C97.5301 33.8277 96.4125 29.0043 95.2948 24.2398C94.4714 20.5928 94.1773 16.4753 92.8244 12.946C93.7655 12.946 94.7655 12.8872 95.7066 12.8284C95.8242 13.5343 98.4124 25.1809 102.177 42.0039ZM139.646 245.232C139.235 242.938 137.117 235.821 136.705 234.468C137.764 234.409 138.94 234.409 139.94 234.115C140.587 237.056 141.234 239.997 141.823 242.997C142.293 245.409 142.47 247.761 142.94 250.114C142.117 249.408 141.234 248.703 140.411 247.938C139.94 247.467 139.411 247.114 138.882 246.703C139.411 246.526 139.705 245.879 139.646 245.232ZM136.823 243.879C135.47 243.115 134.235 241.585 133.352 240.703C131.764 239.115 130.058 237.703 128.411 236.174C129.176 236.056 134.294 235.115 135.117 237.526C135.999 240.291 135.941 241.35 136.823 243.879ZM90.4715 19.534C90.2951 19.0635 89.9421 18.8282 89.5892 18.7694C89.5304 18.6517 89.4127 18.5341 89.2951 18.4753C88.7657 16.6518 88.3539 14.8283 87.5304 13.1813C88.8833 13.1813 90.2951 13.2401 91.6479 13.2401C93.2361 17.1224 93.5302 21.8281 94.4714 25.8868C95.4713 30.2984 96.4713 34.71 97.236 39.1804C96.236 39.1804 95.236 39.1804 94.2361 39.1804C94.3537 38.7098 91.7068 23.3574 90.4715 19.534ZM91.9421 37.6511C91.9421 38.2981 89.1186 38.0628 87.5304 37.8275C87.6481 36.8276 88.2363 31.8277 88.5892 29.8866C88.7657 28.8278 88.9421 27.7691 89.1186 26.7103C89.1186 26.9455 89.1774 27.1808 89.1774 27.4161C89.4127 29.5337 91.8832 35.9452 91.9421 37.6511ZM88.0598 18.4164C87.7069 18.5929 85.5305 37.0628 85.2952 38.7687C83.6482 38.7098 82.0012 38.7098 80.3542 38.651C80.5895 38.4746 80.7071 38.1805 80.766 37.9452C81.0013 37.7687 81.1189 37.4746 81.1189 37.1217C81.1777 32.6512 83.1776 13.8872 83.2364 13.1813C84.2364 13.1813 85.1776 13.1813 86.1775 13.1813C87.1187 14.7695 87.5304 16.6518 88.0598 18.4164ZM78.766 36.4746C74.8838 36.357 56.4727 37.8275 56.1786 35.1806C55.3551 27.6514 53.8257 20.1811 53.5904 12.5931C58.6491 12.8284 76.6485 14.4754 80.4719 13.7107C79.766 16.7106 78.8837 31.9454 78.766 36.4746ZM59.8255 39.1216C59.8843 39.1216 96.6478 40.3568 98.1771 40.298C98.883 42.1215 99.1183 44.1802 99.5888 46.0625C99.7065 46.4743 99.883 46.1802 99.0006 46.1802C98.1771 46.1802 72.9427 46.239 70.8251 46.2978C68.4134 46.3566 58.6491 46.239 56.1198 46.239C56.0609 44.7685 55.4727 39.5922 55.2962 38.4157C56.2962 38.7687 57.8844 39.004 59.8255 39.1216ZM105.236 77.5909C105.647 79.7672 106.471 81.826 106.824 84.0024C105.53 84.0612 104.236 84.2377 103 84.0612C103 83.7671 102.824 83.473 102.589 83.2377C102.648 83.0024 95.4713 51.0035 95.2948 47.5331C95.2948 47.4743 95.2948 47.4743 95.2948 47.4154C95.8831 47.4154 97.883 47.5331 99.3535 47.3566C99.5888 49.2389 100.118 51.0035 100.589 52.827C101.236 55.1799 101.412 57.7092 101.824 60.1209C102.824 65.8266 104.118 71.4734 105.295 77.1791V77.2379C105.236 77.3556 105.236 77.4732 105.236 77.5909ZM81.7659 84.4141C80.3542 84.5906 78.9425 84.7083 77.5308 84.7671C77.5896 84.5318 77.5896 84.2965 77.5896 84.12C77.5308 81.2966 79.9425 49.2389 80.0601 48.4154C80.2366 47.0037 85.4717 47.5919 85.5305 47.8272C84.1776 52.827 82.413 74.9439 81.5306 80.7672C81.3542 81.826 81.2953 83.3554 81.7659 84.4141ZM87.8245 48.3566C89.5304 48.1801 91.2362 48.4742 93.0008 48.533C93.2949 51.1212 99.9418 82.473 99.9418 82.473L83.7659 82.5907C83.707 82.6495 86.5305 53.1799 87.8245 48.3566ZM77.5896 49.4742C77.5896 49.533 77.5896 49.533 77.5896 49.5918C77.5308 55.4152 75.2955 83.1201 75.2955 83.1201L59.1785 83.8848C59.1785 83.8848 57.0021 52.8858 57.0021 48.533C58.2962 48.4742 73.825 48.9448 77.5896 49.4742ZM107.883 85.12C108.353 86.12 108.059 87.1788 108.294 88.2375C108.53 89.2963 108.941 90.3551 109 91.4727C108.941 91.5315 108.941 91.5904 108.883 91.708C105.824 91.708 59.649 93.355 59.649 93.355C59.3549 91.061 59.2373 88.7669 59.2961 86.4729C59.5902 86.5317 106.118 85.1788 107.883 85.12ZM105.53 97.4725C107.177 98.8842 109.177 99.943 110.353 101.766C110.941 103.884 111.235 106.06 111.588 108.237C111.941 110.59 112.824 112.884 113.53 115.119C115 119.766 115.235 124.707 116.529 129.413C116.176 129.354 115.824 129.295 115.529 129.295C114.647 129.236 113.706 129.295 112.824 129.354C112.824 129.295 112.824 129.295 112.824 129.236C112.941 129.06 105.765 100.414 105.53 97.4725ZM85.6481 107.59C89.2363 109.06 92.5303 110.884 96.0596 112.472C99.7065 114.119 103.765 113.884 107.53 114.884C107.589 114.884 107.647 114.884 107.647 114.884C107.765 114.943 107.883 115.001 108.059 115.001C108.118 115.472 108.118 116.001 108.236 116.472C106.706 116.119 105.118 116.001 103.53 115.825C103.412 115.766 103.236 115.707 103 115.707C102.177 115.648 101.353 115.472 100.53 115.354C99.6477 115.237 98.7653 115.237 97.9418 114.942C97.8242 114.884 97.7065 114.884 97.5889 114.884C94.4714 114.001 91.942 112.413 88.9421 111.178C86.1775 110.001 83.9423 107.766 81.1189 106.825C81.1777 106.413 81.2365 106.002 81.2953 105.59C82.4718 106.531 84.5305 107.119 85.6481 107.59ZM82.9423 99.296C83.06 97.7078 83.1188 96.1196 83.1776 94.5314C86.4716 94.4138 89.7068 94.0021 93.0008 93.8256C94.7655 93.7668 96.5301 93.7079 98.2948 93.6491C101.001 93.5315 101.883 94.4726 103.236 96.3549C103.236 96.4137 106 110.472 106.647 112.178C104.177 111.648 102.295 111.648 99.8241 111.178C96.7654 110.59 94.0008 108.707 91.2362 107.296C88.7069 106.002 85.8834 105.237 83.3541 103.943C82.1777 103.355 82.8835 100.296 82.9423 99.296ZM81.8247 109.59C82.7071 110.119 83.5305 110.825 84.4129 111.354C85.7069 112.237 87.2363 112.884 88.7069 113.472C90.1774 114.119 91.5303 115.06 93.0008 115.766C94.4126 116.472 96.0007 116.766 97.5301 117.178C97.5889 117.178 99.2359 117.413 100.001 117.531C100.942 117.648 106.471 118.354 108.118 118.766C108.236 120.589 110 127.06 110.412 128.471C109.412 128.589 108.353 128.471 107.412 128.589C105.471 128.824 103.471 128.766 101.53 128.766C101.412 128.766 101.236 128.766 101.118 128.824C94.0008 128.766 87.001 128.766 79.8836 129.413C80.0601 126.06 80.8248 122.766 81.0012 119.413C81.1189 116.237 81.6483 112.884 81.8247 109.59ZM105.706 96.002C105.647 95.8843 105.589 95.7079 105.53 95.5902C104.647 94.355 104 93.4727 103.177 92.7668C104.236 92.8256 105.353 92.8256 106.412 92.8256V92.8844C107.118 94.0609 108 95.002 108.883 96.002C109.941 97.2372 110.353 98.4725 110.412 99.943C109 98.5313 107.177 97.4725 105.706 96.002ZM107.765 92.8844C108.177 92.8844 108.53 92.8844 108.941 92.8844C109 93.4727 109.059 94.0021 109.177 94.5903C108.706 94.0021 108.236 93.4727 107.765 92.8844ZM62.1196 109.707C61.5902 106.59 61.7666 104.296 63.7077 101.649C65.2371 99.5313 67.0017 97.649 68.1194 95.2961C69.4134 95.2373 70.7663 95.0608 72.0604 95.002C74.1191 94.8844 73.3545 97.7078 73.2956 99.1783C73.0603 103.649 72.178 108.06 72.178 112.59L64.3548 112.943C63.296 113.001 62.0607 113.472 62.1196 111.943C62.1196 111.237 62.2372 110.472 62.1196 109.707ZM60.649 97.2372C61.1196 96.4137 61.649 95.6491 61.9431 94.7667C62.0019 94.6491 62.0019 94.5314 62.0019 94.4138C63.3548 94.355 64.7077 94.2373 66.0606 94.1785C64.6489 97.0608 62.296 99.3548 60.649 102.061C60.4725 102.355 60.2961 102.649 60.1785 103.002C59.8843 101.296 59.7079 99.5901 59.5902 97.8843C59.9432 97.8254 60.4137 97.649 60.649 97.2372ZM61.7666 115.413C63.1195 115.825 65.1783 115.237 66.5312 115.178L73.178 114.825C73.9427 114.766 74.2956 114.178 74.2956 113.59C74.4133 113.413 74.4721 113.178 74.4721 112.943C74.4132 109.943 74.7074 106.943 75.0603 103.943C75.3544 101.178 75.4132 98.296 75.825 95.5314C75.8838 94.9432 75.825 94.4726 75.6485 94.0609C77.3543 94.0609 79.0601 93.8844 80.8248 93.7668C80.8248 93.7668 80.8248 93.7668 80.8248 93.8256C80.766 96.649 80.1189 99.7666 80.3542 102.649C80.3542 104.119 80.1777 105.59 79.9425 107.002C79.7072 107.178 79.5307 107.472 79.5307 107.884C79.5307 109.825 79.0013 111.707 78.9425 113.59C78.8248 115.531 78.766 117.531 78.6484 119.472C78.4719 123.236 77.5308 127.001 77.4719 130.765C76.1779 130.883 74.8838 131.06 73.5897 131.236C73.7074 130.883 73.7074 130.471 73.6486 130.118C73.2956 127.471 73.6486 124.707 71.9427 122.53C70.8251 121.06 69.237 119.589 67.8252 118.413C66.3547 117.178 63.7077 118.06 62.0019 118.119C61.8843 118.119 61.7666 118.119 61.649 118.178C61.5313 117.237 61.4725 116.237 61.3549 115.295C61.4725 115.354 61.5901 115.413 61.7666 115.413ZM66.5312 120.413C67.4135 121.178 68.1782 122.119 69.0017 122.883C70.531 124.295 70.8251 125.648 70.8839 127.707C70.8839 128.413 71.1192 129.177 71.178 129.883C71.3545 130.942 70.531 130.765 69.7075 130.942C68.3546 131.236 66.9429 131.471 65.5312 131.648C63.7077 131.883 63.8254 130.765 63.7077 129.354C63.5313 126.354 62.7666 123.472 62.5901 120.413C63.943 120.236 65.8841 119.825 66.5312 120.413ZM116.235 130.589C117.588 130.765 117.765 132.471 118 133.53C118.118 134.118 119.294 136.765 118.353 137.059C117.176 137.412 64.6489 140.706 63.7077 140.824C63.7077 139.471 63.7077 138.118 63.6489 136.765C63.5901 135.706 63.4136 134.648 63.2371 133.648C65.6488 134.765 114.824 130.413 116.235 130.589ZM74.2956 161.823C74.2956 161.882 74.2956 161.882 74.2956 161.941C74.0015 167.764 72.8839 173.529 72.9427 179.352C72.9427 179.411 72.9427 179.47 72.9427 179.587C72.4721 179.646 72.0015 179.646 71.5898 179.705C70.5898 179.823 69.6487 179.999 68.7076 180.058C69.3546 176.234 71.4722 141.942 71.4133 141.706C73.1192 141.53 74.825 141.295 76.472 141.177C75.6485 143.53 75.6485 146.53 75.4132 148.883C74.8838 153.118 74.4132 157.353 74.3544 161.647C74.2956 161.706 74.2956 161.764 74.2956 161.823ZM78.6484 141.883C81.2365 141.824 112.118 139.295 112.824 139.295C113.706 144.647 120.588 170.823 120.882 174.235C120.823 174.235 81.2365 177.881 75.2955 178.117C75.4132 172.705 78.3543 142.883 78.6484 141.883ZM119.471 156.294C118.765 153.588 118.235 150.824 117.588 148.118C116.824 144.824 115.471 141.589 115.059 138.295C116.118 138.353 117.294 138.53 118.294 138.295C118.882 144.471 121.47 150.177 122.294 156.294C123.117 162.353 124.294 168.529 125.588 174.47C125.47 174.47 125.353 174.47 125.235 174.47C124.588 174.47 123.941 174.529 123.294 174.646C123.117 171.882 122.353 169.235 121.823 166.47C121.235 163.117 120.353 159.647 119.471 156.294ZM69.1193 142.942C69.0016 146.824 67.2959 173.352 67.237 173.94C67.1194 173.058 64.6489 147.824 64.6489 143.118C65.4136 143.118 68.4134 143 69.1193 142.942ZM67.5899 181.293C68.884 181.234 70.1193 181.117 71.3545 180.881C72.3545 180.646 73.3545 180.705 74.3544 180.528C80.4719 180.411 86.4716 178.94 92.5891 178.764C92.7067 178.823 123.117 175.999 123.412 175.94C125 175.705 125.882 175.411 126.882 176.823C127.058 177.058 127.235 177.352 127.353 177.646C126.411 177.764 125.47 177.94 124.588 178.293C122.353 178.646 120.118 178.47 117.824 178.47C115.294 178.411 112.765 178.823 110.236 178.999C105.236 179.411 100.236 179.999 95.236 180.47C90.1774 180.94 85.1187 181.293 80.1189 181.764C75.7661 182.117 71.4133 183.234 67.0605 183.058C67.0605 183.058 67.0606 183.058 67.0017 183.058C66.9429 182.528 66.8841 182.058 66.8253 181.528C67.0606 181.47 67.3547 181.411 67.5899 181.293ZM80.1189 182.881C85.5305 182.411 91.0009 181.999 96.4125 181.47C101.412 180.999 106.412 180.411 111.353 180.058C113.824 179.881 116.294 179.587 118.823 179.646C120.765 179.705 122.706 179.764 124.647 179.47C124.706 179.47 124.823 179.47 124.882 179.411C125.823 179.058 126.823 178.881 127.823 178.764C128.411 180.47 128.529 182.411 128.823 184.175C128.058 184.234 127.294 184.175 126.529 184.234C125.823 184.293 69.9428 190.116 68.0605 190.234C67.7664 188.234 67.4723 186.175 67.1782 184.175C71.4722 184.293 75.8249 183.234 80.1189 182.881ZM130 204.351C128.647 198.057 127.235 191.705 125.411 185.587C125.706 185.528 126 185.469 126.294 185.411C127.058 185.234 127.882 185.352 128.705 185.352C128.941 188.175 129.647 190.881 130.352 193.587C131.352 197.116 131.647 200.822 132.47 204.41C133.882 210.174 134.588 216.41 136.882 221.939C135.823 221.409 134.705 221.704 133.588 222.115C133.588 221.939 133.588 221.704 133.47 221.468C132.352 218.939 132.235 216.115 131.823 213.41C131.411 210.292 130.647 207.292 130 204.351ZM130.999 221.468C126.117 221.821 77.1779 227.821 72.8251 228.88C72.9427 216.645 74.1191 204.41 74.2368 192.116C76.5896 191.999 121.706 187.175 123.353 186.822C125.059 192.763 126.294 198.822 127.706 204.881C128.411 207.822 129 210.88 129.529 213.88C130.058 216.527 130.176 218.998 130.999 221.468ZM71.8839 191.234C71.8839 191.293 70.9428 212.469 70.5898 223.056C70.4722 221.292 70.4722 219.586 70.3546 217.998C70.0605 213.763 70.0016 209.527 69.8252 205.292C69.5899 200.587 69.0016 196.469 68.237 191.822C69.531 191.763 70.7075 191.352 71.8839 191.234ZM137.117 223.586C137.529 223.998 137.882 224.468 138.176 224.998C133.882 224.939 129.47 225.821 125.235 226.292C122.823 226.527 120.529 227.292 118.118 227.527C116.353 227.703 114.647 227.468 113 228.174C113 228.174 113 228.174 112.941 228.174C109.824 228.586 106.706 229.174 103.589 229.468C99.9418 229.821 96.2948 229.762 92.6479 230.291C89.1774 230.821 85.7658 231.468 82.2953 232.056C78.9425 232.644 75.3544 233.88 71.8839 233.762C71.8251 233.056 71.7663 232.35 71.7075 231.644C71.8251 231.644 135.705 222.174 137.117 223.586ZM130.529 180.411C130.588 180.411 130.647 180.411 130.705 180.411C130.999 180.293 131.058 180.352 131.176 180.587C131.235 180.705 131.235 180.999 131.176 181.058C131.058 181.234 130.823 181.117 130.647 180.881C130.588 180.764 130.529 180.587 130.529 180.411ZM48.12 2.47581C49.0612 2.47581 50.0023 2.47581 50.8846 2.47581C55.7668 2.35816 60.649 2.35816 65.5312 2.41698C70.4722 2.47581 75.472 2.65227 80.413 2.82874C82.7071 2.88756 84.9423 2.94638 87.2363 2.94638C89.8833 3.0052 92.6479 2.59345 95.2948 3.06402C96.0007 5.4757 96.883 11.5931 95.589 11.8872C91.3538 12.1225 60.7667 10.7108 53.8845 10.2402C52.0611 9.94614 49.8259 9.47556 48.0024 9.76967C48.0024 7.35799 48.12 4.88749 48.12 2.47581ZM37.6498 8.53442C38.0615 6.76978 38.4145 4.88749 38.4733 3.0052C41.2379 2.53463 44.1202 2.47581 46.9436 2.47581C46.9436 5.00513 46.826 7.53445 46.826 10.0638C46.5319 10.1814 46.2966 10.2991 46.0613 10.4755C45.5319 10.8285 45.3554 11.0049 44.9437 11.4167C43.6496 12.6519 43.0614 10.9461 42.4144 10.5932C41.0026 9.76967 39.4144 9.65203 37.8851 9.12264C37.6498 9.00499 37.591 8.76971 37.6498 8.53442ZM44.7672 41.2392C44.7084 41.2392 44.7672 41.2392 44.3555 41.5921C42.8261 42.8862 41.1791 44.2391 39.8262 45.7684C40.3556 43.4744 40.7085 41.1215 41.1791 38.7687C41.4732 38.8863 41.885 39.1216 42.2379 39.1804C43.4731 39.2981 44.0613 39.1804 44.6496 38.7687C44.7672 39.2392 44.7672 40.8862 44.7672 41.2392ZM50.2376 114.001C46.7083 113.707 43.2378 114.472 39.6497 114.472C37.591 114.472 35.591 113.296 33.944 112.237C32.1206 111.06 30.5324 109.943 30.5324 107.766C32.8853 98.0019 39.885 49.8859 39.885 49.8859C39.885 49.8859 39.885 49.8859 39.885 49.8271C40.885 47.6507 44.4731 44.4744 44.4731 44.4744C44.4731 44.4744 49.2376 108.178 50.2376 114.001ZM43.7084 36.8276C43.179 36.9452 42.2967 36.9452 42.4144 36.357C42.7085 34.1806 43.1202 32.063 43.5319 29.9454C43.5319 30.1219 43.5908 30.2984 43.5908 30.416C43.8849 32.1807 44.2966 36.7099 43.7084 36.8276ZM34.297 43.0038C35.2381 36.2982 36.4145 29.6513 37.7674 23.0045C38.5321 19.1811 40.3556 15.2401 39.6497 11.299C39.5909 11.1226 39.5321 10.9461 39.4733 10.8285C40.3556 11.0637 41.1203 11.3579 41.8849 11.8872C41.7673 14.8283 42.4143 17.7694 42.7673 20.6516C42.4732 20.8281 42.2967 21.1222 42.2379 21.5928C42.1203 26.0632 36.1793 58.6503 35.4734 63.3561C34.7676 68.0618 33.7676 72.6498 33.0029 77.3556C31.3559 87.2964 30.5324 97.4725 28.1795 107.355C28.1795 107.472 28.1207 107.531 28.1207 107.649C28.1207 107.649 28.1207 107.649 28.1207 107.707C28.1207 107.884 28.1207 108.06 28.1207 108.178C26.5326 106.943 24.8855 105.825 23.3562 104.472C29.003 73.0616 33.9441 45.6508 34.297 43.0038ZM23.1209 105.766C24.7679 107.178 26.5913 108.354 28.2384 109.707C28.356 110.178 28.5913 110.649 29.0619 111.237C30.4148 113.001 32.9441 114.472 34.944 115.531C40.0027 118.119 45.3554 115.59 50.7082 116.413C52.2963 117.119 54.2963 118.295 54.8845 119.942C55.6492 122.001 52.7669 121.178 51.8258 120.825C51.7081 120.766 51.6493 120.766 51.5317 120.766C48.8259 119.413 46.0025 119.354 43.0026 119.589C38.8262 120.001 34.7087 120.236 30.4736 120.236C29.7677 120.236 26.6502 123.354 25.5326 124.53C25.8855 123.413 26.7678 119.942 26.8855 119.295C27.1796 119.354 27.4737 119.295 27.709 119.178C29.5324 118.354 31.8265 118.589 33.297 116.942C33.8264 116.354 33.7088 115.531 33.0617 115.119C32.1206 114.531 23.415 109.472 22.5327 108.59C22.768 107.707 22.9444 106.766 23.1209 105.766ZM55.4139 183.352C54.1786 183.528 52.9434 183.411 51.7081 183.352C50.0611 183.293 48.3553 183.764 46.7083 183.94C42.8261 184.352 38.8262 183.999 34.944 184.587C31.0618 185.175 27.2384 185.705 23.3562 185.881C21.7092 185.94 20.121 185.999 18.474 186.175C17.3564 186.293 16.2388 186.646 15.1212 186.999C15.2976 185.352 24.2973 129.471 27.2384 126.001C28.4148 124.648 30.1207 123.883 31.4147 122.648C34.7087 122.648 38.0027 122.589 41.2379 122.236C44.4731 121.883 47.7083 121.472 50.7082 123.06C51.4728 124.707 55.1198 181.823 55.4139 183.352ZM28.8266 116.531C28.8266 116.472 28.8854 116.472 28.8854 116.413C29.0031 116.119 29.0619 115.766 29.1207 115.472C29.5324 115.648 29.9442 115.942 30.3559 116.178C30.003 116.295 29.6501 116.354 29.356 116.413C29.1207 116.413 29.003 116.472 28.8266 116.531ZM50.2964 188.587C49.0612 188.469 47.8259 188.587 46.7083 188.646C39.4144 189.175 32.2382 191.234 24.8856 191.352C24.4738 191.352 24.1797 191.528 24.0032 191.822C23.9444 191.881 23.9444 191.881 23.8856 191.94C22.8856 193.293 11.0037 203.822 8.82726 206.41C6.88615 208.763 6.53323 211.174 6.7097 214.174C6.94498 216.998 7.41554 222.233 3.23922 221.527C0.533428 221.056 3.47452 215.468 3.88627 214.233C4.35685 212.704 4.29803 210.88 4.59214 209.292C5.00389 207.116 5.3568 204.881 5.70973 202.704C6.47441 197.998 14.8271 151.647 22.3562 110.06C23.0032 110.531 23.7091 110.943 24.415 111.296C25.2385 111.766 26.1208 112.237 26.9443 112.707C26.8855 113.001 23.5915 126.824 23.2974 129.295C21.4739 138.001 12.7095 186.705 12.533 188.587C12.4742 189.411 13.3565 189.822 14.0036 189.705C15.827 189.411 17.5329 188.646 19.3563 188.469C21.0033 188.293 22.6503 188.293 24.3561 188.234C28.356 188.058 32.3559 187.234 36.3557 186.822C40.1203 186.469 43.8849 186.646 47.6494 186.234C49.2964 186.058 50.8847 185.705 52.5317 185.764C54.061 185.822 55.4727 185.822 56.8844 185.469C56.9432 186.175 57.0021 186.881 57.1197 187.528C55.7668 187.705 54.4728 188.175 53.1199 188.234C52.1199 188.352 51.2376 188.293 50.2964 188.587ZM52.9434 189.646C52.8846 189.587 52.7669 189.528 52.7081 189.469C53.1787 189.469 53.5904 189.469 54.061 189.411C55.1198 189.293 56.1197 188.94 57.1785 188.763C57.2374 188.763 57.2962 188.705 57.355 188.705C57.7079 190.94 58.2373 193.175 58.5903 195.41C56.6492 193.469 55.0021 191.352 52.9434 189.646ZM62.3548 226.35C61.8842 221.409 61.3549 216.527 61.0019 211.586C60.649 207.351 53.6492 126.707 52.9434 122.413C54.3551 122.707 56.0021 122.589 56.1786 120.883C56.355 118.589 54.1198 116.884 52.1199 115.825C52.5317 115.413 52.8257 114.884 52.7669 114.59C51.6493 108.531 45.7672 21.5928 43.7084 13.2401C44.2966 13.5342 44.3554 13.1813 45.0025 12.8872C45.2966 12.7696 45.5319 12.4755 45.7672 12.299C46.3554 11.8284 46.8848 11.5343 47.4142 11.3579C47.5906 18.887 48.7671 26.2397 49.5317 33.71C49.9435 37.6511 50.0023 41.6509 50.1788 45.592C50.3553 50.0624 51.3552 54.4152 51.414 58.8856C51.5317 65.7089 52.7081 72.5322 53.1199 79.3555C53.5316 86.0611 54.6492 92.708 54.9433 99.3548C55.0021 107.06 56.2962 114.59 57.1197 122.236C57.5315 125.883 57.7079 129.589 57.9432 133.295C58.1197 136.648 59.649 151.177 60.002 154.647C60.4137 158.588 60.4137 162.529 61.0019 166.411C60.9431 166.529 60.9431 166.647 60.9431 166.764C61.4725 170.117 61.5313 173.529 61.7078 176.94C61.9431 180.058 62.4725 183.175 62.6489 186.293C63.0019 192.763 64.7077 213.645 64.8842 216.998C65.0606 220.586 65.2959 224.174 65.6488 227.762C66.0018 231.468 66.4135 235.174 66.7076 238.879C66.9429 241.644 68.0605 256.114 68.1782 260.349C68.2958 264.467 68.3546 268.584 69.0017 272.643C68.6487 272.172 68.3546 271.584 68.1194 271.114C67.5311 270.055 66.8252 268.996 65.8841 268.29C65.8841 266.584 66.1194 264.996 65.8841 263.231C65.6488 260.937 65.0606 258.702 65.1194 256.408C65.1194 246.35 63.296 236.291 62.3548 226.35ZM69.7663 283.172C68.6487 282.231 67.5311 280.937 66.6488 279.76C65.59 278.349 64.1195 269.937 65.3547 269.29C66.8841 270.525 67.2958 272.702 68.7664 273.996C68.9428 274.172 69.1781 274.29 69.4134 274.408C69.4134 274.408 69.4134 274.408 69.4134 274.466C69.4722 276.466 69.7075 278.466 69.7663 280.407C69.8252 281.349 69.7075 282.29 69.7663 283.172ZM69.4722 260.349C69.3546 256.114 68.0605 239.879 67.8252 236.644C67.5311 232.938 67.0606 229.291 66.7076 225.586C66.3547 221.998 66.237 218.468 66.0018 214.88C65.8253 212.233 64.3548 195.94 63.943 188.116C64.0018 188.234 64.0018 188.352 64.0607 188.411C64.3548 188.999 65.0606 189.116 65.6488 188.822C66.1782 188.528 66.3547 187.94 66.2371 187.411C66.1194 186.822 65.59 186.411 65.0018 186.352C64.7665 186.352 64.6489 186.411 64.5312 186.587C64.2959 186.587 64.0606 186.705 63.943 186.999C63.943 187.058 63.8842 187.116 63.8842 187.234C63.8842 186.94 63.8842 186.587 63.8254 186.352C63.7077 182.881 58.6491 126.354 58.2373 122.295C57.4726 114.648 56.1198 107.119 56.0609 99.4136C55.708 92.708 54.7669 86.0611 54.2375 79.4143C53.7081 72.591 52.5905 65.6501 52.4728 58.768C52.4728 58.768 52.4728 58.768 52.4728 58.7092C52.3552 54.6505 51.4728 50.6506 51.2964 46.6507C51.1199 42.7097 51.0611 38.7098 50.7082 34.7688C50.4141 30.8278 49.4141 27.0044 49.1788 23.1222C48.8847 19.1223 48.5318 15.1224 48.473 11.1226C48.7082 11.1226 49.0024 11.0637 49.2965 11.0637C49.9435 11.0637 50.5905 11.0637 51.2376 11.1226C51.2376 11.1814 65.0018 175.646 65.1194 177.47C65.1783 178.176 65.2371 178.999 65.4135 179.764C65.4135 179.764 65.4135 179.764 65.4135 179.823C66.237 189.116 68.2958 198.175 68.7076 207.528C68.884 212.116 68.9428 216.704 69.4134 221.233C69.7075 224.115 73.825 272.584 73.8839 272.937C73.178 273.231 70.4722 273.584 70.3546 273.525C69.6487 269.114 69.5899 264.761 69.4722 260.349ZM73.6486 244.173C74.2368 243.997 74.825 243.82 75.472 243.585C76.0602 243.35 76.7073 243.291 77.3543 243.232C76.7661 244.35 75.8838 245.35 75.3544 246.409C74.825 247.408 74.4132 248.408 74.0603 249.408C73.8838 248.585 73.7074 247.761 73.7074 246.879C73.7662 245.938 73.825 245.056 73.6486 244.173ZM75.4132 252.526C76.119 250.467 79.9425 243.82 80.3542 242.173C80.3542 242.115 80.3542 242.115 80.3542 242.056C82.2953 241.879 84.1776 241.468 86.0599 241.173C84.3541 244.879 81.8836 248.291 80.0013 251.938C79.1189 253.702 77.9425 255.291 76.8249 256.879C75.7661 258.349 75.1779 260.055 74.178 261.526C74.0603 259.29 73.825 257.055 73.4133 254.82C73.6486 254.82 75.4132 252.644 75.4132 252.526ZM72.9427 283.054C72.4721 283.113 71.6486 283.407 70.9428 283.466C70.8251 282.29 71.0016 281.113 71.0016 279.937C70.9428 278.172 70.7075 276.466 70.6487 274.702C71.4722 274.76 72.3545 274.525 73.1192 274.231C73.4133 275.702 73.825 277.113 74.0015 278.643C74.2368 280.29 75.2955 282.76 72.9427 283.054ZM85.5305 248.997C83.707 251.997 82.1189 255.173 80.3542 258.29C78.8249 260.937 77.0602 263.408 75.2955 265.878C75.0603 266.173 74.825 266.525 74.5897 266.878C74.5309 265.702 74.4133 264.467 74.2956 263.29C74.3544 263.29 74.3544 263.231 74.4132 263.173C75.5308 261.879 76.2367 260.408 77.0014 258.879C78.119 256.643 79.8248 254.702 81.0012 252.526C83.1188 248.703 85.6481 244.997 87.354 240.997C87.5304 240.997 87.6481 240.938 87.8245 240.938C88.648 240.879 89.4127 240.82 90.2362 240.762C89.1186 243.703 87.1775 246.232 85.5305 248.997ZM72.7662 241.997C72.6486 239.644 72.2957 237.232 72.0016 234.88C74.6485 234.938 77.119 234.174 79.7072 233.644C83.3541 232.821 87.0598 232.233 90.7068 231.703C94.6478 231.115 98.5301 230.821 102.53 230.644C106.118 230.468 109.647 229.644 113.235 229.233C113.353 229.233 113.412 229.174 113.471 229.115C115.177 228.527 117.059 228.703 118.823 228.527C120.647 228.35 122.47 227.88 124.294 227.527C126.764 227.056 129.411 226.88 131.941 226.703C134.058 226.586 136.117 226.115 138.293 226.115C138.411 226.115 138.529 226.056 138.646 225.997C138.94 226.762 139.176 227.527 139.352 228.35C139.587 229.409 140.999 232.527 139.529 232.938C138.47 233.35 77.7661 240.291 72.7662 241.997ZM121 236.703C121.588 236.644 124.47 236.174 125.235 235.938C125.235 236.232 140.176 249.467 141.587 250.585C144.058 252.644 144.587 254.879 145.234 257.643C143.646 256.761 121.529 238.115 121 236.703ZM147.058 269.584C141.352 267.173 140.764 261.173 140.705 255.702C142.176 256.996 143.646 258.173 145.411 258.996C146.117 259.643 146.528 260.585 147.175 261.173C147.234 264.114 147.705 266.937 148.175 269.819C147.705 269.819 147.293 269.643 147.058 269.584ZM149.411 270.172C148.999 267.408 148.47 264.643 148.411 261.761C149.234 261.879 150.175 261.526 150.94 261.114C151.058 261.467 151.175 261.82 151.293 262.173C151.94 264.173 152.469 266.349 152.94 268.408C153.41 270.349 151.293 270.467 149.411 270.172Z" fill="#2AC0A5"/>
</svg>
